<?xml version="1.0" encoding="UTF-8"?>
<svg id="Layer_1" data-name="Layer 1" xmlns="http://www.w3.org/2000/svg" viewBox="0 0 60 60">
  <defs>
    <style>
      .cls-1 {
        fill: #fff;
      }
    </style>
  </defs>
  <path class="cls-1" d="M34.16,12.5H14.72c-2.39,0-4.33,1.94-4.33,4.33v31.47c0,2.39,1.94,4.33,4.33,4.33h19.44c2.39,0,4.33-1.94,4.33-4.33v-31.47c0-2.39-1.94-4.33-4.33-4.33ZM20.67,23.17c-.59-.8-.9-1.76-.9-2.75.19-6.16,9.14-6.17,9.33,0,0,.99-.31,1.95-.89,2.75,2.21,1.15,3.79,3.24,4.29,5.68.24,1.12-.47,2.22-1.58,2.46-.16.03-.32.05-.48.05h-11.99c-4.76-.71-.36-7.22,2.23-8.18h0ZM15.52,33.54h17.83c.48,0,.86.4.85.88,0,.47-.38.84-.85.85H15.52c-.48,0-.86-.4-.85-.88,0-.47.38-.85.85-.85ZM15.52,38.02h10.44c.48,0,.87.39.87.87s-.39.87-.87.87h-10.44c-.48,0-.87-.39-.87-.87s.39-.87.87-.87ZM25.97,48.71h-10.44c-.48,0-.87-.39-.87-.87s.39-.87.87-.87h10.44c.48,0,.87.39.87.87s-.39.87-.87.87ZM33.35,44.23H15.52c-.48,0-.87-.39-.87-.87,0-.48.39-.87.87-.87h17.83c.48,0,.86.4.85.88,0,.47-.38.84-.85.85h0Z"/>
  <path class="cls-1" d="M18.44,29.62h11.99c.18.03.35-.1.38-.28,0-.05,0-.1,0-.14-.44-2.16-1.94-3.95-3.99-4.75-.72.42-1.54.65-2.38.64-.84,0-1.66-.22-2.37-.65-2.05.81-3.56,2.6-4,4.76-.02.1,0,.21.08.29.07.09.19.14.3.14Z"/>
  <path class="cls-1" d="M46.52,10.88l-20.39-3.46c-2.02-.34-3.93,1.03-4.28,3.05l-.05.3h12.36c3.35,0,6.06,2.72,6.06,6.06v31.47c0,.73-.14,1.46-.4,2.14,2.02.33,3.92-1.02,4.27-3.04l5.47-32.24c.34-2.02-1.02-3.93-3.04-4.28h0Z"/>
  <path class="cls-1" d="M22.69,22.78c1.32.95,3.16.65,4.11-.67.77-1.06.74-2.5-.07-3.53-2.91-3.28-7.44,1.42-4.03,4.2h0Z"/>
</svg>