<?xml version="1.0" encoding="UTF-8"?>
<svg id="Layer_1" data-name="Layer 1" xmlns="http://www.w3.org/2000/svg" xmlns:xlink="http://www.w3.org/1999/xlink" viewBox="0 0 50 50">
  <defs>
    <style>
      .cls-1 {
        fill: url(#New_Gradient_Swatch);
        fill-rule: evenodd;
      }
    </style>
    <linearGradient id="New_Gradient_Swatch" data-name="New Gradient Swatch" x1="8.33" y1="25" x2="41.67" y2="25" gradientUnits="userSpaceOnUse">
      <stop offset=".02" stop-color="#e65233"/>
      <stop offset="1" stop-color="#f9a82d"/>
    </linearGradient>
  </defs>
  <path class="cls-1" d="M37.03,11.15h4.06c.32,0,.58.27.58.6v32.5c0,.33-.26.6-.58.6h-4.06c-.32,0-.58-.27-.58-.6V11.75c0-.33.26-.6.58-.6ZM23.84,24.21c-.74.74-1.71,1.24-2.8,1.39-.04,0-.07.04-.07.08v3.77s.04.08.08.08h.61s.07-.02.08-.06l.65-2h0c.05-.17.18-.31.36-.38.61-.23,1.41-.66,1.9-1.09,0,0,0,0,0,0,.14-.13.33-.19.53-.15l2.06.44s.07,0,.09-.04l1.29-2.24s.01-.07,0-.09l-1.41-1.57h0c-.12-.13-.18-.31-.15-.5.11-.66.13-1.54,0-2.2,0,0,0,0,0,0-.04-.18,0-.38.14-.53l1.41-1.57s.03-.06,0-.09l-1.29-2.24s-.05-.05-.09-.04l-2.06.44h0c-.17.04-.36,0-.51-.12-.51-.42-1.27-.89-1.89-1.1,0,0,0,0,0,0-.18-.06-.33-.2-.39-.39l-.65-2s-.04-.06-.08-.06h-.61s-.08.04-.08.08v3.77s.03.07.07.08c2.4.33,4.23,2.39,4.23,4.86,0,1.35-.55,2.58-1.44,3.47h0ZM10.8,24.95c.32.08.52.4.44.72-.37,1.53,1.06,2.9,2.57,2.45.19-.06.37-.14.53-.24h0c.38-.25.9.01.92.48.11,2.24,2.39,3.69,4.45,2.89.03-.01.05-.04.05-.07v-9.84s-.04-.08-.08-.08h-3.34s-.07.03-.08.06c-.24,1.16-1.11,2.11-2.25,2.45-.32.09-.65-.09-.75-.4s.09-.65.4-.75c1.37-.41,1.9-2.06,1.06-3.19-.26-.35-.63-.61-1.06-.74-.32-.09-.5-.43-.4-.75.09-.32.43-.5.75-.4,1.14.34,2.01,1.29,2.25,2.45,0,.04.04.06.08.06h3.34s.08-.04.08-.08v-9.84s-.02-.06-.05-.07c-1.18-.46-2.53-.19-3.44.68-.59.56-.97,1.33-1.01,2.19,0,0,0,0,0,0-.02.5-.55.74-.92.5-1.44-.92-3.35.24-3.14,1.97.02.18.07.3.06.44-.03.33-.33.57-.66.54-1.66-.17-2.8,1.59-2.01,3.03.35.64.72.67.89.93.18.28.09.65-.19.83-1.11.7-1.29,2.25-.36,3.18.43.43,1.04.65,1.67.59.07,0,.13,0,.2.01h0ZM30.43,9.53l2.19-2.19s.06-.03.09-.02c.03.01.05.04.05.07v8.31c0,11.22-9.18,20.39-20.39,20.39h-2.73c-.33,0-.6.27-.6.6s.27.6.6.6h2.73c11.88,0,21.6-9.72,21.6-21.6V7.39s.02-.06.05-.07c.03-.01.06,0,.09.02l2.19,2.19c.23.23.62.23.85,0s.23-.62,0-.85l-3.35-3.35c-.23-.23-.62-.23-.85,0l-3.35,3.35c-.23.23-.23.62,0,.85s.62.24.85,0h0ZM32.74,32.96v11.29c0,.33-.26.6-.58.6h-4.06c-.32,0-.58-.27-.58-.6v-11.29c0-.33.26-.6.58-.6h4.06c.32,0,.58.27.58.6ZM23.81,38.88v5.38c0,.33-.26.6-.58.6h-4.06c-.32,0-.58-.27-.58-.6v-5.38c0-.33.26-.6.58-.6h4.06c.32,0,.58.27.58.6ZM10.23,39.44h4.06c.32,0,.58.27.58.6v4.21c0,.33-.26.6-.58.6h-4.06c-.32,0-.58-.27-.58-.6v-4.21c0-.33.26-.6.58-.6Z"/>
</svg>