<?xml version="1.0" encoding="UTF-8"?>
<svg id="Layer_1" data-name="Layer 1" xmlns="http://www.w3.org/2000/svg" viewBox="0 0 60 60">
  <defs>
    <style>
      .cls-1 {
        fill: #fff;
        fill-rule: evenodd;
      }
    </style>
  </defs>
  <path class="cls-1" d="M10.72,12.88h42.57v-5.76c0-.66-.55-1.21-1.21-1.21H11.93c-.66,0-1.21.55-1.21,1.21v5.76ZM47.66,8.73v1.34h-8.07v-1.34h8.07ZM39.48,7.18h8.3c.84,0,1.44.77,1.44,1.6v1.24c0,.83-.6,1.6-1.44,1.6h-8.3c-.84,0-1.44-.77-1.44-1.6v-1.24c0-.83.6-1.6,1.44-1.6ZM18.45,8.73v1.34h-2.1v-1.34h2.1ZM16.24,7.18h2.32c.84,0,1.44.77,1.44,1.6v1.24c0,.83-.6,1.6-1.44,1.6h-2.32c-.84,0-1.44-.77-1.44-1.6v-1.24c0-.83.6-1.6,1.44-1.6ZM25.09,8.73v1.34h-2.1v-1.34h2.1ZM22.88,7.18h2.32c.84,0,1.44.77,1.44,1.6v1.24c0,.83-.6,1.6-1.44,1.6h-2.32c-.84,0-1.44-.77-1.44-1.6v-1.24c0-.83.6-1.6,1.44-1.6h0ZM19.33,22.3h.45v-1.17c0-.43.35-.77.77-.77s.77.35.77.77v1.17h.45c.43,0,.77.35.77.77v3.35c0,.43-.35.77-.77.77h-.45v1.45c0,.43-.35.77-.77.77s-.77-.35-.77-.77v-1.45h-.45c-.43,0-.77-.35-.77-.77v-3.35c0-.43.35-.77.77-.77ZM21.01,23.85h-.91v1.81h.91v-1.81ZM14.42,24.98h.45v-3.85c0-.43.35-.77.77-.77s.77.35.77.77v3.85h.45c.43,0,.77.35.77.77v3.35c0,.43-.35.77-.77.77h-.45v1c0,.43-.35.77-.77.77s-.77-.35-.77-.77v-1h-.45c-.43,0-.77-.35-.77-.77v-3.35c0-.43.35-.77.77-.77h0ZM16.1,26.53h-.91v1.81h.91v-1.81ZM9.51,22.56h.45v-1.44c0-.43.35-.77.77-.77s.77.35.77.77v1.44h.45c.43,0,.77.35.77.77v3.35c0,.43-.35.77-.77.77h-.45v4.3c0,.43-.35.77-.77.77s-.77-.35-.77-.77v-4.3h-.45c-.43,0-.77-.35-.77-.77v-3.35c0-.43.35-.77.77-.77h0ZM11.19,24.11h-.91v1.81h.91v-1.81ZM23.26,35.39h1.33v-17.89H6.7v17.89h11.38c0-.51,0-1.05,0-1.64,0-3.31,4.9-3.61,5.18-.06,0,.02,0,.04,0,.06h0v1.64ZM29.77,47.61h22.32c.66,0,1.21-.55,1.21-1.21V14.43H10.72v1.52h14.64c.43,0,.77.35.77.77v19.44c0,.43-.35.77-.77.77h-2.1v1.61l4.67-.03c1.72-.01,3.1,1.34,3.11,3.07.02,2.09-.72,4.14-1.28,6.03h0ZM30.33,51.22h-11.69v2.86h11.69v-2.86ZM23.26,40.09l4.68-.03c.86,0,1.54.66,1.56,1.54,0,2.76-1.41,5.38-1.81,8.08h-7.59c-.04-.38-.08-.76-.13-1.11-.09-.61-.21-1.47-.67-1.72h0c-1.46-.81-4.3-2.39-4.49-4.19-.04-.41-.06-1.03.11-1.45.05-.13.13-.23.23-.25.29-.04.94.55,1.5,1.05.57.51,1.08.97,1.61,1.04.67.08,1.11-.22,1.23-1.14.15-1.24.14-6.18.14-8.15,0-.9.83-1.24,1.45-.98.32.13.59.46.64,1.01v7.84c0,.43.35.77.77.77s.77-.35.77-.77v-1.53h0ZM45.24,17.17c3.38,0,6.13,2.74,6.13,6.13s-2.76,6.13-6.13,6.13-6.13-2.73-6.13-6.13,2.74-6.13,6.13-6.13h0ZM47.66,27.2c-1.48.92-3.36.92-4.83,0v-1.59c0-.64.53-1.17,1.17-1.17h2.5c.64,0,1.17.53,1.17,1.17v1.59ZM45.99,21.2c.41.41.41,1.08,0,1.49-.08.08-.17.15-.28.2h-.94c-.1-.05-.2-.12-.28-.2-.19-.19-.31-.45-.31-.75,0-.94,1.14-1.41,1.8-.75h0ZM45.24,19.57c-1.79,0-2.93,1.9-2.12,3.47-1.08.37-1.84,1.39-1.84,2.57-1.76-3.03.42-6.88,3.96-6.88s5.73,3.85,3.96,6.88c0-1.18-.76-2.2-1.84-2.57.81-1.57-.33-3.47-2.12-3.47h0ZM36.05,22.04v2.52h-7.19v-2.52h7.19ZM28.19,20.72h8.52c.37,0,.66.3.66.66v3.84c0,.37-.3.66-.66.66h-8.52c-.37,0-.66-.3-.66-.66v-3.84c0-.37.3-.66.66-.66ZM28.19,33.71c-.37,0-.66-.3-.66-.66s.3-.66.66-.66h21.48c.37,0,.66.3.66.66s-.3.66-.66.66h-21.48ZM34.46,30.86c-.37,0-.66-.3-.66-.66s.3-.66.66-.66h4.47c.37,0,.66.3.66.66s-.3.66-.66.66h-4.47ZM28.19,30.86c-.37,0-.66-.3-.66-.66s.3-.66.66-.66h3.41c.37,0,.66.3.66.66s-.3.66-.66.66h-3.41ZM49.01,36.96v2.52h-7.19v-2.52h7.19ZM41.15,35.64h8.52c.37,0,.66.3.66.66v3.84c0,.37-.3.66-.66.66h-8.52c-.37,0-.66-.3-.66-.66v-3.84c0-.37.3-.66.66-.66h0ZM37.41,36.96v2.52h-2.82v-2.52h2.82ZM33.93,35.64h4.14c.37,0,.66.3.66.66v3.84c0,.37-.3.66-.66.66h-4.14c-.37,0-.66-.3-.66-.66v-3.84c0-.37.3-.66.66-.66h0ZM33.86,46.37c-.37,0-.66-.3-.66-.66s.3-.66.66-.66h16.24c.37,0,.66.3.66.66s-.3.66-.66.66h-16.24ZM40.13,43.52c-.37,0-.66-.3-.66-.66s.3-.66.66-.66h4.47c.37,0,.66.3.66.66s-.3.66-.66.66h-4.47ZM33.86,43.52c-.37,0-.66-.3-.66-.66s.3-.66.66-.66h3.41c.37,0,.66.3.66.66s-.3.66-.66.66h-3.41ZM10.72,36.94h7.35c0,1.51,0,3.04-.07,4.21-.1-.09-.21-.19-.32-.29-.8-.72-1.73-1.56-2.72-1.44-1.66.2-1.82,2.17-1.69,3.39.23,2.17,2.47,3.74,4.27,4.8h-5.62c-.66,0-1.21-.55-1.21-1.21v-9.46Z"/>
</svg>