<?xml version="1.0" encoding="UTF-8"?>
<svg id="Layer_1" data-name="Layer 1" xmlns="http://www.w3.org/2000/svg" xmlns:xlink="http://www.w3.org/1999/xlink" viewBox="0 0 50 50">
  <defs>
    <style>
      .cls-1 {
        fill: url(#New_Gradient_Swatch);
        fill-rule: evenodd;
      }

      .cls-2 {
        fill: #fff;
      }
    </style>
    <linearGradient id="New_Gradient_Swatch" data-name="New Gradient Swatch" x1="5.37" y1="25.05" x2="44.63" y2="25.05" gradientUnits="userSpaceOnUse">
      <stop offset=".02" stop-color="#e65233"/>
      <stop offset="1" stop-color="#f9a82d"/>
    </linearGradient>
  </defs>
  <rect class="cls-2" x="6.26" y="9.81" width="36.77" height="22.96"/>
  <path class="cls-1" d="M44.63,34.04H5.37v.96c0,1.13.92,2.05,2.05,2.05h35.16c1.13,0,2.05-.92,2.05-2.05v-.96h0ZM16.86,38.32l-1.76,3.02c-.13.23.05.48.28.48h19.25c.23,0,.41-.25.28-.48l-1.76-3.02h-16.28ZM14.44,14.59c1.13.31,1.89,1.42,1.73,2.63l3.08,1.33c1.03-3.39-1.27-6.91-4.8-7.3v3.35ZM15.66,18.39l3.08,1.33c-1.57,2.75-5.1,3.69-7.82,2.08l2.01-2.68c.98.39,2.09.08,2.74-.73ZM11.92,18.35c-1.03-1.34-.38-3.31,1.25-3.76v-3.35c-2.84.32-5.05,2.72-5.05,5.65,0,1.63.69,3.1,1.79,4.14l2.01-2.68ZM23.43,19.32l4.11-5.35c-.45-.93.22-2.04,1.28-2.04.86,0,1.52.75,1.41,1.6l3.55,2.38c.36-.21.81-.24,1.2-.09l3.78-3.49-.79-.04c-.35-.02-.62-.31-.6-.66s.31-.62.66-.6l2.39.11c.39.02.67.37.59.78l-.42,2.32c-.06.34-.39.57-.74.51s-.57-.39-.51-.74l.11-.58-3.6,3.32c.26.9-.41,1.81-1.36,1.81-.86,0-1.52-.75-1.41-1.6l-3.55-2.38c-.29.17-.64.23-.97.16l-4.11,5.35c.45.93-.22,2.04-1.28,2.04-.78,0-1.42-.64-1.42-1.42,0-.89.82-1.56,1.69-1.39h0ZM21.85,24.6h2.61c.18,0,.32.14.32.32v5.01c0,.18-.14.32-.32.32h-2.61c-.18,0-.32-.14-.32-.32v-5.01c0-.18.14-.32.32-.32ZM38.83,15.81c-.18,0-.32.14-.32.32v13.8c0,.18.14.32.32.32h2.61c.18,0,.32-.14.32-.32v-13.8c0-.18-.14-.32-.32-.32h-2.61ZM33.17,21.03c-.18,0-.32.14-.32.32v8.58c0,.18.14.32.32.32h2.61c.18,0,.32-.14.32-.32v-8.58c0-.18-.14-.32-.32-.32h-2.61ZM27.51,18.34c-.18,0-.32.14-.32.32v11.27c0,.18.14.32.32.32h2.61c.18,0,.32-.14.32-.32v-11.27c0-.18-.14-.32-.32-.32h-2.61ZM44.63,32.77H5.37V10.33c0-1.13.92-2.05,2.05-2.05h35.16c1.13,0,2.05.92,2.05,2.05v22.44ZM9.21,31.58h.58c.35,0,.64-.28.64-.64s-.28-.64-.64-.64h-.58c-.35,0-.64.28-.64.64s.28.64.64.64ZM11.67,31.58h5.75c.35,0,.64-.28.64-.64s-.28-.64-.64-.64h-5.75c-.35,0-.64.28-.64.64s.28.64.64.64ZM11.67,26.47h5.75c.35,0,.64-.28.64-.64s-.28-.64-.64-.64h-5.75c-.35,0-.64.28-.64.64s.28.64.64.64ZM11.67,29.03h5.75c.35,0,.64-.28.64-.64s-.28-.64-.64-.64h-5.75c-.35,0-.64.28-.64.64s.28.64.64.64ZM9.21,26.47h.58c.35,0,.64-.28.64-.64s-.28-.64-.64-.64h-.58c-.35,0-.64.28-.64.64s.28.64.64.64ZM9.21,29.03h.58c.35,0,.64-.28.64-.64s-.28-.64-.64-.64h-.58c-.35,0-.64.28-.64.64s.28.64.64.64Z"/>
</svg>