<?xml version="1.0" encoding="UTF-8"?>
<svg id="Layer_1" data-name="Layer 1" xmlns="http://www.w3.org/2000/svg" xmlns:xlink="http://www.w3.org/1999/xlink" viewBox="0 0 50 50">
  <defs>
    <style>
      .cls-1 {
        fill: url(#New_Gradient_Swatch-4);
      }

      .cls-2 {
        fill: url(#New_Gradient_Swatch-5);
      }

      .cls-3 {
        fill: url(#New_Gradient_Swatch-2);
      }

      .cls-4 {
        fill: url(#New_Gradient_Swatch-6);
      }

      .cls-5 {
        fill: url(#New_Gradient_Swatch-7);
      }

      .cls-6 {
        fill: url(#New_Gradient_Swatch);
      }

      .cls-7 {
        fill: url(#New_Gradient_Swatch-8);
      }

      .cls-8 {
        fill: url(#New_Gradient_Swatch-3);
      }

      .cls-9 {
        fill: url(#New_Gradient_Swatch-9);
      }
    </style>
    <linearGradient id="New_Gradient_Swatch" data-name="New Gradient Swatch" x1="25.87" y1="34.02" x2="35.47" y2="34.02" gradientUnits="userSpaceOnUse">
      <stop offset=".02" stop-color="#e65233"/>
      <stop offset="1" stop-color="#f9a82d"/>
    </linearGradient>
    <linearGradient id="New_Gradient_Swatch-2" data-name="New Gradient Swatch" x1="11.03" y1="11.47" x2="19.76" y2="11.47" xlink:href="#New_Gradient_Swatch"/>
    <linearGradient id="New_Gradient_Swatch-3" data-name="New Gradient Swatch" x1="18.89" y1="18.45" x2="31.11" y2="18.45" xlink:href="#New_Gradient_Swatch"/>
    <linearGradient id="New_Gradient_Swatch-4" data-name="New Gradient Swatch" x1="30.24" y1="11.47" x2="38.97" y2="11.47" xlink:href="#New_Gradient_Swatch"/>
    <linearGradient id="New_Gradient_Swatch-5" data-name="New Gradient Swatch" x1="6.67" y1="24.89" x2="19.06" y2="24.89" xlink:href="#New_Gradient_Swatch"/>
    <linearGradient id="New_Gradient_Swatch-6" data-name="New Gradient Swatch" x1="30.94" y1="24.89" x2="43.33" y2="24.89" xlink:href="#New_Gradient_Swatch"/>
    <linearGradient id="New_Gradient_Swatch-7" data-name="New Gradient Swatch" x1="24.13" y1="33.15" x2="25.87" y2="33.15" xlink:href="#New_Gradient_Swatch"/>
    <linearGradient id="New_Gradient_Swatch-8" data-name="New Gradient Swatch" x1="24.13" y1="33.15" x2="25.87" y2="33.15" xlink:href="#New_Gradient_Swatch"/>
    <linearGradient id="New_Gradient_Swatch-9" data-name="New Gradient Swatch" x1="14.53" x2="24.13" xlink:href="#New_Gradient_Swatch"/>
  </defs>
  <g id="Line">
    <path class="cls-6" d="M33.66,27.06l-3.54-1.92-4.25,17.76h9.6v-12.77c0-1.28-.7-2.45-1.82-3.06Z"/>
    <path class="cls-3" d="M19.76,11.47c0-2.41-1.95-4.36-4.36-4.36s-4.36,1.95-4.36,4.36,1.95,4.36,4.36,4.36c.92,0,1.82-.32,2.56-.87.4-.81.93-1.55,1.58-2.18.15-.42.22-.86.23-1.31Z"/>
    <circle class="cls-8" cx="25" cy="18.45" r="6.11"/>
    <path class="cls-1" d="M38.97,11.47c0-2.41-1.95-4.36-4.36-4.36s-4.36,1.95-4.36,4.36c0,.46.08.91.23,1.34.65.62,1.18,1.35,1.58,2.15.74.56,1.63.86,2.56.87,2.41,0,4.36-1.95,4.36-4.36Z"/>
    <path class="cls-2" d="M17.14,18.45c0-.39.03-.78.1-1.16-.6.19-1.22.29-1.84.29-1.25,0-2.47-.38-3.49-1.09l-2.97,1.09c-1.37.51-2.28,1.83-2.27,3.29v12.42h6.11v-3.17c0-1.91,1.05-3.68,2.73-4.59l3.55-1.95c-1.24-1.42-1.92-3.25-1.92-5.13Z"/>
    <path class="cls-4" d="M41.06,17.58l-2.97-1.09c-1.03.71-2.24,1.09-3.49,1.09-.62,0-1.25-.1-1.84-.29.06.38.1.77.1,1.16,0,1.89-.68,3.71-1.92,5.13l3.55,1.95c1.68.92,2.73,2.68,2.73,4.59v3.17h6.11v-12.42c0-1.46-.9-2.78-2.27-3.29Z"/>
    <path class="cls-5" d="M25.87,28.06v7.4l-.87,3.67-.87-3.67v-7.4c0-.48.39-.87.87-.87s.87.39.87.87Z"/>
    <path class="cls-7" d="M25.87,28.06v7.4l-.87,3.67-.87-3.67v-7.4c0-.48.39-.87.87-.87s.87.39.87.87Z"/>
    <path class="cls-9" d="M16.34,27.06c-1.12.61-1.82,1.79-1.82,3.06v12.77h9.6l-4.25-17.76-3.54,1.92Z"/>
  </g>
</svg>