<?xml version="1.0" encoding="UTF-8"?>
<svg id="Layer_1" data-name="Layer 1" xmlns="http://www.w3.org/2000/svg" viewBox="0 0 60 60">
  <defs>
    <style>
      .cls-1 {
        fill: #fff;
        fill-rule: evenodd;
      }
    </style>
  </defs>
  <path class="cls-1" d="M42.84,14.72h8.45c.13,0,.25.05.34.14l1.94,1.98c.05.06.08.13.08.21,0,.08-.04.15-.09.2l-1.93,1.75c-.09.08-.2.12-.32.12h-8.46v-4.42ZM36.27,13.44h-8.39c-.12,0-.23-.04-.32-.12l-1.93-1.75c-.06-.05-.09-.13-.09-.2,0-.08.03-.15.08-.21l1.94-1.98c.09-.09.21-.14.34-.14h8.37v4.42ZM36.27,24.82h-8.39c-.12,0-.23-.04-.32-.12l-1.93-1.75c-.06-.05-.09-.13-.09-.2,0-.08.03-.15.08-.21l1.94-1.98c.09-.09.21-.14.34-.14h8.37v4.42ZM15.04,29.51v-.55c0-1.56,1.28-2.83,2.83-2.83h6.18c1.56,0,2.83,1.28,2.83,2.83v.55h-1.52v-.55c0-.72-.59-1.31-1.31-1.31h-6.18c-.72,0-1.31.59-1.31,1.31v.55h-1.52ZM24.88,42.66c3.43-.28,6.48-.92,8.12-1.85v6.85c0,1.06-.87,1.93-1.93,1.93H10.86c-1.06,0-1.93-.87-1.93-1.93v-6.85c1.65.94,4.7,1.58,8.12,1.86.29,1.9,1.93,3.35,3.91,3.35s3.62-1.45,3.91-3.35h0ZM17.11,41.15c-3.26-.25-6.13-.84-7.58-1.76-.21-.13-.41-.28-.6-.43-.7-.57-1.18-1.28-1.18-2.22v-4.72c0-.55.45-.99.99-.99h3.8v3.22c0,1.52,1.24,2.77,2.76,2.77h11.32c1.52,0,2.77-1.24,2.77-2.77v-3.22h3.8c.55,0,.99.44.99.99v4.72c0,.93-.48,1.65-1.18,2.22-.19.15-.39.3-.6.43-1.45.92-4.32,1.5-7.58,1.76-.41-1.75-1.98-3.05-3.85-3.05s-3.45,1.31-3.85,3.05h0ZM18.53,42.05c0-1.34,1.09-2.44,2.44-2.44s2.44,1.09,2.44,2.44-1.09,2.44-2.44,2.44-2.44-1.09-2.44-2.44ZM14.06,31.03h13.8v3.22c0,.68-.56,1.24-1.24,1.24h-11.32c-.68,0-1.24-.56-1.24-1.24v-3.22ZM40.84,7.37c.13,0,.25.05.34.14.09.09.14.21.14.34v41.74h-3.53V7.84c0-.13.05-.25.14-.34.09-.09.21-.14.34-.14h2.57ZM7.11,52.63c-.42,0-.76-.34-.76-.76s.34-.76.76-.76h44.87c.42,0,.76.34.76.76s-.34.76-.76.76H7.11Z"/>
</svg>