<?xml version="1.0" encoding="UTF-8"?>
<svg id="Layer_1" data-name="Layer 1" xmlns="http://www.w3.org/2000/svg" xmlns:xlink="http://www.w3.org/1999/xlink" viewBox="0 0 50 50">
  <defs>
    <style>
      .cls-1 {
        fill: url(#New_Gradient_Swatch);
      }

      .cls-1, .cls-2 {
        fill-rule: evenodd;
      }

      .cls-2 {
        fill: #fff;
      }
    </style>
    <linearGradient id="New_Gradient_Swatch" data-name="New Gradient Swatch" x1="5.08" y1="25" x2="44.92" y2="25" gradientUnits="userSpaceOnUse">
      <stop offset=".02" stop-color="#e65233"/>
      <stop offset="1" stop-color="#f9a82d"/>
    </linearGradient>
  </defs>
  <path class="cls-2" d="M43.45,32.45h-15.45c-2.8,5.5-8.58,8.03-13.13,6.5-4.23-1.42-5.86-5.83-6.1-6.5-.91,0-1.82,0-2.73,0V8.83h37.4v23.62Z"/>
  <path class="cls-1" d="M11.21,38.18l.08.08c.24.25.23.65-.01.88l-3.77,3.66c-.25.24-.65.23-.88-.01l-1.36-1.4c-.24-.25-.23-.65.01-.88l3.77-3.66c.25-.24.65-.23.88.01l.08.08,2.15-2.09c-.78-1.12-1.24-2.47-1.24-3.94,0-3.8,3.08-6.87,6.87-6.87s6.87,3.08,6.87,6.87-3.08,6.87-6.87,6.87c-1.7,0-3.26-.62-4.46-1.65l-2.11,2.05ZM17.79,35.26c2.4,0,4.36-1.96,4.36-4.36s-1.96-4.36-4.36-4.36-4.36,1.96-4.36,4.36,1.96,4.36,4.36,4.36ZM15.27,31.49c-.26-.26-.26-.68,0-.94.26-.26.68-.26.94,0l.75.75,2.44-2.21c.27-.25.69-.23.94.05.25.27.23.69-.05.94l-2.9,2.63c-.26.24-.67.23-.92-.02l-1.2-1.2ZM29.08,19.39c0-.07.03-.13.07-.18.05-.05.11-.07.18-.07h1.68c.07,0,.13.03.18.07.05.05.07.11.07.18v7.35c0,.07-.03.13-.07.18-.05.05-.11.07-.18.07h-1.68c-.07,0-.13-.03-.18-.07-.05-.05-.07-.11-.07-.18v-7.35ZM33.12,20.88c0-.14.11-.25.25-.25h1.68c.14,0,.25.11.25.25v5.87c0,.14-.11.25-.25.25h-1.68c-.14,0-.25-.11-.25-.25v-5.87ZM37.17,16.54c0-.07.03-.13.07-.18.05-.05.11-.07.18-.07h1.68c.07,0,.13.03.18.07.05.05.07.11.07.18v10.21c0,.07-.03.13-.07.18-.05.05-.11.07-.18.07h-1.68c-.07,0-.13-.03-.18-.07-.05-.05-.07-.11-.07-.18v-10.21ZM25.04,23.9c0-.07.03-.13.07-.18.05-.05.11-.07.18-.07h1.68c.07,0,.13.03.18.07.05.05.07.11.07.18v3.68c0,.07-.03.13-.07.18-.05.05-.11.07-.18.07h-1.68c-.07,0-.13-.03-.18-.07-.05-.05-.07-.11-.07-.18v-3.68ZM27.82,17.65c.07.19.1.39.1.59,0,.99-.81,1.79-1.79,1.79s-1.79-.8-1.79-1.79.81-1.79,1.79-1.79c.29,0,.57.07.82.2l1.53-1.33c-.07-.19-.1-.38-.1-.59,0-.99.81-1.79,1.79-1.79s1.79.81,1.79,1.79c0,.05,0,.09,0,.14l1.06.52c.32-.29.74-.46,1.2-.46.24,0,.46.05.67.13l1.74-1.82c-.1-.23-.16-.48-.16-.74,0-.99.8-1.79,1.79-1.79s1.79.81,1.79,1.79-.81,1.79-1.79,1.79c-.24,0-.46-.05-.67-.13l-1.74,1.82c.1.23.16.48.16.74,0,.99-.8,1.79-1.79,1.79s-1.79-.81-1.79-1.79c0-.05,0-.09,0-.14l-1.06-.52c-.32.29-.74.46-1.2.46-.29,0-.57-.07-.82-.2l-1.53,1.33ZM26.13,18.71c.26,0,.46-.21.46-.46s-.21-.46-.46-.46-.46.21-.46.46.21.46.46.46ZM30.17,15.19c.26,0,.46-.21.46-.46s-.21-.46-.46-.46-.46.21-.46.46.21.46.46.46ZM38.26,12.96c.26,0,.46-.21.46-.46s-.21-.46-.46-.46-.46.21-.46.46.21.46.46.46ZM34.21,17.18c.26,0,.46-.21.46-.46s-.21-.46-.46-.46-.46.21-.46.46.21.46.46.46ZM18.71,12.05c.05.02.16.05.21.09l2.66,2.25s.06.16.09.21h-2.71c-.13,0-.24-.09-.24-.21v-2.33ZM10.23,34.08h-2.08c-1.68,0-3.06-1.38-3.06-3.06V9.94c0-1.68,1.38-3.06,3.06-3.06h33.72c1.68,0,3.06,1.38,3.06,3.06v21.07c0,1.68-1.38,3.06-3.06,3.06h-10.6v4.87h4.66c1.44,0,2.61.94,2.61,2.09v2.09H11.46v-2.09c0-1.15,1.18-2.09,2.61-2.09h2.12c.51.1,1.04.15,1.59.15,4.53,0,8.2-3.67,8.2-8.2,0-.68-.08-1.35-.24-1.98h16.61V9.87c0-.24-.19-.42-.42-.42H8.06c-.24,0-.43.19-.43.42v19.05h2.19c-.16.63-.24,1.3-.24,1.98,0,1.13.23,2.2.64,3.18h0ZM10.85,26.53h-.06c-.16,0-.29-.13-.29-.29v-13.89c0-.16.13-.29.29-.29h6.6v2.33c0,.78.66,1.53,1.57,1.53h2.71v7.75c-1.15-.62-2.47-.97-3.87-.97-2.92,0-5.49,1.53-6.94,3.83ZM12.15,22.14h6.03c.37,0,.66-.3.66-.66s-.3-.66-.66-.66h-6.03c-.37,0-.66.3-.66.66s.3.66.66.66ZM12.15,19.71h6.03c.37,0,.66-.3.66-.66s-.3-.66-.66-.66h-6.03c-.37,0-.66.3-.66.66s.3.66.66.66ZM12.15,17.29h3.93c.37,0,.66-.3.66-.66s-.3-.66-.66-.66h-3.93c-.37,0-.66.3-.66.66s.3.66.66.66Z"/>
</svg>