<?xml version="1.0" encoding="UTF-8"?>
<svg id="Layer_1" data-name="Layer 1" xmlns="http://www.w3.org/2000/svg" xmlns:xlink="http://www.w3.org/1999/xlink" viewBox="0 0 50 50">
  <defs>
    <style>
      .cls-1 {
        fill: url(#New_Gradient_Swatch-4);
      }

      .cls-1, .cls-2, .cls-3, .cls-4, .cls-5 {
        fill-rule: evenodd;
      }

      .cls-6, .cls-2 {
        fill: #fff;
      }

      .cls-3 {
        fill: url(#New_Gradient_Swatch-3);
      }

      .cls-4 {
        fill: url(#New_Gradient_Swatch-2);
      }

      .cls-7 {
        fill: url(#New_Gradient_Swatch);
      }
    </style>
    <linearGradient id="New_Gradient_Swatch" data-name="New Gradient Swatch" x1="4.53" y1="27.3" x2="28.98" y2="27.3" gradientUnits="userSpaceOnUse">
      <stop offset=".02" stop-color="#e65233"/>
      <stop offset="1" stop-color="#f9a82d"/>
    </linearGradient>
    <linearGradient id="New_Gradient_Swatch-2" data-name="New Gradient Swatch" x1="26.38" y1="9.57" x2="40.29" y2="9.57" xlink:href="#New_Gradient_Swatch"/>
    <linearGradient id="New_Gradient_Swatch-3" data-name="New Gradient Swatch" x1="31.99" y1="26.06" x2="45.47" y2="26.06" xlink:href="#New_Gradient_Swatch"/>
    <linearGradient id="New_Gradient_Swatch-4" data-name="New Gradient Swatch" x1="28.06" y1="41.27" x2="37.98" y2="41.27" xlink:href="#New_Gradient_Swatch"/>
  </defs>
  <ellipse class="cls-6" cx="20.34" cy="38.97" rx=".91" ry=".78"/>
  <ellipse class="cls-6" cx="23.59" cy="36.77" rx=".91" ry=".78"/>
  <ellipse class="cls-6" cx="25.86" cy="32.85" rx=".91" ry=".78"/>
  <ellipse class="cls-6" cx="27.54" cy="27.3" rx=".91" ry=".78"/>
  <ellipse class="cls-6" cx="25.86" cy="21.75" rx=".91" ry=".78"/>
  <ellipse class="cls-6" cx="23.59" cy="18.09" rx=".91" ry=".78"/>
  <ellipse class="cls-6" cx="20.45" cy="15.6" rx=".91" ry=".78"/>
  <path class="cls-2" d="M13.84,14.16c-.97.49-1.01.96-2.37,1.96-1.62,1.19-2.01.85-2.7,1.71-.92,1.15-.29,1.86-1.28,3.07-.77.95-1.33.73-1.98,1.72-.62.95-.64,1.96-.64,2.38,0,1.58.79,2.7,1.09,3.09-.92.82-1.34,2.08-1.09,3.28.26,1.26,1.23,2.28,2.49,2.62.06.45.32,2.04,1.7,3.32,1.18,1.09,2.49,1.32,2.98,1.39.1.29.42,1.09,1.26,1.67,1.12.77,2.32.57,2.55.52l2.17-1.87c.02-7.61.04-15.22.06-22.83-.44-.82-.89-1.64-1.33-2.45-.76-.09-1.85-.09-2.92.44Z"/>
  <g>
    <path class="cls-7" d="M12.98,27.3c0,1.11-.61,2.14-1.58,2.67-.07.04-.15.06-.22.06-.16,0-.32-.09-.4-.24-.12-.22-.04-.5.18-.62.68-.38,1.11-1.09,1.11-1.87s-.42-1.49-1.11-1.87c-.22-.12-.3-.4-.18-.62s.4-.3.62-.18c.98.54,1.58,1.56,1.58,2.67h0ZM28.98,27.3c0,.79-.65,1.44-1.44,1.44-.63,0-1.17-.41-1.37-.98h-7.77v1.48h5.64c.16,0,.32.09.4.23l1.14,1.97c.09-.02.19-.03.28-.03.79,0,1.44.65,1.44,1.44s-.65,1.44-1.44,1.44-1.44-.65-1.44-1.44c0-.36.14-.7.36-.95l-1-1.74h-5.37v2.95h3.33c.16,0,.32.09.4.23l1.17,2.02c.09-.02.19-.03.28-.03.79,0,1.44.65,1.44,1.44s-.65,1.44-1.44,1.44-1.44-.65-1.44-1.44c0-.36.14-.7.36-.95l-1.04-1.79h-3.07v4.44c0,1.29-.87,2.39-2.12,2.69-.31.07-.63.11-.96.11-1.64,0-3.06-.96-3.74-2.35-2.27-.4-3.99-2.28-4.23-4.56-1.66-.48-2.83-2.01-2.83-3.77,0-.98.36-1.88.96-2.57-.62-.85-.96-1.89-.96-2.95,0-1.93,1.09-3.66,2.8-4.49.08-2.43,1.87-4.48,4.25-4.9.67-1.39,2.1-2.35,3.74-2.35.33,0,.65.04.96.11,1.25.29,2.12,1.4,2.12,2.69v4.44h3.07l1.04-1.79c-.22-.25-.36-.59-.36-.95,0-.79.65-1.44,1.44-1.44s1.44.65,1.44,1.44-.65,1.44-1.44,1.44c-.1,0-.19,0-.28-.03l-1.17,2.02c-.08.14-.23.23-.4.23h-3.33v2.95h5.37l1-1.74c-.22-.25-.36-.59-.36-.95,0-.79.65-1.44,1.44-1.44s1.44.65,1.44,1.44-.65,1.44-1.44,1.44c-.1,0-.19,0-.28-.03l-1.14,1.97c-.08.14-.23.23-.4.23h-5.64v1.48h7.77c.19-.57.73-.98,1.37-.98.79,0,1.44.65,1.44,1.44h0ZM25.34,21.75c0,.29.23.52.52.52s.52-.23.52-.52-.23-.52-.52-.52-.52.23-.52.52ZM23.07,17.83c0,.29.23.52.52.52s.52-.23.52-.52-.23-.52-.52-.52-.52.23-.52.52ZM23.59,36.25c-.29,0-.52.23-.52.52s.23.52.52.52.52-.23.52-.52-.23-.52-.52-.52ZM25.86,32.33c-.29,0-.52.23-.52.52s.23.52.52.52.52-.23.52-.52-.23-.52-.52-.52ZM17.49,29.24v-3.88s-1.65,0-1.66,0c-.72,0-1.38-.38-1.75-1.01-.23-.4-.32-.87-.25-1.32.04-.25.27-.42.53-.38.25.04.42.28.38.53-.04.25,0,.5.13.72.2.34.57.55.97.55,0,0,1.64,0,1.64,0v-3.43c.01-.74-.38-1.44-1.02-1.81-.41-.24-.88-.32-1.34-.25-.25.04-.49-.13-.53-.38s.13-.49.38-.53c.67-.11,1.36.02,1.95.36.21.12.39.26.56.42v-2.7c0-.87-.57-1.59-1.42-1.79-.24-.06-.49-.09-.75-.09-1.78,0-3.23,1.45-3.23,3.24,0,1.04.51,2.02,1.35,2.63.21.15.25.44.11.64-.15.21-.44.25-.64.11-1.09-.78-1.74-2.04-1.74-3.38,0-.27.03-.53.07-.78-1.75.54-2.99,2.17-2.99,4.06,0,.61.12,1.19.37,1.74.1.23,0,.5-.23.61-.06.03-.13.04-.19.04-.18,0-.34-.1-.42-.27-.19-.41-.32-.84-.39-1.29-1.2.73-1.95,2.04-1.95,3.48,0,.84.26,1.65.73,2.33.56-.41,1.24-.67,1.97-.72.25-.02.47.17.49.42.02.25-.17.47-.42.49-1.56.12-2.77,1.44-2.77,3,0,1.25.77,2.35,1.9,2.8.05-.58.19-1.14.43-1.67.1-.23.38-.33.61-.23.23.1.33.38.23.61-.25.55-.37,1.13-.37,1.74,0,1.89,1.25,3.52,2.99,4.06-.05-.25-.07-.51-.07-.78,0-1.34.65-2.6,1.74-3.38.21-.15.49-.1.64.11s.1.49-.11.64c-.85.61-1.35,1.59-1.35,2.63,0,1.78,1.45,3.24,3.23,3.24.25,0,.5-.03.74-.09.85-.2,1.42-.92,1.42-1.79v-2.7c-.17.16-.36.3-.56.42-.45.26-.97.4-1.49.4-.15,0-.31-.01-.46-.04-.25-.04-.42-.28-.38-.53.04-.25.28-.42.53-.38.47.07.93-.01,1.34-.25.64-.37,1.04-1.06,1.02-1.81v-3.43s-1.64,0-1.64,0c-.4,0-.77.2-.97.55-.13.22-.17.47-.13.72.04.25-.13.49-.38.53-.02,0-.05,0-.07,0-.22,0-.42-.16-.45-.39-.07-.45.02-.92.24-1.32.37-.63,1.05-1.02,1.77-1.01,0,0,1.64,0,1.64,0h0ZM28.06,27.3c0-.29-.23-.52-.52-.52s-.52.23-.52.52.23.52.52.52.52-.23.52-.52ZM19.01,15.6c0-.79.65-1.44,1.44-1.44s1.44.65,1.44,1.44-.65,1.44-1.44,1.44-1.44-.65-1.44-1.44ZM19.93,15.6c0,.29.23.52.52.52s.52-.23.52-.52-.23-.52-.52-.52-.52.23-.52.52ZM21.89,39c0,.79-.65,1.44-1.44,1.44s-1.44-.65-1.44-1.44.65-1.44,1.44-1.44,1.44.65,1.44,1.44ZM20.97,39c0-.29-.23-.52-.52-.52s-.52.23-.52.52.23.52.52.52.52-.23.52-.52Z"/>
    <g>
      <path class="cls-4" d="M33.33,4.19h0c-3.84,0-6.95,2.22-6.95,4.95,0,1.11.51,2.13,1.38,2.96.11.1.14.26.08.4l-.97,2.21c-.07.17.12.33.27.22l2.2-1.54c.1-.07.23-.08.34-.03,1.06.47,2.31.74,3.65.74,3.84,0,6.95-2.21,6.95-4.95s-3.11-4.95-6.95-4.95ZM34.85,10.49l-5.01.02c-.19,0-.35-.16-.35-.35s.16-.35.35-.35l5.01-.02c.19,0,.35.16.35.35s-.16.35-.35.35ZM37.43,8.47h-7.59c-.19,0-.35-.16-.35-.35s.16-.35.35-.35h7.59c.19,0,.35.16.35.35s-.16.35-.35.35Z"/>
      <path class="cls-5" d="M35.2,10.14c0,.19-.16.35-.35.35l-5.01.02c-.19,0-.35-.16-.35-.35s.16-.35.35-.35l5.01-.02c.19,0,.35.16.35.35Z"/>
      <path class="cls-2" d="M37.78,8.12c0,.19-.16.35-.35.35h-7.59c-.19,0-.35-.16-.35-.35s.16-.35.35-.35h7.59c.19,0,.35.16.35.35Z"/>
      <path class="cls-2" d="M35.2,10.14c0,.19-.16.35-.35.35l-5.01.02c-.19,0-.35-.16-.35-.35s.16-.35.35-.35l5.01-.02c.19,0,.35.16.35.35Z"/>
    </g>
    <g>
      <path class="cls-3" d="M33.57,21.23h10.31c.87,0,1.58.71,1.58,1.58v6.49c0,.87-.71,1.58-1.58,1.58h-10.31c-.87,0-1.58-.71-1.58-1.58v-6.49c0-.87.71-1.58,1.58-1.58h0Z"/>
      <path class="cls-2" d="M40.79,26.54c.37-.21.37-.75,0-.96l-2.55-1.47c-.37-.21-.83.05-.83.48v2.94c0,.43.46.69.83.48l2.55-1.47Z"/>
    </g>
    <path class="cls-1" d="M37.98,39.56c0-1.57-1.17-2.83-2.61-2.83-1.04,0-1.94.66-2.36,1.62-.42-.96-1.32-1.62-2.36-1.62-1.44,0-2.61,1.27-2.61,2.83,0,1.79,3.37,4.78,4.57,6.07.22.24.57.24.79,0,1.19-1.29,4.57-4.29,4.57-6.07Z"/>
  </g>
</svg>