<?xml version="1.0" encoding="UTF-8"?>
<svg id="Layer_1" data-name="Layer 1" xmlns="http://www.w3.org/2000/svg" xmlns:xlink="http://www.w3.org/1999/xlink" viewBox="0 0 50 50">
  <defs>
    <style>
      .cls-1 {
        fill: url(#New_Gradient_Swatch);
        fill-rule: evenodd;
      }
    </style>
    <linearGradient id="New_Gradient_Swatch" data-name="New Gradient Swatch" x1="8.16" y1="25" x2="41.84" y2="25" gradientUnits="userSpaceOnUse">
      <stop offset=".02" stop-color="#e65233"/>
      <stop offset="1" stop-color="#f9a82d"/>
    </linearGradient>
  </defs>
  <path class="cls-1" d="M32.54,30.89c1.91-.83,3.25-2.74,3.25-4.97,0-2.41-1.58-4.45-3.75-5.15.4-.4.64-.94.64-1.54,0-.87-.52-1.63-1.26-1.98-.03-.98-.23-1.92-.55-2.79h1.06l.73,1.9c1.01.24,1.98.64,2.86,1.19l1.86-.83,2.19,2.19-.82,1.86c.55.89.95,1.85,1.19,2.87l1.9.73v3.1l-1.9.73c-.24,1.01-.64,1.98-1.19,2.87l.82,1.86-2.19,2.19-1.73-.77c-.86-1.31-1.92-2.48-3.12-3.47ZM11.46,41.43c-1.11,0-2.01,0-2.6,0-.21,0-.4-.09-.54-.25-.13-.16-.19-.36-.16-.57.44-2.67,1.61-5.1,3.29-7.07v7.89ZM12.59,32.36c.56-.52,1.16-1,1.8-1.44v4.01c0,.31.25.57.57.57h15.18c.31,0,.57-.25.57-.57v-4.01c.64.43,1.24.91,1.8,1.43v9.08c-5.43,0-14.48,0-19.91,0v-9.07ZM15.52,30.23c2.08-1.15,4.48-1.8,7.03-1.8s4.94.65,7.03,1.8v4.13h-14.05v-4.13ZM33.63,33.53c1.69,1.97,2.86,4.4,3.3,7.08.03.2-.02.41-.16.57s-.33.25-.54.25h-2.6v-7.89ZM15.25,21.42h14.59c-.52,3.56-3.6,6.3-7.29,6.3s-6.77-2.75-7.29-6.3ZM14.81,18.16h15.47,0s.21,0,.21,0c.58,0,1.06.48,1.06,1.07s-.48,1.06-1.06,1.06h-15.89c-.59,0-1.07-.48-1.07-1.06s.48-1.07,1.07-1.07h.21s0,0,0,0h0ZM30.29,17.03h-3.16v-3.27c0-.31-.25-.57-.57-.57s-.57.25-.57.57v3.27h-6.91v-3.27c0-.31-.25-.57-.57-.57s-.57.25-.57.57v3.27h-3.15c.21-3.06,2.18-5.63,4.9-6.69l.43,2.39c.05.31.35.51.66.46.31-.05.51-.35.46-.66l-.53-2.97c-.04-.34.18-.55.45-.68.34-.17.77-.26,1.15-.3.08,0,.15,0,.23,0s.15,0,.23,0c.38.04.81.13,1.15.3.27.14.48.34.45.68,0,0-.53,2.97-.53,2.97-.05.31.15.6.46.66.31.05.6-.15.66-.46l.43-2.39c2.72,1.07,4.7,3.63,4.9,6.69h0Z"/>
</svg>