<?xml version="1.0" encoding="UTF-8"?>
<svg id="Layer_1" data-name="Layer 1" xmlns="http://www.w3.org/2000/svg" xmlns:xlink="http://www.w3.org/1999/xlink" viewBox="0 0 50 50">
  <defs>
    <style>
      .cls-1 {
        fill: url(#New_Gradient_Swatch);
        fill-rule: evenodd;
      }
    </style>
    <linearGradient id="New_Gradient_Swatch" data-name="New Gradient Swatch" x1="3.84" y1="25" x2="46.16" y2="25" gradientUnits="userSpaceOnUse">
      <stop offset=".02" stop-color="#e65233"/>
      <stop offset="1" stop-color="#f9a82d"/>
    </linearGradient>
  </defs>
  <path class="cls-1" d="M24.43,3.84c3.92,0,7.1,3.18,7.1,7.1s-3.18,7.1-7.1,7.1-7.1-3.18-7.1-7.1c0-3.92,3.18-7.1,7.1-7.1h0ZM25.14,40.51v5.65h1.99v-4.19c0-.39.32-.71.71-.71s.71.32.71.71v4.19h2.13v-5.42c0-1.35-1.17-2.13-2.53-2.49l-.36.51c-.64.9-1.57,1.55-2.64,1.76h0ZM23.73,40.51c-1.07-.2-2-.86-2.64-1.76l-.35-.5c-1.36.37-2.53,1.14-2.53,2.49v5.42h2.13v-4.19c0-.39.32-.71.71-.71s.71.32.71.71v4.19h1.99v-5.65ZM26.23,37.88c.13.02.26.04.4.06-.54.75-1.32,1.23-2.19,1.23s-1.66-.48-2.2-1.24c.13-.02.26-.04.39-.05.56.29,1.17.45,1.81.45s1.24-.16,1.8-.44h0ZM23.02,32.65l-1.06,2.69c.53.88,1.4,1.57,2.48,1.57s1.93-.68,2.46-1.55l-.95-2.51c-.95.11-1.99.02-2.92-.21h0ZM11.57,34.43h-3.21c.1.44.5.77.97.77h1.28c.47,0,.87-.33.97-.77h0ZM7.34,32.25c.1.44.5.77.97.77h3.31c.47,0,.87-.33.97-.77h-5.24ZM6.39,30.27c.16.34.5.57.89.57h5.29c.39,0,.74-.23.89-.57.03-.06.05-.13.07-.21h-7.22c.02.07.04.14.07.21ZM17.97,31.42c.38.07.63.44.56.82s-.44.63-.82.56l-.43-.08,2.51,2.51c.28.28.28.72,0,1-.28.28-.72.28-1,0l-2.51-2.51.08.43c.07.38-.18.75-.56.82s-.75-.18-.82-.56l-.51-2.67c-.1-.49.32-.93.82-.84l2.68.51ZM25.14,25.78c0,.39-.32.71-.71.71s-.71-.32-.71-.71v-3.55l-.25.36c-.22.32-.65.4-.98.19s-.4-.65-.19-.98l1.52-2.25c.27-.42.89-.43,1.17-.01l1.53,2.26c.22.32.13.76-.19.98-.32.22-.76.13-.98-.19l-.25-.36v3.55ZM30.07,36.23c-.28.28-.72.28-1,0-.28-.28-.28-.72,0-1l2.51-2.51-.43.08c-.38.07-.75-.18-.82-.56s.18-.75.56-.82l2.68-.51c.5-.1.93.35.82.84l-.51,2.67c-.07.38-.44.63-.82.56s-.63-.44-.56-.82l.08-.43-2.51,2.51ZM27.43,26.76c.71.5,1.76,4.42.14,6.43l-.76-2c-1.23.55-3.41.28-4.61-.33l-.92,2.32-.59-2.4c-.29-1.2.54-2.04,1.75-2.04h.22c0-.24.07-.79.66-.79h2.77c.51,0,1.39-.3,1.34-1.2h0ZM9.93,14.83c3.36,0,6.09,2.73,6.09,6.09s-2.04,3.19-2.42,7.74h-1.91v-5.58h.71c1.17,0,2.12-.95,2.12-2.12s-.95-2.12-2.12-2.12-2.12.95-2.12,2.12v.71h-.69v-.71c0-1.17-.95-2.12-2.12-2.12s-2.12.95-2.12,2.12.95,2.12,2.12,2.12h.71v5.58h-1.91c-.39-4.55-2.42-4.46-2.42-7.74s2.73-6.09,6.09-6.09h0ZM10.27,28.66v-5.58h-.69v5.58h.69ZM8.17,21.67v-.71c0-.39-.32-.71-.71-.71s-.71.32-.71.71.32.71.71.71h.71ZM11.68,21.67h.71c.39,0,.71-.32.71-.71s-.32-.71-.71-.71-.71.32-.71.71v.71ZM39.86,16.09l-.49-1.26h-1.51l-.49,1.26c-.85.17-1.63.5-2.32.96l-1.24-.55-1.07,1.07.55,1.24c-.46.69-.8,1.48-.96,2.32l-1.26.49v1.51l1.26.49c.17.85.5,1.63.96,2.32l-.55,1.24,1.07,1.07,1.24-.55c.69.46,1.48.8,2.32.96l.49,1.26h1.51l.49-1.26c.85-.17,1.63-.5,2.32-.96l1.24.55,1.07-1.07-.55-1.24c.46-.69.8-1.48.96-2.32l1.26-.49v-1.51l-1.26-.49c-.17-.85-.5-1.63-.96-2.32l.55-1.24-1.07-1.07-1.24.55c-.69-.46-1.48-.8-2.32-.96h0ZM38.62,18.74c2.01,0,3.63,1.63,3.63,3.63s-1.63,3.63-3.63,3.63-3.63-1.63-3.63-3.63,1.63-3.63,3.63-3.63ZM27.17,8.51c-.39-.93-1.13-1.46-1.94-1.67-.03,0-.06-.01-.09-.02v-.37c0-.39-.32-.71-.71-.71s-.71.32-.71.71v.38c-1.18.27-2.1,1.2-2.04,2.47.07,1.48,1.34,2.09,2.64,2.31.63.1,1.58.31,1.67,1.08,0,.05,0,.08,0,.1.01.62-.75.86-1.25.92-.1.01-.18.02-.25.02-.71.02-1.48-.3-1.67-1.04-.09-.38-.47-.61-.85-.52-.38.09-.61.47-.52.85.28,1.11,1.17,1.82,2.26,2.04v.37c0,.39.32.71.71.71s.71-.32.71-.71v-.36c1.2-.21,2.31-.99,2.27-2.32,0-.09,0-.17-.01-.23-.18-1.52-1.51-2.08-2.85-2.3-.55-.09-1.42-.29-1.46-.98-.03-.59.47-.94,1-1.05.73-.15,1.48.15,1.78.87.15.36.56.53.92.38.36-.15.53-.56.38-.92h0Z"/>
</svg>