<?xml version="1.0" encoding="UTF-8"?>
<svg id="Layer_1" data-name="Layer 1" xmlns="http://www.w3.org/2000/svg" xmlns:xlink="http://www.w3.org/1999/xlink" viewBox="0 0 50 50">
  <defs>
    <style>
      .cls-1 {
        fill: url(#New_Gradient_Swatch);
        fill-rule: evenodd;
      }
    </style>
    <linearGradient id="New_Gradient_Swatch" data-name="New Gradient Swatch" x1="3.57" y1="25" x2="46.43" y2="25" gradientUnits="userSpaceOnUse">
      <stop offset=".02" stop-color="#e65233"/>
      <stop offset="1" stop-color="#f9a82d"/>
    </linearGradient>
  </defs>
  <path class="cls-1" d="M32.56,35.32v-2.23c0-3.25-1.42-6.18-3.67-8.21,1.08-1,2.52-1.61,4.1-1.61,1.67,0,3.18.68,4.26,1.77,1.09,1.09,1.77,2.6,1.77,4.26s-.68,3.18-1.77,4.26c-1.09,1.09-2.6,1.77-4.26,1.77-.14,0-.29,0-.43-.02ZM46.01,27.51l-1.82-.59c-.2-.07-.35-.22-.4-.42-.26-1.01-.66-1.97-1.18-2.85-.11-.19-.12-.39-.02-.58l.87-1.7c.12-.24.08-.51-.11-.7l-1.72-1.72c-.19-.19-.47-.23-.7-.11l-1.7.87c-.19.09-.4.09-.58-.02-.88-.52-1.84-.92-2.85-1.18-.2-.05-.36-.19-.42-.4l-.59-1.82c-.08-.25-.31-.42-.58-.42h-2.43c-.27,0-.49.16-.58.42l-.59,1.82c-.07.2-.22.35-.42.4-1.01.26-1.97.66-2.85,1.18-.19.11-.39.11-.58.02l-1.7-.87c-.24-.12-.51-.08-.7.11l-1.72,1.72c-.19.19-.23.47-.11.7l.4.78c1.8.23,3.46.89,4.88,1.88,1.34-1.31,3.17-2.13,5.2-2.13s3.9.83,5.24,2.17c1.34,1.34,2.17,3.2,2.17,5.24s-.83,3.9-2.17,5.24c-1.34,1.34-3.19,2.17-5.24,2.17-.14,0-.29,0-.43-.01v4.58c0,.54-.15,1.04-.41,1.47h2.06c.27,0,.49-.16.58-.42l.59-1.82c.07-.2.22-.34.42-.4,1.01-.26,1.97-.66,2.85-1.18.19-.11.39-.12.58-.02l1.7.87c.24.12.51.08.7-.11l1.72-1.72c.19-.19.23-.47.11-.7l-.87-1.71c-.1-.19-.09-.4.02-.58.52-.88.92-1.84,1.18-2.85.05-.2.2-.36.4-.42l1.82-.59c.25-.08.42-.31.42-.58v-2.43c0-.27-.16-.5-.42-.58h0ZM15.84,32.45l1.53,2.72,1.53-2.72-.76-9.02h-1.54l-.76,9.02ZM21.51,23.44h-1.99l.77,9.11h0c0,.13-.02.27-.09.39l-2.23,3.96c-.06.11-.15.2-.27.27-.33.19-.75.07-.94-.26l-2.2-3.91c-.09-.13-.14-.28-.12-.45l.77-9.11h-1.99c-5.31,0-9.66,4.35-9.66,9.66v8.19c0,.81.66,1.47,1.47,1.47h4.58v-5.78c0-.38.31-.69.69-.69s.69.31.69.69v5.78h12.73v-5.78c0-.38.31-.69.69-.69s.69.31.69.69v5.78h4.59c.81,0,1.47-.66,1.47-1.47v-8.19c0-5.31-4.35-9.66-9.66-9.66ZM17.37,20.88c3.75,0,6.82-3.06,6.82-6.82s-3.06-6.82-6.82-6.82-6.82,3.06-6.82,6.82,3.06,6.82,6.82,6.82Z"/>
</svg>