<?xml version="1.0" encoding="UTF-8"?>
<svg id="Layer_1" data-name="Layer 1" xmlns="http://www.w3.org/2000/svg" xmlns:xlink="http://www.w3.org/1999/xlink" viewBox="0 0 50 50">
  <defs>
    <style>
      .cls-1 {
        fill: url(#New_Gradient_Swatch);
      }

      .cls-1, .cls-2 {
        fill-rule: evenodd;
      }

      .cls-3, .cls-2 {
        fill: #fff;
      }
    </style>
    <linearGradient id="New_Gradient_Swatch" data-name="New Gradient Swatch" x1="8.49" y1="25" x2="41.51" y2="25" gradientUnits="userSpaceOnUse">
      <stop offset=".02" stop-color="#e65233"/>
      <stop offset="1" stop-color="#f9a82d"/>
    </linearGradient>
  </defs>
  <ellipse class="cls-3" cx="24.86" cy="11.93" rx="4.59" ry="5.03"/>
  <path class="cls-2" d="M40.88,17.62c.08,6.74.17,13.47.25,20.21-9.1.12-18.2.24-27.3.36-1.27-.33-2.55-.66-3.82-.99-.24-3.73-.49-7.45-.73-11.18-.05-2.8-.1-5.6-.15-8.4,3.03,0,6.07,0,9.1,0l1.27-1.04c.18.25,2.09,2.83,5.5,2.83,3.41,0,5.32-2.58,5.5-2.83.42.35.84.69,1.27,1.04h9.11Z"/>
  <path class="cls-1" d="M38.58,35.91c-.1-.41-.26-.81-.48-1.17l.34-.76-.89-.89-.76.34c-.36-.22-.76-.39-1.17-.48l-.3-.77h-1.27l-.3.77c-.41.1-.81.26-1.17.48l-.76-.34-.89.89.34.76c-.22.36-.39.76-.48,1.17l-.77.3v1.27l.77.3c.1.41.26.81.48,1.17l-.34.76.89.89.76-.34c.36.22.76.39,1.17.48l.3.77h1.27l.3-.77c.41-.1.81-.26,1.17-.48l.76.34.89-.89-.34-.76c.22-.36.39-.76.48-1.17l.77-.3v-1.27l-.77-.3ZM34.68,39.05c-1.22,0-2.21-.99-2.21-2.21s.99-2.21,2.21-2.21,2.21.99,2.21,2.21-.99,2.21-2.21,2.21ZM25,30.44c1.2,0,2.17.97,2.17,2.17s-.97,2.17-2.17,2.17-2.17-.97-2.17-2.17.97-2.17,2.17-2.17ZM33.17,26.02h-16.34c-.82,0-1.48.67-1.48,1.48v10.21c0,.82.67,1.48,1.48,1.48h5.13v2.36h-2.26c-.7,0-1.27.45-1.27,1.01v1.44h13.12v-1.44c0-.56-.57-1.01-1.27-1.01h-2.26v-2.36h1.74l.09-.21c-.04-.08-.07-.17-.1-.25l-1.02-.39v-3l1.02-.39c.03-.08.07-.17.1-.25l-.44-1,2.12-2.12,1,.44c.08-.04.17-.07.25-.1l.39-1.02h1.47v-3.4c0-.82-.67-1.48-1.48-1.48h0ZM29.59,33.23l-.76.29c-.1.41-.26.79-.48,1.15l.33.75-.88.88-.75-.33c-.35.22-.74.38-1.15.48l-.29.76h-1.24l-.29-.76c-.41-.1-.79-.26-1.15-.48l-.75.33-.88-.88.33-.75c-.22-.35-.38-.74-.48-1.15l-.76-.29v-1.24l.76-.29c.1-.41.26-.79.48-1.15l-.33-.75.88-.88.75.33c.35-.22.74-.38,1.15-.48l.29-.76h1.24l.29.76c.41.1.79.26,1.15.48l.75-.33.88.88-.33.75c.22.35.38.74.48,1.15l.76.29v1.24h0ZM29.2,7.73c-2.32-2.32-6.08-2.32-8.4,0-2.32,2.32-2.32,6.08,0,8.4s6.08,2.32,8.4,0,2.32-6.08,0-8.4ZM28.54,13.46h-2.01v2.01h-3.06v-2.01h-2.01v-3.06h2.01v-2.01h3.06v2.01h2.01v3.06ZM30.09,17.03c-2.81,2.81-7.38,2.81-10.19,0-.14-.14-.28-.29-.41-.44v8.17h2.15v-.8c0-.26.21-.48.48-.48h1.61c.26,0,.48.21.48.48v.8h1.59v-.8c0-.26.21-.48.48-.48h1.61c.26,0,.48.21.48.48v.8h2.15v-8.17c-.13.15-.27.3-.41.44ZM24.2,21.41c0,.26-.21.48-.48.48h-1.61c-.26,0-.48-.21-.48-.48v-1.61c0-.26.21-.48.48-.48h1.61c.26,0,.48.21.48.48v1.61ZM28.35,21.41c0,.26-.21.48-.48.48h-1.61c-.26,0-.48-.21-.48-.48v-1.61c0-.26.21-.48.48-.48h1.61c.26,0,.48.21.48.48v1.61ZM9.12,17.62c-.35,0-.63.29-.63.63v19.31c0,.35.29.63.63.63h5c-.03-.16-.04-.32-.04-.48v-10.21c0-1.08.63-2.02,1.54-2.47h-.99c-.26,0-.48-.21-.48-.48v-1.61c0-.26.21-.48.48-.48h1.61c.26,0,.48.21.48.48v1.61c0,.07-.02.14-.04.2.05,0,.11,0,.16,0h1.4v-7.13h-9.11,0ZM12.56,32.86c0,.26-.21.48-.48.48h-1.61c-.26,0-.48-.21-.48-.48v-1.61c0-.26.21-.48.48-.48h1.61c.26,0,.48.21.48.48v1.61ZM12.56,28.71c0,.26-.21.48-.48.48h-1.61c-.26,0-.48-.21-.48-.48v-1.61c0-.26.21-.48.48-.48h1.61c.26,0,.48.21.48.48v1.61ZM12.56,24.56c0,.26-.21.48-.48.48h-1.61c-.26,0-.48-.21-.48-.48v-1.61c0-.26.21-.48.48-.48h1.61c.26,0,.48.21.48.48v1.61ZM40.88,17.62h-9.11v7.13h1.4c.05,0,.11,0,.16,0-.03-.06-.04-.13-.04-.2v-1.61c0-.26.21-.48.48-.48h1.61c.26,0,.48.21.48.48v1.61c0,.26-.21.48-.48.48h-.99c.91.45,1.54,1.39,1.54,2.47v3.4h.27l.39,1.02c.08.03.17.07.25.1l.61-.27v-.5c0-.26.21-.48.48-.48h1.61c.26,0,.48.21.48.48v1.61c0,.24-.19.45-.42.47l.38.38-.44,1c.04.08.07.17.1.25l1.02.39v2.85h.25c.35,0,.63-.29.63-.63v-19.31c0-.35-.28-.63-.63-.63h0ZM39.99,28.71c0,.26-.21.48-.48.48h-1.61c-.26,0-.48-.21-.48-.48v-1.61c0-.26.21-.48.48-.48h1.61c.26,0,.48.21.48.48v1.61ZM39.99,24.56c0,.26-.21.48-.48.48h-1.61c-.26,0-.48-.21-.48-.48v-1.61c0-.26.21-.48.48-.48h1.61c.26,0,.48.21.48.48v1.61Z"/>
</svg>