<?xml version="1.0" encoding="UTF-8"?>
<svg id="Layer_1" data-name="Layer 1" xmlns="http://www.w3.org/2000/svg" xmlns:xlink="http://www.w3.org/1999/xlink" viewBox="0 0 50 50">
  <defs>
    <style>
      .cls-1 {
        fill: url(#New_Gradient_Swatch);
        fill-rule: evenodd;
      }

      .cls-2 {
        fill: #fff;
      }
    </style>
    <linearGradient id="New_Gradient_Swatch" data-name="New Gradient Swatch" x1="5.65" y1="25" x2="44.35" y2="25" gradientUnits="userSpaceOnUse">
      <stop offset=".02" stop-color="#e65233"/>
      <stop offset="1" stop-color="#f9a82d"/>
    </linearGradient>
  </defs>
  <ellipse class="cls-2" cx="12.57" cy="20.64" rx="5.94" ry="6.13"/>
  <ellipse class="cls-2" cx="25.32" cy="12.63" rx="3.68" ry="3.8"/>
  <ellipse class="cls-2" cx="38.34" cy="20.39" rx="3.68" ry="5.09"/>
  <ellipse class="cls-2" cx="8.58" cy="35.31" rx="1.03" ry=".91"/>
  <path class="cls-1" d="M12.29,13.87c3.67,0,6.64,2.97,6.64,6.64s-2.97,6.64-6.64,6.64-6.64-2.97-6.64-6.64,2.97-6.64,6.64-6.64ZM16.23,24.16c.89-.96,1.43-2.24,1.43-3.65,0-2.97-2.4-5.37-5.37-5.37s-5.37,2.4-5.37,5.37c0,1.41.54,2.69,1.43,3.65.59-1.61,2.13-2.76,3.94-2.76s3.35,1.15,3.94,2.76ZM12.29,21.09c-1.17,0-2.12-.95-2.12-2.12s.95-2.12,2.12-2.12,2.12.95,2.12,2.12-.95,2.12-2.12,2.12ZM26.51,7.28c.53.13,1.04.34,1.5.62l.97-.43,1.15,1.15-.43.97c.29.46.5.97.62,1.5l.99.38v1.62l-.99.38c-.13.53-.34,1.04-.62,1.5l.43.97-1.15,1.15-.97-.43c-.46.29-.97.5-1.5.62l-.38.99h-1.62l-.38-.99c-.53-.13-1.04-.34-1.5-.62l-.97.43-1.15-1.15.43-.97c-.29-.46-.5-.97-.62-1.5l-.99-.38v-1.62l.99-.38c.13-.53.34-1.04.62-1.5l-.43-.97,1.15-1.15.97.43c.46-.29.97-.5,1.5-.62l.38-1h1.62l.38,1ZM25.32,9.45c-1.57,0-2.83,1.27-2.83,2.83s1.27,2.83,2.83,2.83,2.83-1.27,2.83-2.83-1.27-2.83-2.83-2.83ZM38.35,26.51c-3.31,0-6-2.7-6-6s2.7-6,6-6,6,2.7,6,6-2.7,6-6,6ZM37.71,17c-.12.03-.23.06-.35.11-.83.33-1.43,1.04-1.38,2.02.06,1.27,1.19,1.81,2.26,1.99.28.05.57.11.84.23.27.12.5.31.55.65h0c.03.26-.09.44-.27.56-.27.18-.63.26-.95.27h0c-.6.01-1.22-.24-1.37-.85-.08-.34-.43-.55-.77-.46-.34.08-.55.43-.46.77.24.96,1.01,1.55,1.91,1.75v.28c0,.35.28.63.63.63s.63-.28.63-.63v-.27c1.06-.2,2.06-.94,1.91-2.2-.16-1.3-1.35-1.8-2.44-1.98h0c-.26-.04-.53-.11-.76-.22-.23-.11-.42-.28-.44-.57h0c-.02-.39.25-.65.57-.77.58-.23,1.4-.09,1.7.64.14.32.51.47.83.34.32-.14.48-.51.34-.83-.34-.81-1-1.28-1.72-1.44v-.28c0-.35-.28-.63-.63-.63s-.63.28-.63.63v.29ZM9.76,34.82s0,0,0,.01l3.5,6.19s0,0,0,0l.77,1.36c.07.12.03.28-.09.34h0s-1.69.96-1.69.96c-.12.07-.28.03-.34-.09h0s-4.97-8.78-4.97-8.78h0c-.07-.12-.03-.28.09-.34h0s1.69-.96,1.69-.96c.12-.07.28-.02.34.1l.68,1.21ZM8.48,34.51c-.38.05-.65.41-.59.79.06.38.41.65.8.59.38-.05.65-.41.59-.8-.06-.38-.41-.65-.8-.59ZM14.06,39.84l-2.88-5.09,4.4-2.55c1.02-.59,2.04-1.05,3.15-.69h0c1.45.47,3.81,1.47,6.23,1.92.55.2.9.74.75,1.3h0c-.15.56-.63.83-1.28.75-1.33-.27-2.56-.68-3.92-1.04-.34-.09-.69.11-.78.45s.11.69.45.78c1.4.38,4.04,1.07,4.05,1.07,0,0,.75.12.75.12,1.11.18,2.13.02,3.1-.55l6.02-3.51c1.38-.81,2.34-.98,2.96-.72.47.2.66.67.65,1.12,0,.38-.15.76-.45.94l-10.93,6.73h0c-.85.53-1.78.64-2.75.39l-7.93-2.12c-.16-.04-.34-.02-.48.06l-1.12.65ZM25.95,25.5c0,.35-.28.63-.63.63s-.63-.28-.63-.63v-4.32c0-.35.28-.63.63-.63s.63.28.63.63v4.32ZM27.62,27.86c-.27.22-.67.17-.89-.1-.22-.27-.17-.67.1-.89l3.71-2.93c.27-.22.67-.17.89.1.22.27.17.67-.1.89l-3.71,2.93ZM23.8,26.86c.27.22.32.62.1.89-.22.27-.62.32-.89.1l-3.71-2.93c-.27-.22-.32-.62-.1-.89.22-.27.62-.32.89-.1l3.71,2.93Z"/>
</svg>