<?xml version="1.0" encoding="UTF-8"?>
<svg id="Layer_1" data-name="Layer 1" xmlns="http://www.w3.org/2000/svg" xmlns:xlink="http://www.w3.org/1999/xlink" viewBox="0 0 50 50">
  <defs>
    <style>
      .cls-1 {
        fill: url(#New_Gradient_Swatch-4);
      }

      .cls-2 {
        fill: url(#New_Gradient_Swatch-13);
      }

      .cls-3 {
        fill: url(#New_Gradient_Swatch-5);
      }

      .cls-4 {
        fill: url(#New_Gradient_Swatch-2);
      }

      .cls-5 {
        fill: url(#New_Gradient_Swatch-14);
      }

      .cls-6 {
        fill: url(#New_Gradient_Swatch-12);
      }

      .cls-7 {
        fill: url(#New_Gradient_Swatch-6);
      }

      .cls-8 {
        fill: url(#New_Gradient_Swatch-11);
      }

      .cls-9 {
        fill: url(#New_Gradient_Swatch-7);
      }

      .cls-10 {
        fill: url(#New_Gradient_Swatch);
      }

      .cls-11 {
        fill: url(#New_Gradient_Swatch-8);
      }

      .cls-12 {
        fill: url(#New_Gradient_Swatch-3);
      }

      .cls-13 {
        fill: url(#New_Gradient_Swatch-10);
      }

      .cls-14 {
        fill: url(#New_Gradient_Swatch-15);
      }

      .cls-15 {
        fill: url(#New_Gradient_Swatch-9);
      }
    </style>
    <linearGradient id="New_Gradient_Swatch" data-name="New Gradient Swatch" x1="29.95" y1="18.22" x2="37.17" y2="18.22" gradientUnits="userSpaceOnUse">
      <stop offset=".02" stop-color="#e65233"/>
      <stop offset="1" stop-color="#f9a82d"/>
    </linearGradient>
    <linearGradient id="New_Gradient_Swatch-2" data-name="New Gradient Swatch" x1="33.96" y1="22.06" x2="38.15" y2="22.06" xlink:href="#New_Gradient_Swatch"/>
    <linearGradient id="New_Gradient_Swatch-3" data-name="New Gradient Swatch" x1="28.93" y1="15.03" x2="35.17" y2="15.03" xlink:href="#New_Gradient_Swatch"/>
    <linearGradient id="New_Gradient_Swatch-4" data-name="New Gradient Swatch" x1="37.26" y1="25" x2="38.57" y2="25" xlink:href="#New_Gradient_Swatch"/>
    <linearGradient id="New_Gradient_Swatch-5" data-name="New Gradient Swatch" x1="34.74" y1="29.2" x2="38.15" y2="29.2" xlink:href="#New_Gradient_Swatch"/>
    <linearGradient id="New_Gradient_Swatch-6" data-name="New Gradient Swatch" x1="27.51" y1="23.27" x2="35.71" y2="23.27" xlink:href="#New_Gradient_Swatch"/>
    <linearGradient id="New_Gradient_Swatch-7" data-name="New Gradient Swatch" x1="17.6" y1="30.19" x2="26.65" y2="30.19" xlink:href="#New_Gradient_Swatch"/>
    <linearGradient id="New_Gradient_Swatch-8" data-name="New Gradient Swatch" x1="23.36" y1="33.81" x2="35.63" y2="33.81" xlink:href="#New_Gradient_Swatch"/>
    <linearGradient id="New_Gradient_Swatch-9" data-name="New Gradient Swatch" x1="12" y1="18.27" x2="24.88" y2="18.27" xlink:href="#New_Gradient_Swatch"/>
    <linearGradient id="New_Gradient_Swatch-10" data-name="New Gradient Swatch" x1="23.36" y1="13.17" x2="30.64" y2="13.17" xlink:href="#New_Gradient_Swatch"/>
    <linearGradient id="New_Gradient_Swatch-11" data-name="New Gradient Swatch" x1="11.43" y1="26.55" x2="33.14" y2="26.55" xlink:href="#New_Gradient_Swatch"/>
    <linearGradient id="New_Gradient_Swatch-12" data-name="New Gradient Swatch" x1="6.32" y1="36.97" x2="23.37" y2="36.97" xlink:href="#New_Gradient_Swatch"/>
    <linearGradient id="New_Gradient_Swatch-13" data-name="New Gradient Swatch" x1="6.32" y1="13.06" x2="23.37" y2="13.06" xlink:href="#New_Gradient_Swatch"/>
    <linearGradient id="New_Gradient_Swatch-14" data-name="New Gradient Swatch" x1="29.91" y1="35.17" x2="43.68" y2="35.17" xlink:href="#New_Gradient_Swatch"/>
    <linearGradient id="New_Gradient_Swatch-15" data-name="New Gradient Swatch" x1="30.24" y1="14.83" x2="43.68" y2="14.83" xlink:href="#New_Gradient_Swatch"/>
  </defs>
  <g id="International-Global-Worldwide-Economy-Business">
    <path class="cls-10" d="M35.5,17.29c-.37.24-.84.27-1.23.08l-1.94-.97-1.98.49c-.13.03-.27.04-.4.03.54.5,1.07,1.01,1.59,1.53.28.28.55.56.82.84l.28.19,2.73.55,1.79-1.02c-.35-.7-.76-1.38-1.22-2.01l-.45.3Z"/>
    <path class="cls-4" d="M35.99,21.1c-.25.14-.55.2-.84.15l-1.2-.24c.89.99,1.73,1.98,2.53,2.98.59-.79,1.14-1.57,1.67-2.35-.13-.51-.29-1.01-.48-1.49l-1.68.95Z"/>
    <path class="cls-12" d="M32.21,13.89h-2.57l-.71,1.06,1.11.74,1.98-.49c.29-.07.6-.04.86.1l1.93.96.35-.23c-.74-.84-1.59-1.59-2.52-2.23-.14.06-.29.09-.44.09h0Z"/>
    <path class="cls-1" d="M38.57,25c0-.55-.04-1.09-.1-1.64-.38.54-.79,1.09-1.2,1.64.41.55.82,1.09,1.2,1.64.07-.54.1-1.09.1-1.64h0Z"/>
    <path class="cls-3" d="M36.36,32.4c.81-1.24,1.42-2.61,1.79-4.04-.52-.78-1.07-1.57-1.67-2.35-.56.71-1.14,1.41-1.75,2.11l.5.67c.16.21.25.47.25.74v2.01l.88.87Z"/>
    <path class="cls-7" d="M33.98,27.1c.6-.7,1.18-1.4,1.73-2.1-1.26-1.6-2.65-3.2-4.14-4.75l-1.21-.8h-1.95l-.91,1.35.46,1.86,1.93.47,1.33-.43c.44-.14.93-.02,1.26.31l.78.77c.23.23.36.55.36.88v1.99l.34.46Z"/>
    <path class="cls-9" d="M21.17,35.6l.75.25v-1.84c0-.47.26-.9.68-1.1l1.78-.89v-1.03c.01-.53.35-1,.85-1.16l1.07-.36.35-1.39h-.72c-.41,0-.8-.21-1.03-.56l-.85-1.3h-1.88c-.33,0-.64-.13-.87-.37l-1.33-1.34-2.37,1.45v1.85l.98.98.8.4c.42.21.68.64.68,1.1v1.99l1.1,3.3Z"/>
    <path class="cls-11" d="M35.63,33.41l-1.02-1.02c-.23-.23-.36-.54-.36-.87v-2.01l-.35-.46c-.76.84-1.55,1.67-2.36,2.49-2.52,2.54-5.26,4.85-8.18,6.92,4.69.58,9.34-1.33,12.27-5.05h0Z"/>
    <path class="cls-15" d="M21.84,12.69l-.44-.77c-4.51,1.25-8.06,4.72-9.41,9.2l1.68,2.16,2.68,1.34v-1.14l-1.3-.87c-.35-.23-.55-.62-.56-1.03v-1.01c0-.59.41-1.09.99-1.21l2.51-.5,2.26-1.13,1.63-2.18c.17-.22.4-.38.67-.45l2.04-.51.27-.39c-.29-.22-.57-.44-.86-.65l-1.3-.22c-.38-.06-.7-.29-.88-.63h0Z"/>
    <path class="cls-13" d="M23.36,11.53c.39.27.77.55,1.16.84l.86.15c.64.1,1.09.68,1.03,1.33.43.35.86.71,1.29,1.07,0-.23.07-.45.2-.63l.71-1.06c.23-.35.62-.55,1.03-.56h.99c-1.77-.81-3.69-1.23-5.64-1.23-.55,0-1.09.04-1.64.1h0Z"/>
    <path class="cls-8" d="M33.14,28.04l-.5-.66c-.16-.21-.25-.47-.25-.74v-1.99l-.79-.78-1.32.43c-.23.08-.47.08-.7.02l-1.91-.46c-.45-.11-.79-.45-.91-.9l-.46-1.86c-.08-.33-.03-.68.16-.97l.91-1.36c.23-.34.62-.55,1.03-.55h1.11c-1.2-1.15-2.44-2.23-3.68-3.25l-.21.31c-.17.26-.43.44-.73.51l-2.02.5-1.63,2.18c-.11.16-.26.28-.43.37l-2.27,1.13c-.09.05-.19.08-.29.1l-2.52.5v1.01l1.3.87c.35.23.55.62.56,1.03v1.05l1.73-1.05c.49-.3,1.12-.22,1.52.19l1.33,1.34h1.88c.42,0,.8.21,1.03.56l.85,1.3h.72c.68,0,1.23.55,1.23,1.23,0,.1-.01.2-.04.3l-.35,1.39c-.1.41-.41.74-.81.87l-1.07.36v1.03c0,.46-.27.89-.69,1.09l-1.78.89v1.84c0,.68-.55,1.23-1.23,1.23-.13,0-.26-.02-.39-.06l-.75-.25c-.37-.12-.66-.41-.78-.78l-1.1-3.3c-.04-.13-.06-.26-.06-.39v-1.99l-.8-.4c-.12-.06-.23-.14-.32-.23l-.98-.98c-.23-.23-.36-.55-.36-.87v-1.85s0-.08.02-.12h-.02c-.19,0-.38-.04-.55-.13l-2.69-1.35c-.17-.08-.31-.21-.43-.35l-1.06-1.36c-1.23,6.98,3.13,13.74,10,15.49,3.25-2.19,6.27-4.69,9.03-7.47.86-.86,1.68-1.73,2.48-2.62h0Z"/>
    <path class="cls-6" d="M21.63,38.14c.57.15,1.15.25,1.73.32-.43.3-.84.58-1.26.86-4.38,2.87-8.23,4.36-11.05,4.36-1.29.08-2.55-.37-3.5-1.24-2.11-2.12-1.5-6.57,1.69-12.2l1.07.6c-2.85,5.04-3.56,9.05-1.89,10.72,1.92,1.92,7.02.64,12.99-3.28.07-.04.14-.09.21-.14h0Z"/>
    <path class="cls-2" d="M22.1,10.67c.42.28.84.56,1.26.86-.58.07-1.16.18-1.73.32-.07-.05-.14-.1-.21-.14-5.97-3.91-11.07-5.2-12.99-3.28-1.68,1.68-.96,5.7,1.92,10.77l-1.07.61c-3.21-5.66-3.84-10.13-1.72-12.25,2.43-2.42,7.87-1.25,14.55,3.12h0Z"/>
    <path class="cls-5" d="M39.33,27.89c4.37,6.68,5.54,12.12,3.12,14.55-.95.87-2.21,1.31-3.5,1.24-2.36,0-5.46-1.05-9.03-3.12l.62-1.07c5.2,3.01,9.32,3.79,11.04,2.07,1.92-1.92.64-7.02-3.28-12.99-.05-.07-.09-.14-.14-.22.15-.56.25-1.14.32-1.71.3.42.59.84.86,1.25h0Z"/>
    <path class="cls-14" d="M30.85,10.31l-.61-1.07c5.64-3.19,10.08-3.8,12.2-1.69,2.42,2.43,1.25,7.87-3.12,14.55-.27.41-.56.83-.86,1.25-.07-.58-.18-1.15-.32-1.71.05-.07.09-.14.14-.22,3.92-5.97,5.2-11.07,3.28-12.99-1.67-1.67-5.68-.96-10.72,1.89h0Z"/>
  </g>
</svg>