<?xml version="1.0" encoding="UTF-8"?>
<svg id="Layer_1" data-name="Layer 1" xmlns="http://www.w3.org/2000/svg" xmlns:xlink="http://www.w3.org/1999/xlink" viewBox="0 0 50 50">
  <defs>
    <style>
      .cls-1 {
        fill: url(#New_Gradient_Swatch);
        fill-rule: evenodd;
      }
    </style>
    <linearGradient id="New_Gradient_Swatch" data-name="New Gradient Swatch" x1="5.86" y1="25" x2="44.14" y2="25" gradientUnits="userSpaceOnUse">
      <stop offset=".02" stop-color="#e65233"/>
      <stop offset="1" stop-color="#f9a82d"/>
    </linearGradient>
  </defs>
  <path class="cls-1" d="M8.87,24.45c-.26.4-.87.42-1.14-.07l-1.65-2.83c-.18-.31-.07-.71.24-.89s.71-.07.89.24l.58,1c1.09-9.09,8.83-16.04,18.1-16.04,10.07,0,18.24,8.16,18.24,18.24,0,4.89-1.94,9.5-5.34,12.89-.26.26-.67.26-.93,0s-.26-.67,0-.93c6.6-6.6,6.62-17.32,0-23.94-6.61-6.61-17.33-6.61-23.94,0-2.61,2.61-4.37,6.06-4.83,9.92l.75-.96c.22-.28.63-.33.92-.11.28.22.33.63.11.92l-2.01,2.57ZM5.86,26.8v15.14h3.02c0-1.57,1.28-2.85,2.85-2.85s2.85,1.28,2.85,2.85h8.41v-2.81h-3.33c-.36,0-.65-.29-.65-.65s.29-.65.65-.65h3.33v-.61h-7.36c-.36,0-.65-.29-.65-.65s.29-.65.65-.65h7.36v-9.12h-5.62v5.17c0,.57-.71.91-1.15.42l-1.44-1.47-1.48,1.51c-.41.42-1.12.12-1.12-.46h0v-5.17h-6.32ZM12.83,26.8v5.17l1.94-1.98,1.94,1.98v-5.17h-3.88ZM25.21,36.57h4.7l-1.84-3.67h-2.86v3.67ZM27.72,39.75c-1.21,0-2.2.98-2.2,2.2s.98,2.2,2.2,2.2,2.2-.98,2.2-2.2-.98-2.2-2.2-2.2ZM27.72,41.04c.5,0,.9.4.9.9s-.4.9-.9.9-.9-.4-.9-.9.4-.9.9-.9ZM11.73,39.75c1.21,0,2.2.98,2.2,2.2s-.98,2.2-2.2,2.2-2.2-.98-2.2-2.2c0-1.21.98-2.2,2.2-2.2ZM11.73,41.04c.5,0,.9.4.9.9s-.4.9-.9.9-.9-.4-.9-.9.4-.9.9-.9ZM29.06,31.19h-5.37v10.75h1.18c0-1.57,1.28-2.85,2.85-2.85s2.85,1.28,2.85,2.85h1.27v-5.19l-2.78-5.56ZM29.91,37.22c.46,0,.84-.49.56-1l-1.81-3.62c-.11-.23-.34-.36-.58-.36h0s-2.86,0-2.86,0c-.36,0-.65.29-.65.65v3.67c0,.36.29.65.65.65h4.7,0ZM26.56,11.25v4.69c1.54-.03,3.05-.18,4.5-.44-1.06-2.18-2.62-3.91-4.5-4.25ZM22.84,10.88c-2.42.55-4.6,1.74-6.35,3.38.87.38,1.86.7,2.95.97.82-1.78,1.96-3.36,3.4-4.35ZM15.55,15.23c-2.41,2.75-3.7,6.41-3.37,10.26h5.46c0-.17-.01-.35-.02-.52h-1.63c-.36,0-.65-.29-.65-.65s.29-.65.65-.65h1.63c.07-2.66.54-5.13,1.32-7.22-1.19-.3-2.27-.67-3.22-1.1-.06-.03-.12-.07-.17-.11h0ZM33,36.14c3.83-2.3,6.45-6.42,6.67-11.16h-5.48c-.07,2.66-.54,5.13-1.32,7.22.4.1.79.21,1.16.33.34.11.54.47.43.82-.11.34-.47.54-.82.43-.41-.13-.84-.25-1.28-.35-.12.25-.24.5-.36.74l.99,1.99ZM39.67,23.67c-.29-6.27-4.77-11.44-10.7-12.78,1.44.98,2.58,2.57,3.4,4.35.44-.11.87-.23,1.28-.35.34-.11.71.09.82.43.11.34-.09.71-.43.82-.37.12-.76.23-1.16.33.77,2.09,1.25,4.56,1.32,7.22h5.48ZM25.25,29.88v-4.91h-6.32c0,.17.01.35.02.52h5.36v4.39h.95ZM30.81,31.77c.26.04.52.09.77.14.76-1.98,1.23-4.36,1.3-6.93h-6.32v4.91h3.31l.94,1.89ZM18.93,23.67h6.32v-6.41c-1.77-.04-3.46-.22-5.03-.52-.76,1.98-1.23,4.36-1.29,6.93ZM26.56,23.67h6.32c-.07-2.58-.54-4.95-1.29-6.93-1.62.31-3.32.49-5.03.52v6.41ZM20.75,15.5c1.39.25,2.9.41,4.5.44v-4.69c-1.87.34-3.43,2.07-4.5,4.25Z"/>
</svg>