<?xml version="1.0" encoding="UTF-8"?>
<svg id="Layer_1" data-name="Layer 1" xmlns="http://www.w3.org/2000/svg" xmlns:xlink="http://www.w3.org/1999/xlink" viewBox="0 0 50 50">
  <defs>
    <style>
      .cls-1 {
        fill: url(#linear-gradient-13);
      }

      .cls-2 {
        fill: url(#linear-gradient-2);
      }

      .cls-3 {
        fill: url(#linear-gradient-10);
      }

      .cls-4 {
        fill: url(#linear-gradient-12);
      }

      .cls-5 {
        fill: #fff;
      }

      .cls-6 {
        fill: url(#linear-gradient-4);
      }

      .cls-7 {
        fill: url(#linear-gradient-3);
      }

      .cls-8 {
        fill: url(#linear-gradient-5);
      }

      .cls-9 {
        fill: url(#linear-gradient-8);
      }

      .cls-10 {
        fill: url(#linear-gradient-7);
      }

      .cls-11 {
        fill: url(#linear-gradient-9);
      }

      .cls-12 {
        fill: url(#linear-gradient-11);
      }

      .cls-13 {
        fill: url(#linear-gradient-6);
      }

      .cls-14 {
        fill: url(#linear-gradient);
      }
    </style>
    <linearGradient id="linear-gradient" x1="9.58" y1="10.06" x2="18.7" y2="10.06" gradientUnits="userSpaceOnUse">
      <stop offset=".02" stop-color="#e65233"/>
      <stop offset="1" stop-color="#f9a82d"/>
    </linearGradient>
    <linearGradient id="linear-gradient-2" x1="8.33" y1="13.17" x2="19.93" y2="13.17" xlink:href="#linear-gradient"/>
    <linearGradient id="linear-gradient-3" x1="35.14" y1="12.69" x2="37.14" y2="12.69" xlink:href="#linear-gradient"/>
    <linearGradient id="linear-gradient-4" x1="30.07" y1="12.69" x2="41.67" y2="12.69" xlink:href="#linear-gradient"/>
    <linearGradient id="linear-gradient-5" x1="34.42" y1="35.88" x2="37.32" y2="35.88" xlink:href="#linear-gradient"/>
    <linearGradient id="linear-gradient-6" x1="30.07" y1="35.88" x2="41.67" y2="35.88" xlink:href="#linear-gradient"/>
    <linearGradient id="linear-gradient-7" x1="9.79" y1="34.65" x2="18.11" y2="34.65" xlink:href="#linear-gradient"/>
    <linearGradient id="linear-gradient-8" x1="16.57" y1="39.36" x2="20.98" y2="39.36" xlink:href="#linear-gradient"/>
    <linearGradient id="linear-gradient-9" x1="13.83" y1="27.5" x2="28.35" y2="27.5" xlink:href="#linear-gradient"/>
    <linearGradient id="linear-gradient-10" x1="22.48" y1="24.29" x2="26.13" y2="24.29" xlink:href="#linear-gradient"/>
    <linearGradient id="linear-gradient-11" x1="26.6" y1="20.5" x2="29.59" y2="20.5" xlink:href="#linear-gradient"/>
    <linearGradient id="linear-gradient-12" x1="23.55" y1="18.85" x2="25" y2="18.85" xlink:href="#linear-gradient"/>
    <linearGradient id="linear-gradient-13" x1="27.9" y1="24.28" x2="31.52" y2="24.28" xlink:href="#linear-gradient"/>
  </defs>
  <ellipse class="cls-5" cx="36.15" cy="13.02" rx="3.65" ry="3.71"/>
  <ellipse class="cls-5" cx="35.45" cy="35.88" rx="3.65" ry="3.71"/>
  <path class="cls-5" d="M8.42,9.31c1.94,1.47,3.87,2.94,5.81,4.41,1.87-1.47,3.74-2.94,5.61-4.41-.06-.13-.18-.39-.45-.62-.27-.23-.55-.32-.7-.35-.06,0-.11,0-.17,0-2.98,0-5.96,0-8.94,0-.13.02-.45.09-.74.34-.27.23-.38.5-.42.63Z"/>
  <g id="Digital_Marketing" data-name="Digital Marketing">
    <path class="cls-14" d="M18.7,8.34c-.16,0,.42,0-8.91,0-.36,0-.83-.43,4.35,3.44l4.56-3.44Z"/>
    <path class="cls-2" d="M19.93,15.59c0-6.3.04-5.96-.09-6.27-5.75,4.31-5.37,4.1-5.71,4.1s0,.17-5.71-4.1c-.09.33-.09.01-.09,6.27,0,.8.65,1.45,1.45,1.45h8.7c.8,0,1.45-.65,1.45-1.45h0Z"/>
    <path class="cls-7" d="M35.14,13.7l2-1.01-2-1v2.01Z"/>
    <path class="cls-6" d="M40.22,8.34h-8.7c-.8,0-1.45.65-1.45,1.45v5.8c0,.8.65,1.45,1.45,1.45h8.7c.8,0,1.45-.65,1.45-1.45v-5.8c0-.8-.65-1.45-1.45-1.45ZM37.8,13.99c-2.17,1.07-2.17,1.15-2.65,1.15-.8,0-1.45-.65-1.45-1.45,0-1.77-.2-2.68.72-3.23s1.53,0,3.41.93c.71.37.99,1.24.62,1.95-.14.28-.38.51-.66.64Z"/>
    <circle class="cls-8" cx="35.87" cy="35.88" r="1.45"/>
    <path class="cls-13" d="M40.99,34.43c-.37,0-.68-.3-.68-.67,0-.18.07-.35.2-.48.26-.26.26-.69,0-.95l-1.09-1.09c-.25-.26-.67-.27-.93-.02,0,0-.01.01-.02.02-.26.26-.69.27-.95,0-.13-.13-.2-.3-.2-.48,0-.37-.3-.67-.67-.67h-1.55c-.37,0-.67.3-.67.67h0c0,.37-.3.68-.67.68-.18,0-.35-.07-.48-.2-.25-.26-.67-.27-.93-.02,0,0-.01.01-.02.02l-1.09,1.09c-.26.26-.27.68,0,.94,0,0,0,0,0,0,.26.27.25.7-.02.96-.12.12-.29.19-.46.19-.37,0-.67.3-.67.67h0v1.55c0,.37.3.67.67.67h0c.37,0,.68.3.68.67,0,.18-.07.35-.2.48-.26.25-.27.67-.02.93,0,0,.01.01.02.02l1.09,1.09c.25.26.67.27.93.02,0,0,.01-.01.02-.02.26-.26.69-.27.95,0,.13.13.2.3.2.48,0,.37.3.67.67.67h1.55c.37,0,.67-.3.67-.67h0c0-.37.3-.68.67-.68.18,0,.35.07.48.2.25.26.67.27.93.02,0,0,.01-.01.02-.02l1.09-1.09c.26-.25.27-.67.02-.93,0,0-.01-.01-.02-.02-.26-.26-.27-.69,0-.95.13-.13.3-.2.48-.2.37,0,.67-.3.67-.67h0v-1.55c0-.37-.3-.67-.67-.67h0ZM35.87,38.77c-1.6,0-2.9-1.3-2.9-2.9s1.3-2.9,2.9-2.9,2.9,1.3,2.9,2.9-1.3,2.9-2.9,2.9Z"/>
    <path class="cls-10" d="M12.99,30.49l-2.57,2.56c-.85.85-.85,2.22,0,3.07l2.05,2.05c.85.85,2.22.85,3.07,0l2.57-2.56-5.12-5.12Z"/>
    <path class="cls-9" d="M18.62,37.15l-2.04,2.05,2.04,2.04c.62.51,1.53.42,2.04-.2.44-.54.44-1.31,0-1.84l-2.04-2.05Z"/>
    <path class="cls-11" d="M13.83,29.28l5.49,5.49,9.04-4.28-10.25-10.25-4.28,9.04Z"/>
    <path class="cls-3" d="M22.48,22.57l3.55,3.55c.41-1.55-.5-3.14-2.05-3.55-.49-.13-1.01-.13-1.5,0Z"/>
    <path class="cls-12" d="M27.33,21.99c.4,0,.41-.12,2.05-1.75.28-.28.29-.74,0-1.03-.28-.28-.74-.29-1.03,0l-1.54,1.54c-.29.28-.3.74-.02,1.02.14.14.33.22.53.22h0Z"/>
    <path class="cls-4" d="M25,19.94v-2.17c0-.4-.32-.72-.72-.72s-.72.32-.72.72v2.17c0,.4.32.72.72.72s.72-.32.72-.72Z"/>
    <path class="cls-1" d="M30.8,23.56h-2.17c-.4,0-.72.32-.72.72s.32.72.72.72h2.17c.4,0,.72-.32.72-.72s-.32-.72-.72-.72Z"/>
  </g>
</svg>