<?xml version="1.0" encoding="UTF-8"?>
<svg id="Layer_1" data-name="Layer 1" xmlns="http://www.w3.org/2000/svg" viewBox="0 0 60 60">
  <defs>
    <style>
      .cls-1 {
        fill: #fff;
      }
    </style>
  </defs>
  <path class="cls-1" d="M27.17,12.05h4.72v3.78l4.38-3.78h6.01c1.04,0,1.89-.85,1.89-1.89v-5.67c0-1.04-.85-1.89-1.89-1.89h-15.12c-1.04,0-1.89.85-1.89,1.89v5.67c0,1.04.85,1.89,1.89,1.89ZM40.39,6.38h1.89v1.89h-1.89v-1.89ZM30.94,6.38h7.56v1.89h-7.56v-1.89ZM27.17,6.38h1.89v1.89h-1.89v-1.89Z"/>
  <path class="cls-1" d="M37.56,49.84v7.56h5.57l-.76-7.56h-4.81Z"/>
  <path class="cls-1" d="M37.56,46.06v1.89h9.45c2.61,0,4.72-2.12,4.72-4.72v-10.39h-1.89v8.5c0,2.61-2.12,4.72-4.72,4.72h-7.56Z"/>
  <path class="cls-1" d="M11.1,44.17h2.83v1.89h-2.83v9.45H2.6v1.89h10.76l1.89-3.78h16.29l1.89,3.78h2.25v-11.34H15.83v-1.89h19.84v-1.89H11.1v1.89Z"/>
  <path class="cls-1" d="M46.06,29.17c0-.58-.48-1.06-1.06-1.06-.28,0-.55.11-.75.31l-6.3,6.3h-8.9c-.52,0-.94.42-.94.94s.42.94.94.94h10l6.7-6.7c.2-.2.31-.47.31-.75Z"/>
  <path class="cls-1" d="M40.39,20.55v1.89c0,2.08,1.7,3.78,3.78,3.78s3.78-1.7,3.78-3.78v-1.89c0-2.08-1.7-3.78-3.78-3.78s-3.78,1.7-3.78,3.78Z"/>
  <path class="cls-1" d="M37.56,44.17h7.56c1.56,0,2.83-1.27,2.83-2.83v-11.7c0-.07-.02-.13-.03-.2-.06.68-.35,1.33-.84,1.81l-6.7,6.7v4.33h-2.83v1.89Z"/>
  <path class="cls-1" d="M16.41,55.51l-.94,1.89h15.84l-.94-1.89h-13.95Z"/>
  <path class="cls-1" d="M9.21,38.5h29.29v1.89H9.21v-1.89Z"/>
  <path class="cls-1" d="M26.22,35.67c0-1.56,1.27-2.83,2.83-2.83h.9c-.1-.73-.61-1.36-1.33-1.57l-3.89-1.11c-.55.71-1.61,1.74-3.24,1.74s-2.69-1.02-3.24-1.74l-3.89,1.11c-.81.23-1.37.98-1.37,1.82v3.53h13.4c-.11-.3-.17-.61-.17-.94Z"/>
  <path class="cls-1" d="M21.5,26.22c2.08,0,3.78-1.7,3.78-3.78v-1.89c0-2.08-1.7-3.78-3.78-3.78s-3.78,1.7-3.78,3.78v1.89c0,2.08,1.7,3.78,3.78,3.78Z"/>
  <path class="cls-1" d="M19.61,27.78v1.02c.23.36.89,1.21,1.89,1.21s1.66-.84,1.89-1.21v-1.02c-.59.21-1.23.33-1.89.33s-1.3-.12-1.89-.33Z"/>
  <path class="cls-1" d="M46.72,55.51l-.57-5.67h-1.88l.76,7.56h12.37v-1.89h-10.68Z"/>
</svg>