<?xml version="1.0" encoding="UTF-8"?>
<svg id="Layer_1" data-name="Layer 1" xmlns="http://www.w3.org/2000/svg" xmlns:xlink="http://www.w3.org/1999/xlink" viewBox="0 0 50 50">
  <defs>
    <style>
      .cls-1 {
        fill: url(#New_Gradient_Swatch-4);
      }

      .cls-2 {
        fill: url(#New_Gradient_Swatch-5);
      }

      .cls-3 {
        fill: #fff;
      }

      .cls-4 {
        fill: url(#New_Gradient_Swatch-2);
      }

      .cls-5 {
        fill: url(#New_Gradient_Swatch);
      }

      .cls-6 {
        fill: url(#New_Gradient_Swatch-3);
      }
    </style>
    <linearGradient id="New_Gradient_Swatch" data-name="New Gradient Swatch" x1="6.93" y1="31.32" x2="30.93" y2="31.32" gradientUnits="userSpaceOnUse">
      <stop offset=".02" stop-color="#e65233"/>
      <stop offset="1" stop-color="#f9a82d"/>
    </linearGradient>
    <linearGradient id="New_Gradient_Swatch-2" data-name="New Gradient Swatch" x1="25.25" y1="13.63" x2="39.15" y2="13.63" xlink:href="#New_Gradient_Swatch"/>
    <linearGradient id="New_Gradient_Swatch-3" data-name="New Gradient Swatch" x1="32.2" y1="28.16" x2="43.57" y2="28.16" xlink:href="#New_Gradient_Swatch"/>
    <linearGradient id="New_Gradient_Swatch-4" data-name="New Gradient Swatch" x1="39.16" y1="13.77" x2="43.69" y2="13.77" xlink:href="#New_Gradient_Swatch"/>
    <linearGradient id="New_Gradient_Swatch-5" data-name="New Gradient Swatch" x1="6.31" y1="17.4" x2="22.35" y2="17.4" xlink:href="#New_Gradient_Swatch"/>
  </defs>
  <ellipse class="cls-3" cx="18.67" cy="31.35" rx="7.4" ry="7.65"/>
  <ellipse class="cls-3" cx="32.2" cy="13.55" rx="2.85" ry="2.95"/>
  <ellipse class="cls-3" cx="37.88" cy="28.37" rx="2.85" ry="2.95"/>
  <g>
    <path class="cls-5" d="M28.27,32.85c-.1.63-.27,1.24-.49,1.82l1.98,1.79c-.28.58-.59,1.14-.96,1.67l-2.54-.82c-.4.49-.85.94-1.34,1.34l.82,2.54c-.53.36-1.09.68-1.67.96l-1.79-1.98c-.58.22-1.19.38-1.82.49l-.56,2.61c-.32.03-.64.05-.97.05s-.65-.02-.97-.05l-.56-2.61c-.63-.1-1.24-.27-1.82-.49l-1.79,1.98c-.58-.28-1.14-.59-1.67-.96l.82-2.54c-.49-.4-.94-.85-1.34-1.34l-2.54.82c-.36-.53-.68-1.09-.96-1.67l1.98-1.79c-.22-.58-.38-1.19-.49-1.82l-2.61-.56c-.03-.32-.05-.64-.05-.97s.02-.65.05-.97l2.61-.56c.1-.63.27-1.24.49-1.82l-1.98-1.79c.28-.58.59-1.14.96-1.67l2.54.82c.4-.49.85-.94,1.34-1.34l-.82-2.54c.53-.36,1.09-.68,1.67-.96l1.79,1.98c.58-.22,1.19-.38,1.82-.49l.56-2.61c.32-.03.64-.05.97-.05s.65.02.97.05l.56,2.61c.63.1,1.24.27,1.82.49l1.79-1.98c.58.28,1.14.59,1.67.96l-.82,2.54c.49.4.94.85,1.34,1.34l2.54-.82c.36.53.68,1.09.96,1.67l-1.98,1.79c.22.58.38,1.19.49,1.82l2.61.56c.03.32.05.64.05.97s-.02.65-.05.97l-2.61.56ZM18.93,25c-3.49,0-6.32,2.83-6.32,6.32s2.83,6.32,6.32,6.32,6.32-2.83,6.32-6.32-2.83-6.32-6.32-6.32Z"/>
    <path class="cls-4" d="M37.04,15.08c-.1.33-.23.64-.39.94l1,1.91c-.34.43-.72.81-1.15,1.15l-1.91-1c-.3.16-.61.29-.94.39l-.65,2.06c-.27.03-.54.05-.81.05s-.54-.02-.81-.05l-.65-2.06c-.33-.1-.64-.23-.94-.39l-1.91,1c-.43-.34-.81-.72-1.15-1.15l1-1.91c-.16-.3-.29-.61-.39-.94l-2.06-.65c-.03-.27-.05-.54-.05-.81s.02-.54.05-.81l2.06-.65c.1-.33.23-.64.39-.94l-1-1.91c.34-.43.72-.81,1.15-1.15l1.91,1c.3-.16.61-.29.94-.39l.65-2.06c.27-.03.54-.05.81-.05s.54.02.81.05l.65,2.06c.33.1.64.23.94.39l1.91-1c.43.34.81.72,1.15,1.15l-1,1.91c.16.3.29.61.39.94l2.06.65c.03.27.05.54.05.81s-.02.54-.05.81l-2.06.65ZM32.2,11.1c-1.4,0-2.53,1.13-2.53,2.53s1.13,2.53,2.53,2.53,2.53-1.13,2.53-2.53-1.13-2.53-2.53-2.53Z"/>
    <path class="cls-6" d="M42.14,29.34c-.1.35-.23.68-.41.99l.63,1.32c-.29.36-.61.69-.98.98l-1.32-.63c-.31.18-.64.31-.99.41l-.49,1.38c-.23.03-.46.05-.69.05s-.46-.02-.69-.05l-.49-1.38c-.35-.1-.68-.23-.99-.41l-1.32.63c-.36-.29-.69-.61-.98-.98l.63-1.32c-.18-.31-.31-.64-.41-.99l-1.38-.49c-.03-.23-.05-.46-.05-.69s.02-.46.05-.69l1.38-.49c.1-.35.23-.68.41-.99l-.63-1.32c.29-.36.61-.69.98-.98l1.32.63c.31-.18.64-.31.99-.41l.49-1.38c.23-.03.46-.05.69-.05s.46.02.69.05l.49,1.38c.35.1.68.23.99.41l1.32-.63c.36.29.69.61.98.98l-.63,1.32c.18.31.31.64.41.99l1.38.49c.03.23.05.46.05.69s-.02.46-.05.69l-1.38.49ZM37.88,26.26c-1.05,0-1.9.85-1.9,1.9s.85,1.9,1.9,1.9,1.9-.85,1.9-1.9-.85-1.9-1.9-1.9Z"/>
    <path class="cls-1" d="M43.69,7.95l-3.78-.76-.76,3.78,1.24.25.34-1.7c.61,1.27.94,2.68.94,4.1,0,2.18-.72,4.23-2.08,5.92l.99.79c1.52-1.9,2.36-4.28,2.36-6.71,0-1.65-.38-3.29-1.11-4.76l1.62.32.25-1.24Z"/>
    <path class="cls-2" d="M20.01,13.18l-.89.89.86.86c-.35-.02-.7-.04-1.04-.04-4.89,0-9.49,2.15-12.62,5.91l.97.81c2.89-3.47,7.14-5.46,11.65-5.46.32,0,.64.02.96.04l-.78.78.89.89,2.34-2.34-2.34-2.34Z"/>
  </g>
</svg>