<?xml version="1.0" encoding="UTF-8"?>
<svg id="Layer_1" data-name="Layer 1" xmlns="http://www.w3.org/2000/svg" xmlns:xlink="http://www.w3.org/1999/xlink" viewBox="0 0 50 50">
  <defs>
    <style>
      .cls-1 {
        fill: url(#New_Gradient_Swatch-4);
      }

      .cls-2 {
        fill: url(#New_Gradient_Swatch-5);
      }

      .cls-3 {
        fill: url(#New_Gradient_Swatch-2);
      }

      .cls-4 {
        fill: url(#New_Gradient_Swatch-12);
      }

      .cls-5 {
        fill: url(#New_Gradient_Swatch-6);
      }

      .cls-6 {
        fill: url(#New_Gradient_Swatch-11);
      }

      .cls-7 {
        fill: url(#New_Gradient_Swatch-7);
      }

      .cls-8 {
        fill: url(#New_Gradient_Swatch);
      }

      .cls-9 {
        fill: url(#New_Gradient_Swatch-8);
      }

      .cls-10 {
        fill: url(#New_Gradient_Swatch-3);
      }

      .cls-11 {
        fill: url(#New_Gradient_Swatch-10);
      }

      .cls-12 {
        fill: url(#New_Gradient_Swatch-9);
      }
    </style>
    <linearGradient id="New_Gradient_Swatch" data-name="New Gradient Swatch" x1="33.73" y1="26.44" x2="35.15" y2="26.44" gradientUnits="userSpaceOnUse">
      <stop offset=".02" stop-color="#e65233"/>
      <stop offset="1" stop-color="#f9a82d"/>
    </linearGradient>
    <linearGradient id="New_Gradient_Swatch-2" data-name="New Gradient Swatch" x1="14.96" y1="24.21" x2="33.48" y2="24.21" xlink:href="#New_Gradient_Swatch"/>
    <linearGradient id="New_Gradient_Swatch-3" data-name="New Gradient Swatch" x1="23.08" y1="41.01" x2="27.72" y2="41.01" xlink:href="#New_Gradient_Swatch"/>
    <linearGradient id="New_Gradient_Swatch-4" data-name="New Gradient Swatch" x1="9.02" y1="29.03" x2="20.63" y2="29.03" xlink:href="#New_Gradient_Swatch"/>
    <linearGradient id="New_Gradient_Swatch-5" data-name="New Gradient Swatch" x1="23.08" y1="38.4" x2="27.72" y2="38.4" xlink:href="#New_Gradient_Swatch"/>
    <linearGradient id="New_Gradient_Swatch-6" data-name="New Gradient Swatch" x1="24.01" y1="18.27" x2="41.54" y2="18.27" xlink:href="#New_Gradient_Swatch"/>
    <linearGradient id="New_Gradient_Swatch-7" data-name="New Gradient Swatch" x1="36.41" y1="30.29" x2="40.46" y2="30.29" xlink:href="#New_Gradient_Swatch"/>
    <linearGradient id="New_Gradient_Swatch-8" data-name="New Gradient Swatch" x1="35.46" y1="34.63" x2="39.68" y2="34.63" gradientTransform="translate(40.13 -16.4) rotate(50.2)" xlink:href="#New_Gradient_Swatch"/>
    <linearGradient id="New_Gradient_Swatch-9" data-name="New Gradient Swatch" x1="32.93" y1="36.37" x2="34.09" y2="36.37" xlink:href="#New_Gradient_Swatch"/>
    <linearGradient id="New_Gradient_Swatch-10" data-name="New Gradient Swatch" x1="8.46" y1="18.12" x2="13.37" y2="18.12" gradientTransform="translate(4.72 -2.11) rotate(14.03)" xlink:href="#New_Gradient_Swatch"/>
    <linearGradient id="New_Gradient_Swatch-11" data-name="New Gradient Swatch" x1="9.42" y1="13.19" x2="14.15" y2="13.19" gradientTransform="translate(15.67 -4.06) rotate(54.46)" xlink:href="#New_Gradient_Swatch"/>
    <linearGradient id="New_Gradient_Swatch-12" data-name="New Gradient Swatch" x1="14.38" y1="10.59" x2="16.69" y2="10.59" gradientTransform="translate(3.11 -3.52) rotate(14.34)" xlink:href="#New_Gradient_Swatch"/>
  </defs>
  <path class="cls-8" d="M35.12,25.26c-.19-.26-.56-.31-.81-.12-.12.09-.2.23-.23.38l-.32,2.25s-.02.06-.03.08c.59-.78,1.07-1.65,1.42-2.57l-.03-.04Z"/>
  <path class="cls-3" d="M33.19,28.27s-.05,0-.08,0l-3.44-.49c-.32-.05-.54-.34-.49-.66h0s.32-2.25.32-2.25c.04-.32-.18-.61-.49-.65-.15-.02-.31.02-.43.11l-1.82,1.37c-.26.19-.62.14-.81-.12h0l-2.09-2.78c-.19-.26-.14-.62.12-.81l1.82-1.37c.26-.19.31-.56.12-.81-.09-.12-.23-.2-.38-.23l-2.25-.32c-.32-.05-.54-.34-.49-.66,0,0,0,0,0,0l.49-3.44c.05-.32.34-.54.66-.49,0,0,0,0,0,0l2.25.32c.23.03.46-.08.58-.28.12-.2.11-.46-.03-.64l-1.36-1.82c-.19-.26-.14-.62.12-.81l.33-.25c-.53-.03-1.07-.01-1.6.04-5.72.65-9.83,5.82-9.18,11.55.36,3.12,2.1,5.91,4.74,7.6.96.6,1.56,1.65,1.57,2.78v2.34c0,.96.78,1.74,1.74,1.74h4.64c.96,0,1.74-.78,1.74-1.74v-2.29c.01-1.16.62-2.24,1.6-2.85.91-.59,1.73-1.32,2.42-2.17-.09.05-.19.08-.29.09ZM25.98,35.5h-1.16v-1.74h1.16v1.74ZM24.82,32.6c0-1.53-.95-2.91-2.38-3.45-4.17-1.63-6.23-6.34-4.6-10.51.63-1.62,1.76-2.99,3.23-3.91l.61.98c-3.25,2.05-4.23,6.34-2.18,9.59.79,1.26,1.97,2.23,3.35,2.77,1.88.72,3.12,2.52,3.12,4.53h-1.16Z"/>
  <path class="cls-10" d="M23.08,40.14v.58c0,.64.52,1.16,1.16,1.16h2.32c.64,0,1.16-.52,1.16-1.16v-.58h-4.64Z"/>
  <path class="cls-1" d="M19.46,30.87c-.34-.22-.67-.46-.99-.72-.87,1.7-2.96,2.37-4.67,1.5-1.16-.6-1.89-1.79-1.88-3.09,0-1.75,1.31-3.23,3.05-3.45-.21-.64-.37-1.3-.46-1.96l-.1.48c-.13.63-.75,1.03-1.37.9-.15-.03-.29-.09-.42-.18l-1.21-.83-1.06,1.05.83,1.21c.36.53.23,1.25-.3,1.61-.13.09-.27.15-.42.18l-1.44.3v1.38l1.44.3c.63.13,1.03.75.9,1.37-.03.15-.09.29-.18.42l-.83,1.2,1.06,1.05,1.2-.83c.53-.36,1.25-.23,1.61.3.09.13.15.27.18.42l.3,1.45h1.38l.3-1.44c.13-.63.75-1.03,1.37-.9.15.03.29.09.42.18l1.2.83,1.24-1.24c-.21-.61-.62-1.13-1.17-1.48Z"/>
  <rect class="cls-2" x="23.08" y="37.82" width="4.64" height="1.16"/>
  <path class="cls-5" d="M39.87,18.11c-.95-.14-1.61-1.02-1.47-1.97.07-.46.31-.87.68-1.14l1.36-1.02-1.39-1.85-1.36,1.02c-.77.58-1.86.42-2.43-.35-.28-.37-.4-.83-.33-1.29l.24-1.68-2.29-.33-.24,1.68c-.14.95-1.02,1.61-1.97,1.47-.46-.07-.87-.31-1.14-.68l-1.02-1.36-1.85,1.39,1.02,1.36c.58.77.42,1.86-.35,2.43-.37.28-.83.4-1.29.33l-1.68-.24-.33,2.29,1.68.24c.95.14,1.61,1.02,1.47,1.97-.07.46-.31.87-.68,1.14l-1.36,1.02,1.39,1.85,1.36-1.02c.77-.58,1.86-.42,2.43.35.28.37.4.83.33,1.29l-.24,1.68,2.3.33.24-1.68c.14-.95,1.02-1.61,1.97-1.47.46.07.87.31,1.14.68l1.02,1.36,1.85-1.39-1.02-1.36c-.58-.77-.42-1.86.35-2.43.37-.28.83-.39,1.29-.33l1.68.24.33-2.29-1.68-.24ZM32.78,21.75c-1.92,0-3.48-1.56-3.48-3.48s1.56-3.48,3.48-3.48,3.48,1.56,3.48,3.48c0,1.92-1.56,3.47-3.48,3.48Z"/>
  <rect class="cls-7" x="36.41" y="29.71" width="4.06" height="1.16"/>
  <rect class="cls-9" x="36.99" y="32.37" width="1.16" height="4.53" transform="translate(-13.09 41.33) rotate(-50.2)"/>
  <rect class="cls-12" x="32.93" y="34.34" width="1.16" height="4.06"/>
  <rect class="cls-11" x="8.52" y="17.54" width="4.78" height="1.16" transform="translate(-4.07 3.19) rotate(-14.03)"/>
  <rect class="cls-6" x="11.2" y="10.7" width="1.16" height="4.98" transform="translate(-5.8 15.11) rotate(-54.46)"/>
  <rect class="cls-4" x="14.96" y="8.19" width="1.16" height="4.78" transform="translate(-2.14 4.18) rotate(-14.34)"/>
</svg>