<?xml version="1.0" encoding="UTF-8"?>
<svg id="Layer_1" data-name="Layer 1" xmlns="http://www.w3.org/2000/svg" xmlns:xlink="http://www.w3.org/1999/xlink" viewBox="0 0 236 100">
  <defs>
    <style>
      .cls-1 {
        fill: url(#linear-gradient-2);
      }

      .cls-2 {
        fill: #fff;
      }

      .cls-3 {
        fill: none;
      }

      .cls-4 {
        fill: url(#linear-gradient-4);
      }

      .cls-5 {
        fill: url(#linear-gradient-3);
      }

      .cls-6 {
        fill: url(#linear-gradient-5);
      }

      .cls-7 {
        fill: url(#linear-gradient-8);
      }

      .cls-8 {
        fill: #e53a2d;
      }

      .cls-9 {
        fill: #3a94d0;
      }

      .cls-10 {
        fill: #ea622e;
      }

      .cls-11 {
        fill: url(#linear-gradient-7);
      }

      .cls-12 {
        fill: url(#linear-gradient-6);
      }

      .cls-13 {
        fill: #065091;
      }

      .cls-14 {
        fill: url(#linear-gradient);
      }

      .cls-15 {
        clip-path: url(#clippath);
      }
    </style>
    <linearGradient id="linear-gradient" x1="8.23" y1="25.9" x2="20.61" y2="25.9" gradientUnits="userSpaceOnUse">
      <stop offset="0" stop-color="#223f99"/>
      <stop offset=".36" stop-color="#146bbb"/>
      <stop offset=".79" stop-color="#059adf"/>
      <stop offset="1" stop-color="#00adee"/>
    </linearGradient>
    <linearGradient id="linear-gradient-2" x1="20.54" y1="28.73" x2="28.96" y2="28.73" xlink:href="#linear-gradient"/>
    <linearGradient id="linear-gradient-3" x1="30.43" y1="31.28" x2="40.22" y2="31.28" xlink:href="#linear-gradient"/>
    <linearGradient id="linear-gradient-4" x1="198.94" y1="75.33" x2="177.67" y2="38.49" xlink:href="#linear-gradient"/>
    <linearGradient id="linear-gradient-5" x1="180.71" y1="39.59" x2="208.11" y2="39.59" gradientUnits="userSpaceOnUse">
      <stop offset="0" stop-color="#2e3191"/>
      <stop offset="1" stop-color="#008dce"/>
    </linearGradient>
    <linearGradient id="linear-gradient-6" x1="160.41" y1="34.46" x2="173.61" y2="57.33" gradientUnits="userSpaceOnUse">
      <stop offset="0" stop-color="#fff100"/>
      <stop offset=".15" stop-color="#fde703"/>
      <stop offset=".4" stop-color="#fbce0c"/>
      <stop offset=".72" stop-color="#f6a41b"/>
      <stop offset="1" stop-color="#f27c2b"/>
    </linearGradient>
    <linearGradient id="linear-gradient-7" x1="172.83" y1="29.46" x2="172.83" y2="55.2" gradientUnits="userSpaceOnUse">
      <stop offset="0" stop-color="#faaf4c"/>
      <stop offset=".56" stop-color="#ef5b39"/>
      <stop offset="1" stop-color="#e71d2c"/>
    </linearGradient>
    <linearGradient id="linear-gradient-8" x1="173.47" y1="59.52" x2="173.47" y2="89.48" xlink:href="#linear-gradient-6"/>
    <clipPath id="clippath">
      <path class="cls-3" d="M8,61.85s56.94-20.72,161.32-6.91v27.53l-39.34,11.26-109.63-7.16-12.09-.36-.25-24.35Z"/>
    </clipPath>
  </defs>
  <g>
    <path class="cls-14" d="M8.58,19.06h11.67l.36,4.65h-.52c-.32-1.56-.74-2.64-1.27-3.24-.53-.6-1.22-.9-2.08-.9h-1.11v12.65h2.45v.52h-7.32v-.52h2.45v-12.65h-1.11c-.86,0-1.55.3-2.08.9-.53.6-.95,1.68-1.27,3.24h-.52l.36-4.65Z"/>
    <path class="cls-1" d="M20.54,28.71c0-1.18.41-2.18,1.21-3.01s1.81-1.24,3.01-1.24,2.16.4,2.98,1.19c.81.79,1.22,1.78,1.22,2.98s-.42,2.25-1.27,3.1c-.84.85-1.84,1.27-2.99,1.27s-2.11-.41-2.93-1.24c-.82-.83-1.24-1.84-1.24-3.05ZM26.66,28.71c0-1.25-.04-2.08-.13-2.48-.08-.4-.28-.72-.57-.95-.3-.23-.7-.35-1.22-.35-.49,0-.89.12-1.21.36-.32.24-.51.56-.59.96-.07.4-.11,1.23-.11,2.48s.05,2.09.14,2.5c.09.41.29.73.6.96.31.23.7.35,1.17.35s.87-.12,1.19-.35c.32-.23.52-.56.6-.98.09-.42.13-1.25.13-2.5Z"/>
    <path class="cls-5" d="M33.92,31.41v6.1h1.65v.58h-5.01v-.58h1.38v-12.27h-1.51v-.52h1.15c.84,0,1.62-.04,2.34-.13v1.61h.04c.56-1.16,1.44-1.74,2.61-1.74.97,0,1.81.4,2.55,1.2.73.8,1.1,1.75,1.1,2.85,0,1.18-.4,2.2-1.2,3.06-.8.86-1.69,1.29-2.67,1.29s-1.82-.49-2.39-1.46h-.04ZM37.94,28.75c0-1.27-.04-2.12-.11-2.56-.07-.43-.23-.75-.49-.96-.26-.21-.54-.31-.85-.31-.67,0-1.2.22-1.6.66-.4.44-.66.87-.79,1.3-.12.42-.18,1.04-.18,1.87,0,.86.06,1.52.17,1.98.12.46.39.85.83,1.18s.93.5,1.46.5.96-.24,1.19-.71c.24-.47.36-1.45.36-2.94Z"/>
  </g>
  <g>
    <path class="cls-4" d="M182.12,85.04s7.02-41.05,25-57.79c0,0-9,.71-13.82,2.26-4.83,1.55-19.47,35.34-22.13,59.97l10.96-4.44Z"/>
    <path class="cls-6" d="M191.59,51.91c9.64-20.95,11.64-19.12,16.52-25.42,0,0-9.99,1.47-14.81,3.02-2.54.82-7.79,10.55-12.59,23.17"/>
    <path class="cls-12" d="M154.47,37.89l16.03.89s1.94,1.39,8.15,15.64c0,0-14.2-14.98-24.19-16.53Z"/>
    <path class="cls-11" d="M178.77,55.2s2.92-9.11,6.21-14.2c0,0-1.44-4.44-6.88-10.32l-17.42-1.22s12.2,8.65,18.08,25.74Z"/>
    <path class="cls-7" d="M170.56,88.06l-1.75,1.41s-.24-8.74,9.33-29.96c0,0-7.58,19.39-7.58,28.54Z"/>
  </g>
  <g>
    <path class="cls-9" d="M33.1,42.51l.52,11.66h-2.59c-1.36-3.84-2.91-6.53-4.65-8.05-1.74-1.52-3.84-2.28-6.3-2.28-2.09,0-3.82.66-5.18,1.98-1.36,1.32-2.04,2.84-2.04,4.57,0,2.14.71,3.61,2.14,4.41,1.43.8,3.88,1.57,7.35,2.31,5.33,1.15,8.91,2.88,10.74,5.18,1.83,2.3,2.74,5.22,2.74,8.76,0,4.17-1.2,7.76-3.61,10.78-2.41,3.02-5.78,4.53-10.12,4.53-3.09,0-5.87-.97-8.36-2.92-1.21.95-2.3,1.88-3.27,2.79h-2.17v-12.67h2.53c1.9,7.13,5.59,10.69,11.08,10.69,2.89,0,5.12-.85,6.67-2.56,1.55-1.71,2.33-3.62,2.33-5.73,0-1.19-.34-2.26-1.02-3.21s-1.47-1.71-2.38-2.27c-.91-.56-3.41-1.27-7.51-2.12-4.1-.85-7.11-2.43-9.02-4.74-1.91-2.31-2.87-5.19-2.87-8.64,0-3.71,1.17-6.85,3.51-9.42,2.34-2.57,5.26-3.85,8.75-3.85,2.65,0,5.29.93,7.93,2.79.84-.5,1.75-1.15,2.72-1.98h2.11Z"/>
    <path class="cls-9" d="M39.93,42.31h35.96l.26,14.19h-1.98c-1.6-8.05-4.91-12.08-9.95-12.08h-1v39.23h6.58v2.11h-23.75v-2.11h6.54v-39.23h-.97c-5.03,0-8.36,4.03-9.98,12.08h-1.98l.26-14.19Z"/>
    <path class="cls-9" d="M95.16,44.42v28.05c0,4.49.82,7.5,2.46,9.02,1.64,1.52,3.87,2.28,6.67,2.28,2.12,0,4.03-.4,5.73-1.2,1.71-.8,3.05-2,4.02-3.61.97-1.61,1.46-4.35,1.46-8.21v-22.94c0-1.49-.1-2.43-.29-2.82-.19-.39-1.11-.58-2.75-.58h-2.98v-2.11h13.86v2.11h-2.04c-1.62,0-2.61.19-2.98.57-.37.38-.55,1.41-.55,3.09v22.48c0,2.85-.28,5.35-.83,7.5-.55,2.15-2.01,4.07-4.37,5.75-2.37,1.68-6.01,2.53-10.93,2.53-2.59,0-5.11-.3-7.56-.89s-4.45-1.65-6.01-3.16c-1.55-1.51-2.53-3.06-2.93-4.65-.4-1.59-.6-3.44-.6-5.56v-27.66h-5.7v-2.11h22.29v2.11h-5.96Z"/>
    <path class="cls-9" d="M130.67,83.65v-39.23h-5.44v-2.11h22.03c6.37,0,11.41,2.02,15.13,6.06,3.71,4.04,5.57,9.14,5.57,15.29,0,3.2-.57,6.2-1.7,9.01-1.13,2.81-2.88,5.36-5.23,7.66-2.35,2.3-4.77,3.78-7.24,4.44-2.47.66-5.51.99-9.12.99h-19.44v-2.11h5.44ZM141.29,44.42v39.23h3.43c5.25,0,8.42-1.54,9.51-4.62,1.09-3.08,1.64-8.35,1.64-15.81,0-5.84-.34-10.03-1-12.58-.67-2.55-1.68-4.23-3.04-5.02-1.36-.8-3.09-1.2-5.18-1.2h-5.35Z"/>
  </g>
  <g class="cls-15">
    <g>
      <path class="cls-13" d="M33.1,42.51l.52,11.66h-2.59c-1.36-3.84-2.91-6.53-4.65-8.05-1.74-1.52-3.84-2.28-6.3-2.28-2.09,0-3.82.66-5.18,1.98-1.36,1.32-2.04,2.84-2.04,4.57,0,2.14.71,3.61,2.14,4.41,1.43.8,3.88,1.57,7.35,2.31,5.33,1.15,8.91,2.88,10.74,5.18,1.83,2.3,2.74,5.22,2.74,8.76,0,4.17-1.2,7.76-3.61,10.78-2.41,3.02-5.78,4.53-10.12,4.53-3.09,0-5.87-.97-8.36-2.92-1.21.95-2.3,1.88-3.27,2.79h-2.17v-12.67h2.53c1.9,7.13,5.59,10.69,11.08,10.69,2.89,0,5.12-.85,6.67-2.56,1.55-1.71,2.33-3.62,2.33-5.73,0-1.19-.34-2.26-1.02-3.21s-1.47-1.71-2.38-2.27c-.91-.56-3.41-1.27-7.51-2.12-4.1-.85-7.11-2.43-9.02-4.74-1.91-2.31-2.87-5.19-2.87-8.64,0-3.71,1.17-6.85,3.51-9.42,2.34-2.57,5.26-3.85,8.75-3.85,2.65,0,5.29.93,7.93,2.79.84-.5,1.75-1.15,2.72-1.98h2.11Z"/>
      <path class="cls-13" d="M39.93,42.31h35.96l.26,14.19h-1.98c-1.6-8.05-4.91-12.08-9.95-12.08h-1v39.23h6.58v2.11h-23.75v-2.11h6.54v-39.23h-.97c-5.03,0-8.36,4.03-9.98,12.08h-1.98l.26-14.19Z"/>
      <path class="cls-13" d="M95.16,44.42v28.05c0,4.49.82,7.5,2.46,9.02,1.64,1.52,3.87,2.28,6.67,2.28,2.12,0,4.03-.4,5.73-1.2,1.71-.8,3.05-2,4.02-3.61.97-1.61,1.46-4.35,1.46-8.21v-22.94c0-1.49-.1-2.43-.29-2.82-.19-.39-1.11-.58-2.75-.58h-2.98v-2.11h13.86v2.11h-2.04c-1.62,0-2.61.19-2.98.57-.37.38-.55,1.41-.55,3.09v22.48c0,2.85-.28,5.35-.83,7.5-.55,2.15-2.01,4.07-4.37,5.75-2.37,1.68-6.01,2.53-10.93,2.53-2.59,0-5.11-.3-7.56-.89s-4.45-1.65-6.01-3.16c-1.55-1.51-2.53-3.06-2.93-4.65-.4-1.59-.6-3.44-.6-5.56v-27.66h-5.7v-2.11h22.29v2.11h-5.96Z"/>
      <path class="cls-13" d="M130.67,83.65v-39.23h-5.44v-2.11h22.03c6.37,0,11.41,2.02,15.13,6.06,3.71,4.04,5.57,9.14,5.57,15.29,0,3.2-.57,6.2-1.7,9.01-1.13,2.81-2.88,5.36-5.23,7.66-2.35,2.3-4.77,3.78-7.24,4.44-2.47.66-5.51.99-9.12.99h-19.44v-2.11h5.44ZM141.29,44.42v39.23h3.43c5.25,0,8.42-1.54,9.51-4.62,1.09-3.08,1.64-8.35,1.64-15.81,0-5.84-.34-10.03-1-12.58-.67-2.55-1.68-4.23-3.04-5.02-1.36-.8-3.09-1.2-5.18-1.2h-5.35Z"/>
    </g>
  </g>
  <g>
    <path class="cls-8" d="M186.12,84.5c0-.42.15-.78.45-1.08s.66-.45,1.08-.45.8.15,1.11.45c.3.3.45.66.45,1.09s-.15.79-.45,1.1c-.3.31-.67.46-1.11.46s-.78-.15-1.08-.46-.45-.67-.45-1.1Z"/>
    <path class="cls-8" d="M200.61,82.41h.53c-.25,1.19-.73,2.09-1.45,2.72-.72.62-1.59.93-2.61.93-1.39,0-2.56-.51-3.52-1.54s-1.44-2.21-1.44-3.55.49-2.59,1.48-3.63c.98-1.04,2.2-1.56,3.66-1.56,1.04,0,1.89.26,2.54.79s.98,1.12.98,1.78c0,.33-.11.62-.34.88-.23.26-.52.39-.88.39s-.65-.11-.88-.33-.35-.51-.35-.87c0-.25.1-.5.3-.75.2-.25.3-.41.3-.5,0-.22-.15-.42-.45-.58-.3-.17-.7-.25-1.18-.25-.85,0-1.49.23-1.9.69-.41.46-.62,1.43-.62,2.91s.04,2.58.12,3.29c.08.71.28,1.27.62,1.67.34.41.89.61,1.66.61,1.62,0,2.76-1.03,3.42-3.1Z"/>
    <path class="cls-8" d="M202.92,80.9c0-1.42.49-2.62,1.46-3.62.98-1,2.18-1.49,3.63-1.49s2.6.48,3.58,1.43c.98.95,1.47,2.15,1.47,3.58s-.51,2.71-1.52,3.73c-1.02,1.02-2.22,1.53-3.6,1.53s-2.54-.5-3.53-1.49-1.49-2.22-1.49-3.67ZM210.3,80.9c0-1.51-.05-2.5-.15-2.99-.1-.48-.33-.87-.69-1.15-.36-.28-.85-.42-1.47-.42-.59,0-1.08.15-1.46.44s-.62.68-.71,1.16c-.09.48-.14,1.48-.14,2.99s.06,2.52.17,3.01c.11.49.35.88.73,1.16s.84.42,1.41.42,1.05-.14,1.43-.42c.38-.28.62-.68.73-1.18.1-.5.15-1.51.15-3.01Z"/>
    <path class="cls-8" d="M216.8,85.13v-8.41h-1.73v-.63h1.08c1.28,0,2.29-.05,3.05-.16v2.37h.05c.65-1.58,1.8-2.37,3.47-2.37,1.81,0,2.81.84,3,2.52h.05c.71-1.68,1.9-2.52,3.55-2.52.74,0,1.36.18,1.86.55.5.37.82.8.93,1.28.12.48.18,1.28.18,2.4v4.97h1.71v.63h-5.72v-.63h1.61v-6.07c0-.96-.06-1.62-.17-1.98-.11-.36-.41-.54-.89-.54-.66,0-1.35.37-2.05,1.12-.7.75-1.05,2.17-1.05,4.27v3.2h1.59v.63h-5.57v-.63h1.6v-4.76c0-1.85-.07-2.95-.2-3.31s-.46-.53-.97-.53c-.7,0-1.31.31-1.83.92-.52.61-.84,1.21-.97,1.79s-.19,1.51-.19,2.78v3.1h1.59v.63h-5.72v-.63h1.73Z"/>
  </g>
  <g>
    <rect class="cls-10" x="84.99" y="9.15" width="1.38" height="19.03" rx=".32" ry=".32"/>
    <path class="cls-10" d="M79.31,6.32l-30.28,4.91c-1.42.23-2.45,1.34-2.45,2.64v14.39c0,1.48,1.34,2.68,2.98,2.68h2.56s1.74,3.38,0,7.16c0,0,4.73-4.33,4.6-7.16h23.12c1.65,0,2.98-1.2,2.98-2.68V8.96c0-1.67-1.68-2.94-3.51-2.64Z"/>
    <g>
      <path class="cls-2" d="M52.83,16.2c.11.27.32.7.63,1.29s.61,1.18.91,1.79c.3.6.64,1.24,1.01,1.91.3.53.47.84.51.93,1.09-2.45,1.92-4.42,2.48-5.91,1.05,0,2.02-.03,2.9-.08.08,0,.14,0,.18,0,.18,0,.27.07.27.21,0,.12-.07.18-.21.18-.5,0-.82.17-.98.51s-.23,1.16-.23,2.47v3.21c0,.65.08,1.11.25,1.38.17.26.45.4.84.41.19,0,.28.07.28.19,0,.07-.04.12-.12.16h-1.84c-.56-.01-1.33,0-2.31.05-.08-.06-.12-.12-.12-.18,0-.1.11-.17.34-.2.23-.04.4-.1.5-.17.1-.07.18-.21.23-.41.05-.2.08-.5.08-.88l.03-2.93c0-1.5,0-2.36,0-2.59-1.19,2.76-1.92,4.52-2.2,5.28l-.66,1.77c-.07.19-.15.28-.22.28-.08,0-.17-.12-.28-.35-.32-.67-1.46-2.89-3.42-6.66-.02,1.08-.03,2.55-.03,4.38,0,.97.05,1.58.16,1.84.11.26.41.41.92.45.17.02.25.08.25.18,0,.11-.07.17-.2.17-.05,0-.1,0-.16,0-.52-.04-.9-.06-1.13-.06-.62,0-1.09.02-1.41.07-.06,0-.11.01-.14.01-.15,0-.23-.06-.23-.19,0-.06.02-.1.06-.13.04-.02.14-.05.3-.09.42-.08.69-.23.82-.45.13-.22.19-.59.19-1.09l.03-3.74c0-.85-.02-1.42-.07-1.69-.04-.28-.15-.49-.32-.64s-.45-.26-.83-.33c-.14-.03-.22-.1-.22-.22,0-.12.08-.18.24-.18.03,0,.08,0,.14,0,.45.04,1.36.06,2.76.06Z"/>
      <path class="cls-2" d="M67.19,20.13c.9.19,1.58.49,2.03.88.45.39.67.89.67,1.5,0,.5-.16.95-.49,1.36-.33.4-.73.67-1.21.81-.48.14-1.17.21-2.09.21-.22,0-.57-.01-1.05-.04-.39-.02-.7-.03-.92-.03-.3,0-.7.02-1.2.06-.21.02-.35.03-.43.03-.17,0-.26-.06-.26-.19,0-.1.07-.15.2-.17.28-.03.47-.08.6-.14.12-.06.22-.16.3-.3.08-.14.11-.37.11-.68l.05-3.06c0-.95-.01-1.71-.03-2.28s-.06-.94-.11-1.1-.13-.28-.23-.35c-.1-.07-.25-.1-.44-.12-.17,0-.29-.03-.34-.06s-.08-.08-.08-.15c0-.09.05-.15.15-.17s.39-.03.87-.03c.87,0,1.69-.03,2.45-.09.45-.03.81-.05,1.08-.05.8,0,1.44.18,1.93.53s.72.83.72,1.43c0,1.03-.76,1.77-2.29,2.21ZM65.39,20.03c1.5,0,2.25-.65,2.25-1.94,0-.57-.13-.99-.4-1.28s-.58-.42-.93-.42c-.25,0-.56.06-.92.18-.03.44-.05.9-.05,1.38,0,.4.02,1.1.05,2.07ZM65.39,20.54c-.03.92-.05,1.69-.05,2.3,0,.81.03,1.27.1,1.39.07.12.27.18.62.18.63,0,1.1-.17,1.41-.5.31-.34.47-.8.47-1.39s-.16-1.07-.48-1.45c-.32-.38-.81-.57-1.47-.57-.14,0-.34.01-.59.03Z"/>
      <path class="cls-2" d="M74.76,15.93h.45c.58,1.25,1.39,3.21,2.44,5.89.48,1.23.82,1.98,1,2.24.18.26.47.42.87.48.13.02.2.07.2.17,0,.14-.09.2-.26.2-.09,0-.33-.02-.71-.05-.45-.04-.84-.06-1.15-.06s-.69.02-1.18.05c-.36.03-.6.04-.71.04-.2,0-.3-.06-.3-.19,0-.1.07-.15.21-.16.54-.05.81-.26.81-.63,0-.18-.08-.5-.24-.97-.16-.47-.32-.89-.5-1.28-.28,0-.51,0-.66,0-.88,0-1.56,0-2.05,0-.38,1.03-.56,1.71-.56,2.05,0,.24.09.42.28.56.19.13.39.21.61.23.17.02.25.09.25.2s-.09.18-.27.18c-.07,0-.25-.01-.55-.03-.38-.03-.66-.05-.84-.05-.34,0-.67.02-.98.07-.08.01-.14.02-.2.02-.16,0-.24-.07-.24-.2,0-.1.05-.16.16-.19.26-.07.47-.17.62-.27.15-.11.31-.32.48-.63s.38-.8.62-1.48c.54-1.53,1.35-3.59,2.42-6.19ZM74.29,18.22l-1.14,2.93,2.32-.03c-.12-.34-.31-.81-.56-1.41-.28-.65-.48-1.14-.62-1.49Z"/>
    </g>
  </g>
</svg>