<?xml version="1.0" encoding="UTF-8"?>
<svg id="Layer_1" data-name="Layer 1" xmlns="http://www.w3.org/2000/svg" viewBox="0 0 250 150">
  <path d="M131.97,41.77c-.33.19-.65.38-.97.58.04-.27.09-.54.15-.82.28.08.55.16.82.24ZM147.11,60.97c-.09-.02-.19-.04-.28-.06-.01.1-.02.2-.04.3.11-.08.21-.16.32-.23ZM125,81.89l3.6-1.38c.35-2.28.64-4.68.94-7.22,1.27-10.64,2.69-22.55,9.65-31.7-13.24,4.04-20.98,16.43-23.05,36.89l8.85,3.4ZM135.42,98.56l42.2-18.69-6.34-12.85-44.32,17.01,8.45,14.53h0ZM167.89,65.43l-4.14-1.33c-.58,1.39-1.29,2.63-2.12,3.73l6.26-2.4ZM142.74,37.99c.58-.1,1.16.19,1.43.71.27.52.17,1.16-.25,1.57-.87.87-1.66,1.78-2.4,2.73.82.55,1.72,1.06,2.7,1.51.59.27.9.92.75,1.55-.23.92-.45,1.87-.66,2.82-.13.57-.61,1-1.19,1.05-.04,0-.09,0-.13,0-.53,0-1.02-.32-1.24-.81-.52-1.19-1.26-2.27-2.22-3.23-1.57,2.58-2.76,5.37-3.7,8.26,1.61,1.11,3.56,1.97,5.81,2.55.67.17,1.09.82,1,1.5-.17,1.21-.33,2.46-.48,3.71-.07.59-.52,1.07-1.1,1.18-.08.01-.16.02-.24.02-.5,0-.97-.28-1.2-.74-1.03-2.03-2.61-3.58-4.79-4.7-.76,3.02-1.3,6.11-1.74,9.17,1.97,1.13,4.36,1.82,7.12,2.07.73.06,1.27.7,1.23,1.43-.08,1.38-.15,2.78-.2,4.18-.02.61-.44,1.12-1.03,1.27-.11.03-.21.04-.32.04-.48,0-.94-.26-1.18-.69-1.34-2.4-3.32-4.12-6.04-5.25-.16,1.25-.31,2.49-.45,3.72-.24,2-.47,3.93-.73,5.78l11.56-4.44c-.02-.11-.03-.23-.03-.34l.18-3.57c.02-.41.23-.79.56-1.03s.76-.31,1.16-.2c4.36,1.25,8.25,1,11.27-.7,2.5-1.41,4.33-3.77,5.44-7.02-7.2-1.96-12.29-.76-15.52,3.66-.36.49-1,.68-1.57.47-.57-.22-.92-.79-.86-1.39.19-1.96.41-3.9.67-5.78.05-.39.27-.73.6-.95.33-.21.73-.27,1.11-.17,4.37,1.26,8.28,1.02,11.3-.69,2.5-1.41,4.33-3.77,5.45-7.03-6.79-1.85-11.69-.9-14.93,2.91-.4.47-1.06.61-1.61.34-.55-.27-.86-.87-.74-1.48.33-1.69.7-3.38,1.09-5.01.09-.36.31-.66.63-.85s.69-.23,1.05-.13c3.97,1.11,7.51.88,10.25-.68,2.25-1.28,3.9-3.4,4.92-6.31-5.45-1.47-9.53-.96-12.44,1.55-.46.4-1.13.44-1.63.1-.5-.34-.72-.97-.53-1.54.45-1.38.94-2.75,1.45-4.08.13-.34.39-.61.72-.76.33-.15.71-.15,1.05-.01,5.19,2.09,9.43.76,11.81-3.65-3.66-1.47-6.59-1.56-8.93-.28-.51.28-1.15.2-1.58-.2-.43-.4-.54-1.04-.29-1.57.36-.75.73-1.49,1.1-2.21.32-.62,1.05-.89,1.7-.63,4.98,1.97,9.05.68,11.36-3.54-2.93-1.18-5.36-1.44-7.4-.79-.64.2-1.33-.1-1.62-.7s-.09-1.33.47-1.71c.37-.25.81-.47,1.27-.71,2.18-1.11,4.85-2.47,3.92-7.55-6.28,1.77-6.98,4.93-7.71,8.26l-.07.29c-.14.63-.71,1.07-1.36,1.06-.65-.02-1.19-.49-1.3-1.13-.41-2.5-2.17-4.67-5.37-6.61-2,4.38-.59,8.41,3.98,11.21.6.37.82,1.14.49,1.77-.36.7-.73,1.43-1.08,2.15-.25.52-.8.82-1.37.76-.57-.06-1.04-.48-1.17-1.04-.7-3.07-3.12-5.45-7.39-7.24-1.67,5.38.62,9.78,6.42,12.2.68.28,1,1.05.74,1.73-.33.86-.66,1.74-.97,2.63-.19.54-.69.9-1.26.9h-.01c-.56,0-1.07-.35-1.26-.88-1.11-2.97-3.74-5.4-8.02-7.41-1.38,3.63-1.19,6.99.57,9.83,1.59-.52,3.25-.92,4.99-1.22h0ZM122.81,47.98h1.62c.58-.66,1.17-1.29,1.79-1.89-.02-.82-.05-1.63-.09-2.44h-3.41c.04,1.4.07,2.84.09,4.32h0ZM117.2,15.56h-2.24v4.32h3.13c-.27-1.58-.56-3.02-.89-4.32ZM118.5,22.59h-3.54v4.32h4.06c-.16-1.53-.33-2.97-.52-4.32ZM115.78,11.08c-.27-.16-.55-.29-.82-.4v2.18h1.48c-.21-.64-.43-1.23-.66-1.79h0ZM122.3,33.94h2.89c-.22-1.48-.47-2.93-.75-4.32h-2.46c.12,1.38.22,2.82.31,4.32h0ZM122.64,40.96h3.32c-.11-1.47-.25-2.91-.41-4.32h-3.09c.07,1.39.13,2.83.18,4.32ZM121.72,19.89c-.49-1.26-1-2.4-1.53-3.43.23,1.07.45,2.21.65,3.43h.88ZM121.75,26.91h2.11c-.36-1.51-.76-2.96-1.2-4.32h-1.42c.19,1.36.35,2.8.51,4.32ZM115.14,101.63c-.18,0-.37-.04-.55-.12l-35.19-15.58v32.73l44.25,20.65v-50.98l-7.34,12.62c-.25.43-.7.67-1.17.67h0ZM119.27,29.61h-4.31v4.32h4.63c-.09-1.5-.2-2.94-.32-4.32h0ZM134.86,101.63c-.47,0-.92-.24-1.17-.67l-7.34-12.62v50.98l44.25-20.65v-32.73l-35.19,15.58c-.18.08-.36.12-.55.12h0ZM105.21,29.61h-2.45c-.28,1.4-.53,2.84-.75,4.32h2.88c.09-1.5.19-2.94.31-4.32h0ZM93.31,61.83l-11.2,3.6,12.47,4.78c-.33-2.64-.71-5.48-1.27-8.38h0ZM104.75,36.64h-3.09c-.17,1.41-.31,2.86-.42,4.32h3.32c.05-1.49.11-2.93.18-4.32ZM104.49,43.66h-3.29c1.16.83,2.23,1.75,3.22,2.76.02-.94.04-1.86.06-2.76ZM112.26,77v-.15c-.28-1.52-.54-3.08-.81-4.7-2.22-13.57-4.52-27.57-23.78-30.98,7.11,9.05,8.66,21.02,9.76,30.15l14.82,5.69ZM123.03,84.03l-44.32-17.01-6.34,12.85,42.2,18.69,8.45-14.53ZM120.01,43.66h-5.06v4.32h5.15c-.02-1.48-.06-2.92-.1-4.32h0ZM112.26,10.68c-.27.1-.55.24-.82.4-.23.55-.44,1.14-.65,1.78h1.48v-2.18ZM114.96,64.73v3.84c.29-1.32.61-2.6.95-3.84h-.95ZM112.26,15.56h-2.24c-.32,1.31-.62,2.75-.89,4.32h3.13v-4.32ZM112.26,22.59h-3.55c-.19,1.36-.36,2.8-.52,4.32h4.07v-4.32h0ZM119.74,36.64h-4.78v4.32h4.97c-.05-1.49-.12-2.93-.19-4.32ZM118.39,57.71h-3.43v4.32h1.78c.5-1.51,1.05-2.95,1.65-4.32h0ZM120.17,54.11c0-1.16-.01-2.31-.02-3.43h-5.19v4.32h4.73c.16-.3.32-.6.48-.9h0ZM112.26,43.66h-5.06c-.04,1.4-.07,2.84-.09,4.32h5.15v-4.32ZM112.26,57.71h-1.22c.47,1.39.87,2.81,1.22,4.24v-4.24ZM112.26,29.61h-4.32c-.12,1.38-.22,2.82-.32,4.32h4.64v-4.32ZM107.02,16.48c-.51.98-1,2.06-1.46,3.24-.02.05-.04.11-.06.17h.87c.2-1.21.42-2.34.65-3.41h0ZM112.26,50.69h-4.49c.87,1.39,1.6,2.83,2.24,4.32h2.25v-4.32ZM112.26,36.64h-4.79c-.07,1.39-.13,2.83-.19,4.32h4.98v-4.32ZM105.97,22.59h-1.42c-.43,1.36-.83,2.81-1.19,4.32h2.1c.15-1.52.32-2.96.51-4.32Z"/>
</svg>