<?xml version="1.0" encoding="UTF-8"?>
<svg id="Layer_1" data-name="Layer 1" xmlns="http://www.w3.org/2000/svg" viewBox="0 0 250 150">
  <defs>
    <style>
      .cls-1 {
        fill-rule: evenodd;
      }
    </style>
  </defs>
  <path class="cls-1" d="M193.41,106.32H56.59v3.35c0,3.93,3.21,7.14,7.14,7.14h122.53c3.93,0,7.14-3.21,7.14-7.14v-3.35h0ZM96.64,121.25l-6.14,10.53c-.46.8.16,1.67.96,1.67h67.08c.8,0,1.42-.87.96-1.67l-6.14-10.53h-56.72ZM88.2,38.55c3.95,1.09,6.6,4.96,6.02,9.16l10.72,4.63c3.59-11.83-4.44-24.09-16.74-25.46v11.67ZM92.47,51.77l10.72,4.62c-5.49,9.58-17.76,12.85-27.26,7.24l7.01-9.33c3.41,1.35,7.27.29,9.53-2.53ZM79.41,51.65c-3.6-4.65-1.34-11.53,4.36-13.1v-11.67c-9.9,1.1-17.6,9.5-17.6,19.69,0,5.68,2.39,10.81,6.23,14.42l7.01-9.33ZM119.53,55l14.33-18.63c-1.58-3.24.77-7.11,4.45-7.11,2.98,0,5.28,2.61,4.9,5.57l12.37,8.29c1.27-.73,2.82-.85,4.2-.33l13.16-12.15-2.76-.13c-1.22-.06-2.16-1.09-2.1-2.31s1.09-2.16,2.31-2.1l8.31.39c1.35.06,2.34,1.29,2.05,2.71l-1.47,8.08c-.21,1.2-1.36,2-2.56,1.78s-2-1.36-1.78-2.56l.37-2.02-12.53,11.57c.91,3.14-1.44,6.32-4.75,6.32-2.98,0-5.28-2.62-4.9-5.57l-12.37-8.29c-1.01.58-2.22.78-3.39.56l-14.33,18.63c1.58,3.24-.77,7.11-4.45,7.11-2.73,0-4.94-2.21-4.94-4.94,0-3.12,2.84-5.44,5.89-4.85h0ZM114.04,73.41h9.08c.61,0,1.11.5,1.11,1.11v17.46c0,.61-.5,1.11-1.11,1.11h-9.08c-.61,0-1.11-.5-1.11-1.11v-17.46c0-.61.5-1.11,1.11-1.11ZM173.21,42.78c-.61,0-1.11.5-1.11,1.11v48.1c0,.61.5,1.11,1.11,1.11h9.08c.61,0,1.11-.5,1.11-1.11v-48.1c0-.61-.5-1.11-1.11-1.11h-9.08ZM153.49,60.99c-.61,0-1.11.5-1.11,1.11v29.88c0,.61.5,1.11,1.11,1.11h9.08c.61,0,1.11-.5,1.11-1.11v-29.88c0-.61-.5-1.11-1.11-1.11h-9.08ZM133.76,51.61c-.61,0-1.11.5-1.11,1.11v39.26c0,.61.5,1.11,1.11,1.11h9.08c.61,0,1.11-.5,1.11-1.11v-39.26c0-.61-.5-1.11-1.11-1.11h-9.08ZM193.41,101.89H56.59V23.69c0-3.93,3.21-7.14,7.14-7.14h122.53c3.93,0,7.14,3.21,7.14,7.14v78.2ZM69.98,97.75h2.03c1.22,0,2.22-.99,2.22-2.22s-.99-2.22-2.22-2.22h-2.03c-1.22,0-2.22.99-2.22,2.22s.99,2.22,2.22,2.22ZM78.56,97.75h20.04c1.22,0,2.22-.99,2.22-2.22s-.99-2.22-2.22-2.22h-20.04c-1.22,0-2.22.99-2.22,2.22s.99,2.22,2.22,2.22ZM78.56,79.93h20.04c1.22,0,2.22-.99,2.22-2.22s-.99-2.22-2.22-2.22h-20.04c-1.22,0-2.22.99-2.22,2.22s.99,2.22,2.22,2.22ZM78.56,88.84h20.04c1.22,0,2.22-.99,2.22-2.22s-.99-2.22-2.22-2.22h-20.04c-1.22,0-2.22.99-2.22,2.22s.99,2.22,2.22,2.22ZM69.98,79.93h2.03c1.22,0,2.22-.99,2.22-2.22s-.99-2.22-2.22-2.22h-2.03c-1.22,0-2.22.99-2.22,2.22s.99,2.22,2.22,2.22ZM69.98,88.84h2.03c1.22,0,2.22-.99,2.22-2.22s-.99-2.22-2.22-2.22h-2.03c-1.22,0-2.22.99-2.22,2.22s.99,2.22,2.22,2.22Z"/>
</svg>