<?xml version="1.0" encoding="UTF-8"?>
<svg id="Layer_1" data-name="Layer 1" xmlns="http://www.w3.org/2000/svg" viewBox="0 0 250 150">
  <path d="M115.09,33.9c4.32-7.05,9.61-17.12,4.46-17.12-7.92,0-10.92,2.75-17.79,2.75h-.44c-6.86,0-9.86-2.75-17.79-2.75-5.16,0,.13,10.07,4.46,17.12h27.1Z"/>
  <path d="M112.82,39.96c-.16-.65-.16-1.33,0-1.98h-22.55c.16.65.16,1.33,0,1.98h22.55Z"/>
  <path d="M161.84,109.35c-.04,1.37-.18,2.73-.41,4.08.76.02,1.53.04,2.33.04,15.48,0,23.49-4,23.49-5.71v-2.69c-5.2,2.94-14.56,4.33-23.49,4.33-.64,0-1.28-.02-1.92-.04h0Z"/>
  <path d="M160.97,101.41c.33,1.27.57,2.56.73,3.86.68.02,1.36.03,2.07.03,15.51,0,23.49-3.97,23.49-5.69v-2.5c-5.2,2.97-14.56,4.35-23.49,4.35-.93,0-1.86-.02-2.8-.05Z"/>
  <path d="M157.49,93.28c.81,1.27,1.52,2.61,2.11,3.99,1.33.07,2.7.11,4.16.11,15.51,0,23.49-4,23.49-5.71v-2.5c-5.2,2.97-14.56,4.35-23.49,4.35-2.1,0-4.19-.08-6.27-.24h0Z"/>
  <path d="M148.17,84.01c2.18,1.35,4.17,2.97,5.92,4.84,3.21.4,6.45.6,9.68.59,15.51,0,23.49-4,23.49-5.69v-2.5c-5.2,2.94-14.56,4.33-23.49,4.33-5.24.03-10.47-.49-15.6-1.56h0Z"/>
  <path d="M140.31,73.3v2.5c.05,1.71,8.03,5.69,23.46,5.69s23.49-3.97,23.49-5.69v-2.5c-5.2,2.94-14.56,4.35-23.49,4.35s-18.26-1.42-23.46-4.35Z"/>
  <path d="M140.31,65.35v2.53c.05,1.71,8.03,5.69,23.46,5.69s23.49-4,23.49-5.71v-2.5c-5.2,2.97-14.56,4.35-23.49,4.35s-18.26-1.39-23.46-4.35Z"/>
  <path d="M163.77,65.63c15.51,0,23.49-4,23.49-5.71s-7.97-5.69-23.49-5.69-23.46,4-23.46,5.69,7.97,5.71,23.46,5.71Z"/>
  <path d="M133.1,79.7c2.11,0,4.2.24,6.26.7-2.76-13.33-11.23-28.52-22.42-36.36h-30.8c-13.76,9.64-23.39,30.35-23.39,45.13,0,19.85,17.36,32.22,38.78,32.22,1.9-.01,3.79-.12,5.67-.33-6.98-14.25-1.07-31.46,13.18-38.44,3.95-1.93,8.3-2.93,12.7-2.92h.02Z"/>
  <path d="M133.1,83.78c-13.65,0-24.72,11.07-24.72,24.72s11.07,24.72,24.72,24.72,24.72-11.07,24.72-24.72h0c0-13.65-11.07-24.72-24.72-24.72h0ZM130.13,106.46h5.12c3.92,0,7.09,3.18,7.09,7.09s-3.18,7.09-7.09,7.09h-.53v3.91c0,1.13-.91,2.04-2.04,2.04s-2.04-.91-2.04-2.04v-3.91h-.52c-3.92,0-7.1-3.17-7.1-7.09,0-1.13.91-2.04,2.04-2.04s2.04.91,2.04,2.04c0,1.66,1.35,3.01,3.01,3.01h5.12c1.66,0,3.01-1.35,3.01-3.01s-1.35-3.01-3.01-3.01h-5.12c-3.92-.08-7.03-3.32-6.96-7.23.07-3.81,3.15-6.88,6.96-6.96h.52v-3.92c0-1.13.91-2.04,2.04-2.04s2.04.91,2.04,2.04v3.92h.52c3.92,0,7.1,3.18,7.1,7.09,0,1.13-.91,2.04-2.04,2.04s-2.04-.91-2.04-2.04c0-1.66-1.35-3.01-3.01-3.01h-5.12c-1.66.05-2.97,1.44-2.92,3.1.05,1.59,1.33,2.88,2.92,2.92h0Z"/>
</svg>