<?xml version="1.0" encoding="UTF-8"?>
<svg id="Layer_1" data-name="Layer 1" xmlns="http://www.w3.org/2000/svg" viewBox="0 0 250 150">
  <defs>
    <style>
      .cls-1 {
        fill-rule: evenodd;
      }
    </style>
  </defs>
  <path class="cls-1" d="M173.28,113.79c-.35-1.47-.93-2.87-1.72-4.15l1.2-2.7-3.18-3.18-2.7,1.2c-1.28-.79-2.69-1.37-4.15-1.72l-1.06-2.75h-4.5l-1.06,2.75c-1.47.35-2.87.93-4.15,1.72l-2.7-1.2-3.18,3.18,1.2,2.7c-.79,1.28-1.37,2.69-1.72,4.15l-2.75,1.06v4.5l2.75,1.06c.35,1.47.93,2.87,1.72,4.15l-1.2,2.7,3.18,3.18,2.7-1.2c1.28.79,2.69,1.37,4.15,1.72l1.06,2.75h4.5l1.06-2.75c1.47-.35,2.87-.93,4.15-1.72l2.7,1.2,3.18-3.18-1.2-2.7c.79-1.28,1.37-2.69,1.72-4.15l2.75-1.06v-4.5l-2.75-1.06ZM159.42,124.94c-4.33,0-7.84-3.51-7.84-7.84s3.51-7.84,7.84-7.84,7.84,3.51,7.84,7.84-3.51,7.84-7.84,7.84ZM125,94.34c4.25,0,7.7,3.45,7.7,7.7s-3.45,7.7-7.7,7.7-7.7-3.45-7.7-7.7,3.45-7.7,7.7-7.7ZM154.03,78.62h-58.06c-2.9,0-5.27,2.37-5.27,5.27v36.29c0,2.9,2.37,5.27,5.27,5.27h18.25v8.38h-8.03c-2.47,0-4.5,1.62-4.5,3.59v5.11h46.62v-5.11c0-1.98-2.02-3.59-4.5-3.59h-8.03v-8.38h6.17l.33-.75c-.13-.29-.25-.59-.37-.89l-3.61-1.39v-10.68l3.61-1.39c.11-.3.24-.59.37-.89l-1.57-3.54,7.55-7.55,3.54,1.57c.29-.13.59-.25.89-.37l1.39-3.61h5.23v-12.08c0-2.9-2.37-5.27-5.27-5.27h0ZM141.32,104.25l-2.7,1.04c-.34,1.44-.91,2.82-1.69,4.08l1.18,2.65-3.12,3.12-2.65-1.18c-1.26.78-2.64,1.35-4.08,1.69l-1.04,2.7h-4.42l-1.04-2.7c-1.44-.34-2.82-.91-4.08-1.69l-2.65,1.18-3.12-3.12,1.18-2.65c-.78-1.26-1.35-2.64-1.69-4.08l-2.7-1.04v-4.42l2.7-1.04c.34-1.44.91-2.82,1.69-4.08l-1.18-2.65,3.12-3.12,2.65,1.18c1.26-.78,2.64-1.35,4.08-1.69l1.04-2.7h4.42l1.04,2.7c1.44.34,2.82.91,4.08,1.69l2.65-1.18,3.12,3.12-1.18,2.65c.78,1.26,1.35,2.64,1.69,4.08l2.7,1.04v4.42h0ZM139.92,13.63c-8.24-8.24-21.6-8.24-29.85,0-8.24,8.24-8.24,21.6,0,29.85,8.24,8.24,21.6,8.24,29.85,0,8.24-8.24,8.24-21.6,0-29.85ZM137.59,34h-7.15v7.15h-10.88v-7.15h-7.15v-10.88h7.15v-7.15h10.88v7.15h7.15v10.88ZM143.11,46.66c-10,10-26.22,10-36.21,0-.51-.51-.99-1.04-1.45-1.58v29.04h7.65v-2.84c0-.93.76-1.69,1.69-1.69h5.71c.93,0,1.69.76,1.69,1.69v2.84h5.65v-2.84c0-.93.76-1.69,1.69-1.69h5.71c.93,0,1.69.76,1.69,1.69v2.84h7.65v-29.04c-.46.54-.94,1.07-1.45,1.58ZM122.17,62.25c0,.93-.76,1.69-1.69,1.69h-5.71c-.93,0-1.69-.76-1.69-1.69v-5.71c0-.93.76-1.69,1.69-1.69h5.71c.93,0,1.69.76,1.69,1.69v5.71ZM136.91,62.25c0,.93-.76,1.69-1.69,1.69h-5.71c-.93,0-1.69-.76-1.69-1.69v-5.71c0-.93.76-1.69,1.69-1.69h5.71c.93,0,1.69.76,1.69,1.69v5.71ZM68.57,48.76c-1.24,0-2.25,1.01-2.25,2.25v68.62c0,1.24,1.01,2.25,2.25,2.25h17.77c-.1-.55-.15-1.12-.15-1.7v-36.29c0-3.84,2.23-7.17,5.46-8.77h-3.51c-.93,0-1.69-.76-1.69-1.69v-5.71c0-.93.76-1.69,1.69-1.69h5.71c.93,0,1.69.76,1.69,1.69v5.71c0,.25-.05.49-.15.7.19-.01.39-.02.58-.02h4.97v-25.36h-32.37,0ZM80.8,102.92c0,.93-.76,1.69-1.69,1.69h-5.71c-.93,0-1.69-.76-1.69-1.69v-5.71c0-.93.76-1.69,1.69-1.69h5.71c.93,0,1.69.76,1.69,1.69v5.71ZM80.8,88.18c0,.93-.76,1.69-1.69,1.69h-5.71c-.93,0-1.69-.76-1.69-1.69v-5.71c0-.93.76-1.69,1.69-1.69h5.71c.93,0,1.69.76,1.69,1.69v5.71ZM80.8,73.44c0,.93-.76,1.69-1.69,1.69h-5.71c-.93,0-1.69-.76-1.69-1.69v-5.71c0-.93.76-1.69,1.69-1.69h5.71c.93,0,1.69.76,1.69,1.69v5.71ZM181.43,48.76h-32.37v25.36h4.97c.19,0,.39,0,.58.02-.1-.21-.15-.45-.15-.7v-5.71c0-.93.76-1.69,1.69-1.69h5.71c.93,0,1.69.76,1.69,1.69v5.71c0,.93-.76,1.69-1.69,1.69h-3.51c3.23,1.6,5.46,4.93,5.46,8.77v12.08h.95l1.39,3.61c.3.11.59.24.89.37l2.16-.96v-1.79c0-.93.76-1.69,1.69-1.69h5.71c.93,0,1.69.76,1.69,1.69v5.71c0,.87-.66,1.58-1.5,1.68l1.34,1.34-1.57,3.54c.13.29.25.59.37.89l3.61,1.39v10.13h.89c1.24,0,2.25-1.01,2.25-2.25V51.01c0-1.24-1.01-2.25-2.25-2.25h0ZM178.29,88.18c0,.93-.76,1.69-1.69,1.69h-5.71c-.93,0-1.69-.76-1.69-1.69v-5.71c0-.93.76-1.69,1.69-1.69h5.71c.93,0,1.69.76,1.69,1.69v5.71ZM178.29,73.44c0,.93-.76,1.69-1.69,1.69h-5.71c-.93,0-1.69-.76-1.69-1.69v-5.71c0-.93.76-1.69,1.69-1.69h5.71c.93,0,1.69.76,1.69,1.69v5.71Z"/>
</svg>