<?xml version="1.0" encoding="UTF-8"?>
<svg id="Layer_1" data-name="Layer 1" xmlns="http://www.w3.org/2000/svg" viewBox="0 0 250 150">
  <defs>
    <style>
      .cls-1 {
        fill-rule: evenodd;
      }
    </style>
  </defs>
  <path class="cls-1" d="M83.07,38.29c12.1,0,21.9,9.8,21.9,21.9s-9.8,21.9-21.9,21.9-21.9-9.8-21.9-21.9,9.8-21.9,21.9-21.9ZM96.06,72.23c2.93-3.16,4.72-7.39,4.72-12.04,0-9.78-7.93-17.71-17.71-17.71s-17.71,7.93-17.71,17.71c0,4.65,1.79,8.88,4.72,12.04,1.94-5.3,7.02-9.09,12.99-9.09s11.06,3.79,12.99,9.09ZM83.07,62.1c-3.85,0-6.99-3.15-6.99-6.99s3.15-6.99,6.99-6.99,6.99,3.15,6.99,6.99-3.15,6.99-6.99,6.99ZM129.99,16.55c1.75.42,3.42,1.11,4.95,2.05l3.22-1.43,3.79,3.79-1.42,3.22c.94,1.53,1.63,3.2,2.05,4.95l3.28,1.26v5.36l-3.28,1.26c-.42,1.75-1.11,3.42-2.05,4.95l1.42,3.22-3.79,3.79-3.22-1.42c-1.53.94-3.2,1.63-4.95,2.05l-1.26,3.28h-5.36l-1.26-3.28c-1.75-.42-3.42-1.11-4.95-2.05l-3.22,1.42-3.79-3.79,1.43-3.22c-.94-1.53-1.63-3.2-2.06-4.95l-3.28-1.26v-5.36l3.28-1.26c.42-1.75,1.11-3.42,2.06-4.95l-1.43-3.22,3.79-3.79,3.22,1.43c1.53-.94,3.2-1.63,4.95-2.05l1.27-3.29h5.36l1.26,3.29ZM126.05,23.72c-5.16,0-9.35,4.18-9.35,9.35s4.18,9.35,9.35,9.35,9.35-4.19,9.35-9.35-4.19-9.35-9.35-9.35ZM169.03,79.99c-10.91,0-19.8-8.9-19.8-19.8s8.9-19.8,19.8-19.8,19.8,8.9,19.8,19.8-8.9,19.8-19.8,19.8ZM166.93,48.62c-.39.09-.77.21-1.14.36-2.73,1.08-4.7,3.44-4.54,6.65.2,4.18,3.94,5.98,7.46,6.55.91.15,1.89.36,2.75.76.89.4,1.67,1.01,1.8,2.14h0c.1.85-.3,1.46-.88,1.86-.88.61-2.07.87-3.15.89h0c-1.97.05-4.02-.8-4.52-2.81-.28-1.12-1.42-1.8-2.54-1.53-1.12.28-1.8,1.42-1.53,2.54.79,3.16,3.33,5.13,6.29,5.76v.93c0,1.15.94,2.09,2.09,2.09s2.09-.94,2.09-2.09v-.9c3.51-.67,6.8-3.1,6.3-7.24-.51-4.27-4.44-5.93-8.03-6.52h0c-.84-.14-1.74-.35-2.51-.72-.75-.37-1.4-.92-1.45-1.89h0c-.06-1.27.82-2.13,1.9-2.56,1.92-.76,4.6-.28,5.61,2.11.45,1.06,1.67,1.57,2.74,1.12,1.06-.45,1.57-1.67,1.12-2.74-1.13-2.69-3.3-4.22-5.67-4.77v-.94c0-1.15-.94-2.09-2.09-2.09s-2.09.94-2.09,2.09v.96ZM74.74,107.38s.01.02.02.04l11.55,20.4s.01.02.02.03l2.54,4.48c.22.4.09.91-.31,1.14h0s-5.57,3.16-5.57,3.16c-.4.22-.91.09-1.14-.31h0s-16.38-28.95-16.38-28.95h0c-.23-.4-.09-.91.31-1.13h0s5.58-3.16,5.58-3.16c.4-.23.91-.08,1.14.32l2.26,3.99ZM70.5,106.38c-1.26.18-2.14,1.35-1.96,2.62.19,1.26,1.36,2.15,2.63,1.96,1.26-.18,2.14-1.36,1.96-2.63-.19-1.26-1.36-2.14-2.63-1.95ZM88.92,123.94l-9.51-16.8,14.52-8.41c3.35-1.94,6.71-3.47,10.39-2.28h0c4.78,1.55,12.58,4.85,20.54,6.32,1.8.64,2.97,2.44,2.47,4.3h0c-.49,1.84-2.07,2.72-4.22,2.49-4.37-.9-8.43-2.23-12.93-3.44-1.12-.3-2.26.36-2.56,1.48s.36,2.26,1.48,2.56c4.62,1.24,13.32,3.53,13.35,3.53,0,0,2.47.4,2.47.4,3.67.58,7.03.07,10.24-1.81l19.87-11.57c4.57-2.66,7.71-3.22,9.76-2.37,1.56.65,2.17,2.21,2.13,3.68-.03,1.24-.5,2.5-1.47,3.1l-36.05,22.2h0c-2.81,1.73-5.88,2.12-9.06,1.27l-26.15-7.01c-.54-.14-1.11-.07-1.59.21l-3.68,2.13ZM128.14,76.64c0,1.15-.94,2.09-2.09,2.09s-2.09-.94-2.09-2.09v-14.24c0-1.15.94-2.09,2.09-2.09s2.09.94,2.09,2.09v14.24ZM133.65,84.43c-.91.72-2.22.56-2.94-.34-.72-.91-.56-2.22.34-2.94l12.23-9.68c.91-.72,2.22-.56,2.94.34.72.91.56,2.22-.34,2.94l-12.23,9.68ZM121.04,81.15c.91.72,1.06,2.03.34,2.94-.72.91-2.03,1.06-2.94.34l-12.23-9.68c-.91-.72-1.06-2.03-.34-2.94.72-.91,2.03-1.06,2.94-.34l12.23,9.68Z"/>
</svg>