<?xml version="1.0" encoding="UTF-8"?>
<svg id="Layer_1" data-name="Layer 1" xmlns="http://www.w3.org/2000/svg" viewBox="0 0 250 150">
  <g>
    <g>
      <path d="M133.8,46.05c0-4.86-3.95-8.82-8.8-8.82s-8.8,3.96-8.8,8.82c0,.68.07,1.34.22,1.99h17.15c.15-.65.22-1.31.22-1.99h0Z"/>
      <path d="M151.68,41.74c-1.21-.29-2.18-1.21-2.52-2.41-.52-1.81-1.26-3.56-2.19-5.22-.62-1.1-.59-2.45.07-3.52l2.98-4.83-4.34-4.28-4.97,2.97c-1.06.63-2.37.66-3.45.06-1.68-.93-3.47-1.66-5.31-2.18-1.2-.34-2.12-1.29-2.42-2.5l-1.37-5.52h-6.21l-1.37,5.5c-.3,1.21-1.23,2.17-2.43,2.51-1.84.51-3.63,1.24-5.32,2.16-1.08.59-2.39.56-3.44-.07l-4.99-2.98-4.34,4.28,2.96,4.81c.66,1.08.69,2.43.06,3.53-.94,1.65-1.68,3.4-2.2,5.21-.35,1.19-1.31,2.11-2.52,2.4l-5.63,1.35v5.02h16.67c-.08-.66-.13-1.32-.13-1.99,0-8.69,7.06-15.75,15.74-15.75s15.74,7.07,15.74,15.75c0,.67-.05,1.33-.13,1.99h16.67v-4.95l-5.6-1.35Z"/>
    </g>
    <path d="M64.31,119.72v13.58c0,1.32,1.07,2.39,2.39,2.39h116.6c1.32,0,2.39-1.07,2.39-2.39v-13.58h-37.85l-2.64,6.55c-.53,1.31-1.8,2.17-3.22,2.17h-34.03c-1.41,0-2.69-.86-3.22-2.17l-2.64-6.55h-37.79Z"/>
  </g>
  <path d="M174.11,54.97h-98.23c-1.27,0-2.31,1.04-2.31,2.31v55.5h30.87c1.41,0,2.69.86,3.22,2.17l2.64,6.55h29.34l2.64-6.55c.53-1.31,1.8-2.17,3.22-2.17h30.93v-55.5c0-1.28-1.04-2.31-2.31-2.31h0ZM112.79,79.84l-12.61,6.32,12.61,6.32v6.65l-21.08-10.86v-4.23l21.08-10.86v6.65ZM122.84,99.49h-6.37l11.9-30.92h6.41l-11.94,30.92ZM158.29,88.31l-21.08,10.81v-6.65l12.7-6.32-12.7-6.32v-6.65l21.08,10.81v4.3Z"/>
</svg>