<?xml version="1.0" encoding="UTF-8"?>
<svg id="Layer_1" data-name="Layer 1" xmlns="http://www.w3.org/2000/svg" viewBox="0 0 250 150">
  <g id="International-Global-Worldwide-Economy-Business">
    <path d="M159.97,49.35c-1.22.81-2.79.91-4.11.25l-6.46-3.22-6.59,1.64c-.43.11-.88.14-1.33.09,1.78,1.67,3.56,3.37,5.3,5.11.92.92,1.83,1.86,2.73,2.79l.94.62,9.1,1.83,5.97-3.41c-1.16-2.34-2.52-4.58-4.06-6.69l-1.49.99Z"/>
    <path d="M161.59,62.01c-.85.48-1.83.65-2.79.49l-3.98-.8c2.95,3.28,5.76,6.6,8.41,9.93,1.96-2.62,3.81-5.23,5.54-7.83-.43-1.69-.97-3.35-1.59-4.97l-5.58,3.18Z"/>
    <path d="M149.01,38.03h-8.54l-2.38,3.54,3.69,2.45,6.59-1.64c.97-.25,1.99-.13,2.87.34l6.43,3.2,1.17-.78c-2.48-2.81-5.29-5.3-8.38-7.43-.46.19-.96.3-1.46.31h0Z"/>
    <path d="M170.16,74.98c0-1.82-.12-3.64-.34-5.45-1.27,1.81-2.62,3.63-3.99,5.45,1.38,1.82,2.72,3.64,3.99,5.45.22-1.81.34-3.63.34-5.45h0Z"/>
    <path d="M162.81,99.63c2.71-4.13,4.72-8.68,5.95-13.46-1.72-2.6-3.57-5.21-5.54-7.83-1.86,2.35-3.8,4.68-5.81,7.01l1.67,2.22c.53.71.82,1.58.82,2.46v6.69l2.91,2.91Z"/>
    <path d="M154.88,81.99c2-2.33,3.92-4.66,5.77-7-4.19-5.34-8.83-10.65-13.78-15.81l-4.01-2.67h-6.49l-3.02,4.49,1.54,6.18,6.44,1.55,4.42-1.44c1.48-.47,3.1-.07,4.19,1.04l2.6,2.58c.77.78,1.2,1.83,1.2,2.92v6.63l1.15,1.52Z"/>
    <path d="M112.24,110.29l2.49.82v-6.12c0-1.56.87-2.98,2.27-3.67l5.94-2.97.02-3.43c.01-1.76,1.14-3.32,2.81-3.87l3.57-1.18,1.15-4.62h-2.39c-1.38,0-2.67-.69-3.43-1.85l-2.84-4.31h-6.25c-1.09,0-2.14-.44-2.91-1.22l-4.41-4.46-7.91,4.82v6.17l3.27,3.27,2.67,1.34c1.4.69,2.28,2.11,2.27,3.67v6.63l3.66,10.98Z"/>
    <path d="M160.38,103l-3.39-3.38c-.76-.77-1.19-1.81-1.2-2.89v-6.69l-1.16-1.55c-2.53,2.8-5.15,5.57-7.85,8.27-8.4,8.45-17.51,16.16-27.22,23.05,15.61,1.93,31.1-4.44,40.83-16.8h0Z"/>
    <path d="M114.49,34.02l-1.45-2.57c-15,4.15-26.82,15.72-31.31,30.62l5.6,7.18,8.93,4.47v-3.79l-4.31-2.89c-1.15-.76-1.84-2.05-1.85-3.43v-3.37c0-1.96,1.38-3.64,3.3-4.03l8.35-1.66,7.53-3.76,5.43-7.26c.55-.74,1.34-1.27,2.23-1.51l6.77-1.69.88-1.31c-.95-.75-1.91-1.46-2.86-2.18l-4.33-.72c-1.25-.2-2.33-.98-2.92-2.1h0Z"/>
    <path d="M119.55,30.16c1.29.9,2.58,1.83,3.87,2.79l2.87.49c2.12.34,3.62,2.27,3.43,4.41,1.44,1.16,2.87,2.35,4.3,3.57.02-.75.25-1.48.65-2.11l2.37-3.54c.76-1.15,2.05-1.84,3.43-1.85h3.3c-5.89-2.71-12.3-4.11-18.78-4.11-1.82,0-3.64.12-5.45.34h0Z"/>
    <path d="M152.11,85.13l-1.66-2.21c-.53-.71-.82-1.58-.82-2.46v-6.63l-2.62-2.61-4.41,1.42c-.75.25-1.56.28-2.32.07l-6.35-1.54c-1.48-.36-2.65-1.51-3.03-2.99l-1.52-6.2c-.27-1.1-.09-2.26.52-3.22l3.03-4.53c.77-1.14,2.05-1.83,3.43-1.84h3.69c-4.01-3.82-8.11-7.43-12.25-10.81l-.69,1.03c-.56.87-1.44,1.48-2.44,1.7l-6.71,1.68-5.43,7.25c-.37.52-.86.94-1.44,1.22l-7.54,3.76c-.31.16-.63.27-.97.35l-8.4,1.67v3.37l4.31,2.89c1.15.76,1.84,2.05,1.85,3.43v3.49l5.75-3.51c1.62-.99,3.72-.74,5.06.62l4.42,4.45h6.25c1.38,0,2.67.69,3.43,1.85l2.84,4.31h2.4c2.27,0,4.1,1.84,4.1,4.11,0,.33-.04.67-.12.99l-1.15,4.61c-.34,1.37-1.35,2.46-2.69,2.9l-3.57,1.19-.02,3.43c0,1.55-.88,2.96-2.27,3.64l-5.94,2.97v6.12c0,2.27-1.84,4.11-4.1,4.11-.44,0-.87-.07-1.29-.21l-2.5-.82c-1.23-.41-2.19-1.37-2.6-2.6l-3.67-10.99c-.14-.42-.21-.86-.21-1.3v-6.63l-2.67-1.34c-.39-.2-.76-.46-1.07-.77l-3.27-3.27c-.77-.77-1.2-1.81-1.2-2.9v-6.17c.01-.14.03-.27.05-.41h-.06c-.64,0-1.26-.15-1.83-.43l-8.94-4.49c-.56-.28-1.04-.68-1.42-1.18l-3.54-4.54c-4.1,23.24,10.42,45.72,33.29,51.54,10.81-7.29,20.87-15.62,30.06-24.87,2.85-2.85,5.6-5.77,8.24-8.72h0Z"/>
    <path d="M113.79,118.75c1.9.48,3.82.84,5.77,1.07-1.42.99-2.81,1.93-4.21,2.85-14.59,9.55-27.4,14.51-36.78,14.51-4.28.25-8.47-1.24-11.64-4.13-7.02-7.06-4.99-21.86,5.62-40.6l3.57,2.01c-9.48,16.79-11.84,30.11-6.28,35.68,6.38,6.38,23.38,2.11,43.25-10.92.23-.14.47-.31.7-.47h0Z"/>
    <path d="M115.35,27.3c1.4.92,2.79,1.87,4.21,2.85-1.94.23-3.87.58-5.77,1.07-.23-.16-.47-.33-.7-.47-19.87-13.01-36.85-17.3-43.25-10.92-5.58,5.58-3.18,18.99,6.38,35.84l-3.57,2.03c-10.69-18.84-12.79-33.71-5.73-40.79,8.09-8.05,26.19-4.17,48.42,10.39h0Z"/>
    <path d="M172.68,84.63c14.55,22.23,18.43,40.34,10.39,48.42-3.17,2.88-7.36,4.37-11.64,4.13-7.86,0-18.19-3.51-30.07-10.39l2.05-3.55c17.3,10.02,31.04,12.6,36.74,6.9,6.38-6.4,2.11-23.38-10.92-43.25-.16-.25-.31-.47-.47-.72.48-1.88.84-3.78,1.07-5.71.99,1.4,1.95,2.79,2.85,4.17h0Z"/>
    <path d="M144.48,26.11l-2.03-3.57c18.76-10.61,33.56-12.64,40.62-5.62,8.05,8.09,4.17,26.19-10.39,48.42-.9,1.38-1.87,2.77-2.85,4.17-.23-1.92-.58-3.83-1.07-5.71.16-.25.31-.47.47-.72,13.03-19.87,17.3-36.85,10.92-43.25-5.56-5.56-18.91-3.2-35.68,6.28h0Z"/>
  </g>
</svg>