<?xml version="1.0" encoding="UTF-8"?>
<svg id="Layer_1" data-name="Layer 1" xmlns="http://www.w3.org/2000/svg" viewBox="0 0 250 150">
  <path d="M168.28,51.28c3.98,7.24,6.07,15.37,6.07,23.72,0,.77-.06,1.55-.09,2.33.73-.11,1.48-.19,2.24-.19.7,0,1.38.06,2.05.16.03-.77.09-1.54.09-2.3,0-9.78-2.67-19.29-7.68-27.62-.63,1.11-1.32,2.17-2.11,3.18l-.57.73Z"/>
  <path d="M104.34,30.18c6.29-2.91,13-4.43,20.01-4.52.53-1.49,1.18-2.92,1.96-4.27-8.32-.19-16.77,1.58-24.31,5.16.94,1.09,1.73,2.31,2.33,3.63h0Z"/>
  <path d="M82.3,50.26l-2.77-3.69c-4.96,7.91-7.74,16.92-8.1,26.28h4.29c.34-8,2.58-15.71,6.58-22.59Z"/>
  <path d="M158.74,111l1.17,4.69c3.2-2.74,6.05-5.84,8.52-9.24l-2.71-3.61c-2.03,2.97-4.36,5.71-6.98,8.16h0Z"/>
  <path d="M122.85,77.15h-17.17v16.35l-10.73-5.36-10.73,5.36v-16.35h-17.17v42.92h5.76c2.42-5.07,7.57-8.58,13.55-8.58s11.13,3.52,13.55,8.58h22.93v-42.92Z"/>
  <path d="M101.22,124.35c.1.7.17,1.42.17,2.15s-.07,1.44-.17,2.15h21.8c-.1-.7-.17-1.42-.17-2.15s.07-1.44.17-2.15h-21.8Z"/>
  <path d="M153.37,107.19h-13.34c-2.37,0-4.29-1.92-4.29-4.29v-4.29c0-2.37,1.92-4.29,4.29-4.29h10.13l-.67-2.67c-.24-.95-1.09-1.62-2.08-1.62h-20.25v25.99c2.73-2.79,6.53-4.53,10.73-4.53,5.98,0,11.13,3.52,13.55,8.58h5.16l-3.22-12.87Z"/>
  <path d="M62.77,124.35v4.29h8.75c-.1-.7-.17-1.42-.17-2.15s.07-1.44.17-2.15h-8.75Z"/>
  <path d="M86.38,115.77c-5.92,0-10.73,4.81-10.73,10.73s4.81,10.73,10.73,10.73,10.73-4.81,10.73-10.73-4.81-10.73-10.73-10.73ZM86.38,130.79c-2.37,0-4.29-1.92-4.29-4.29s1.92-4.29,4.29-4.29,4.29,1.92,4.29,4.29-1.92,4.29-4.29,4.29Z"/>
  <path d="M88.52,86.55l6.44-3.22,6.44,3.22v-9.4h-12.87v9.4Z"/>
  <path d="M137.87,115.77c-5.92,0-10.73,4.81-10.73,10.73s4.81,10.73,10.73,10.73,10.73-4.81,10.73-10.73-4.81-10.73-10.73-10.73ZM137.87,130.79c-2.37,0-4.29-1.92-4.29-4.29s1.92-4.29,4.29-4.29,4.29,1.92,4.29,4.29-1.92,4.29-4.29,4.29Z"/>
  <path d="M140.02,102.9h12.27l-1.07-4.29h-11.2v4.29Z"/>
  <path d="M152.9,126.5c0,.73-.07,1.44-.17,2.15h4.46v-4.29h-4.46c.1.7.17,1.42.17,2.15Z"/>
  <path d="M90.67,54.26l8.58-11.45c1.38-1.84,2.15-4.13,2.15-6.44,0-5.92-4.81-10.73-10.73-10.73s-10.73,4.81-10.73,10.73c0,2.31.76,4.59,2.15,6.44l8.58,11.45ZM90.67,32.08c2.37,0,4.29,1.92,4.29,4.29s-1.92,4.29-4.29,4.29-4.29-1.92-4.29-4.29,1.92-4.29,4.29-4.29Z"/>
  <path d="M176.5,81.44c-5.92,0-10.73,4.81-10.73,10.73,0,2.31.76,4.59,2.15,6.44l8.58,11.45,8.58-11.45c1.38-1.84,2.15-4.13,2.15-6.44,0-5.92-4.81-10.73-10.73-10.73ZM176.5,96.46c-2.37,0-4.29-1.92-4.29-4.29s1.92-4.29,4.29-4.29,4.29,1.92,4.29,4.29-1.92,4.29-4.29,4.29Z"/>
  <path d="M148.6,69.38l16.87-21.48c2.96-3.76,4.59-8.47,4.59-13.26v-.42c0-11.83-9.63-21.46-21.46-21.46s-21.46,9.63-21.46,21.46v.42c0,4.79,1.63,9.5,4.59,13.26l16.87,21.48ZM148.6,19.21c8.3,0,15.02,6.72,15.02,15.02s-6.72,15.02-15.02,15.02-15.02-6.72-15.02-15.02,6.72-15.02,15.02-15.02Z"/>
  <path d="M109.98,64.27h4.29v4.29h-4.29v-4.29Z"/>
  <path d="M118.56,64.27h4.29v4.29h-4.29v-4.29Z"/>
  <path d="M127.15,64.27h4.29v4.29h-4.29v-4.29Z"/>
</svg>