<?xml version="1.0" encoding="UTF-8"?>
<svg id="Layer_1" data-name="Layer 1" xmlns="http://www.w3.org/2000/svg" viewBox="0 0 250 150">
  <g id="Layer_2" data-name="Layer 2">
    <path d="M167.76,53.62h-2.02c-.17,0-.34-.21-.38-.38-.72-2.3-1.65-4.53-2.78-6.66-.08-.17-.13-.42.04-.55l1.43-1.43c1.24-1.27,1.94-2.98,1.94-4.76.02-1.78-.68-3.5-1.94-4.76l-8.09-8.09c-2.64-2.61-6.88-2.61-9.52,0l-1.43,1.43c-.13.17-.38.13-.55.04-2.13-1.13-4.36-2.06-6.66-2.78-.17-.04-.38-.21-.38-.38v-2.02c-.01-3.72-3.02-6.73-6.74-6.74h-11.37c-3.72.01-6.73,3.02-6.74,6.74v2.02c0,.17-.21.34-.38.38-2.3.72-4.53,1.65-6.66,2.78-.17.08-.42.13-.55-.04l-1.43-1.43c-2.64-2.61-6.88-2.61-9.52,0l-8.09,8.09c-1.26,1.26-1.96,2.98-1.94,4.76,0,1.78.69,3.49,1.94,4.76l1.43,1.43c.17.13.13.38.04.55-1.13,2.13-2.06,4.36-2.78,6.66-.04.17-.21.38-.38.38h-2.02c-3.72.01-6.73,3.02-6.74,6.74v11.37c0,2.02.91,3.92,2.49,5.18,2.4-6.18,8.25-10.34,14.87-10.57,3.93.04,7.7,1.58,10.53,4.3-.34-1.51-.51-3.05-.51-4.59,0-12.21,9.9-22.12,22.12-22.12s22.12,9.9,22.12,22.12c0,1.54-.17,3.08-.51,4.59,2.84-2.72,6.6-4.26,10.53-4.3,6.62.24,12.47,4.39,14.87,10.57,1.57-1.26,2.49-3.17,2.48-5.18v-11.37c-.01-3.72-3.02-6.73-6.74-6.74Z"/>
    <path d="M142.17,116.48l-8.39-2.79c-.78-.27-1.19-1.12-.92-1.89.1-.28.27-.52.5-.7,4.21-3.69,6.56-9.05,6.44-14.65,0-9.81-6.63-17.76-14.8-17.76s-14.8,7.95-14.8,17.76c-.12,5.59,2.23,10.96,6.44,14.65.65.5.78,1.43.28,2.09-.18.23-.42.41-.7.5l-8.39,2.79c-4.13,1.38-7.45,4.5-9.06,8.55l-1.75,4.37c-.61,1.52.13,3.24,1.65,3.85.35.14.72.21,1.1.21h50.46c1.63,0,2.96-1.33,2.96-2.96,0-.38-.07-.75-.21-1.1l-1.75-4.37c-1.62-4.04-4.93-7.17-9.06-8.55Z"/>
    <path d="M110.8,111.04l-4.3,1.43c-2.59.86-4.96,2.27-6.95,4.13h-27.93c-1.37,0-2.47-1.12-2.46-2.48,0-.32.06-.63.19-.93l1.43-3.66c1.38-3.39,4.16-6.02,7.62-7.2l7.08-2.36c.64-.2,1-.88.8-1.52-.08-.25-.24-.48-.46-.63-3.52-3.12-5.5-7.64-5.39-12.34-.63-7.53,4.91-14.17,12.43-14.91,7.53.73,13.08,7.37,12.47,14.91.11,4.72-1.88,9.24-5.43,12.34-.54.42-.64,1.2-.23,1.74.14.19.34.33.56.41l6.44,2.15c.69,3.25,2.1,6.3,4.13,8.93Z"/>
    <path d="M178.37,116.6h-27.93c-2-1.86-4.37-3.26-6.95-4.13l-4.3-1.43c2.02-2.63,3.43-5.68,4.13-8.93l6.44-2.15c.64-.23.98-.94.75-1.59-.08-.22-.22-.42-.41-.56-3.55-3.1-5.54-7.63-5.43-12.34-.61-7.54,4.94-14.18,12.47-14.91,7.52.74,13.06,7.38,12.43,14.91.1,4.71-1.87,9.22-5.39,12.34-.55.39-.68,1.14-.29,1.69.15.22.37.38.63.46l7.08,2.36c3.47,1.18,6.25,3.81,7.62,7.2l1.43,3.66c.52,1.26-.08,2.71-1.35,3.23-.29.12-.61.18-.93.19Z"/>
  </g>
</svg>