<?xml version="1.0" encoding="UTF-8"?>
<svg id="Layer_1" data-name="Layer 1" xmlns="http://www.w3.org/2000/svg" viewBox="0 0 250 150">
  <path d="M86.53,116.1h7.84v8.82h-24.7v-62.53c1.89.9,4.02,1.4,6.28,1.4,4.93,0,9.46-2.38,12.26-6.27,2.8,3.89,7.33,6.27,12.26,6.27s9.46-2.38,12.26-6.27c2.8,3.89,7.33,6.27,12.26,6.27s9.46-2.38,12.26-6.27c2.8,3.89,7.33,6.27,12.26,6.27s9.46-2.38,12.26-6.27c2.8,3.89,7.33,6.27,12.26,6.27,2.25,0,4.39-.5,6.28-1.41v62.54h-24.7v-8.82h7.84c2.31,0,4.2-1.89,4.2-4.2v-38.89c0-2.31-1.89-4.2-4.2-4.2h-76.95c-2.31,0-4.2,1.89-4.2,4.2v38.89c0,2.31,1.89,4.2,4.2,4.2h0ZM124.98,102.33c12.69-.82,16.04-25.99,0-25.99s-12.69,25.17,0,25.99ZM117.89,129.25l2.43-24.27c-.43-.19-.85-.4-1.27-.64-.15-.08-.29-.17-.44-.26l-13.71,2.26c-4.07.67-7,4.12-7,8.25v18.53c0,1.03.84,1.86,1.86,1.86h5.97v-12.21c0-1.03.83-1.86,1.86-1.86s1.86.83,1.86,1.86v12.21h12.2l-3.39-4.42c-.29-.38-.42-.85-.37-1.32h0ZM145.09,106.35l-13.74-2.27c-.54.33-1.09.63-1.67.89l2.43,24.29c.05.47-.09.94-.38,1.32l-3.39,4.42h12.2v-12.21c0-1.03.83-1.86,1.86-1.86s1.86.83,1.86,1.86v12.21h5.97c1.03,0,1.86-.84,1.86-1.86v-18.53c0-4.12-2.93-7.58-7-8.25h0ZM125.22,106.05l-.24.02-.24-.02c-.26-.02-.52-.04-.78-.07l-2.29,22.91,3.33,4.34,3.33-4.34-2.29-22.92c-.27.03-.54.06-.81.08h0ZM183.24,42.73l-14.3-24.77c-1.09-1.9-2.9-2.94-5.1-2.94h-10.78l9.97,27.72h20.21ZM159.27,42.73l-9.97-27.72h-13.9l3.44,27.72h20.44ZM131.82,15.01h-13.63l-3.44,27.72h20.51l-3.44-27.72ZM111.17,42.73l3.44-27.72h-13.9l-9.97,27.72h20.43ZM96.94,15.01h-10.78c-2.19,0-4,1.04-5.1,2.94l-14.3,24.77h20.21l9.97-27.72ZM75.95,60.25c4.52,0,8.6-2.61,10.49-6.69v-7.29h-20.98v3.72c0,5.93,4.69,10.26,10.49,10.26ZM89.99,53.57c1.9,4.07,5.97,6.68,10.49,6.68s8.59-2.61,10.49-6.68v-7.29h-20.98v7.3ZM114.51,53.57c1.9,4.07,5.98,6.68,10.49,6.68s8.59-2.61,10.49-6.68v-7.3h-20.98v7.3h0ZM139.03,53.57c1.9,4.07,5.98,6.68,10.49,6.68s8.6-2.61,10.49-6.69v-7.29h-20.98v7.3h0ZM163.56,53.57c1.9,4.07,5.97,6.68,10.49,6.68,5.72,0,10.49-4.25,10.49-10.26v-3.72h-20.98v7.3h0ZM182.7,128.47h-27.06v6.52h31.41v-2.17c0-2.39-1.95-4.34-4.34-4.34ZM62.96,132.82v2.17h31.41v-6.52h-27.06c-2.39,0-4.34,1.95-4.34,4.34Z"/>
</svg>