<?xml version="1.0" encoding="UTF-8"?>
<svg id="Layer_1" data-name="Layer 1" xmlns="http://www.w3.org/2000/svg" viewBox="0 0 250 150">
  <defs>
    <style>
      .cls-1 {
        fill-rule: evenodd;
      }
    </style>
  </defs>
  <path class="cls-1" d="M62.25,91.41h5.11v-7.83c0-2.77,2.25-5.02,5.02-5.02h6.94c2.77,0,5.02,2.25,5.02,5.02v7.83h5.11c1.34,0,2.42,1.09,2.43,2.43v36.04c0,1.34-1.09,2.42-2.43,2.43h-27.21c-1.34,0-2.42-1.09-2.43-2.43v-36.04c0-1.34,1.09-2.42,2.43-2.43h0ZM136.79,28.72l12.59-7.27-28.07-6.99-4.98,2.88,20.46,11.38ZM107.91,55.85l-15.87-12.94,3.58-2.37,16.66,6c.53.19,1.12.14,1.61-.14l60.39-34.87c3.64-2.11,9.14-2.24,12.96-.54,1.32.59,3.11,1.74,2.92,3.41-.2,1.8-2.19,4.12-6.95,6.87-4.6,2.66-9.2,5.32-13.8,7.97-.44.25-.76.66-.9,1.14l-12.63,43.97-4.98,2.88.55-34.44c.01-1.07-.84-1.94-1.91-1.95-.33,0-.65.08-.94.23-6.09,3.34-35.56,18.97-40.7,14.78h0ZM104.85,39.78l-8.73-3.15c-.6-.26-1.28-.2-1.83.16l-2.89,1.91c-.13-.06-.26-.11-.4-.17,6.98-6.89,15.85-11.56,25.47-13.42-5.16,3.38-8.97,8.98-11.64,14.65h0ZM127.89,28.17l5.02,2.79-5.02,2.9v-5.69ZM127.89,55.19v16.93h19.25l.32-19.85c-.48-1.85-1.02-3.64-1.62-5.35l-.11.02c-4.32,2.22-11.04,5.52-17.84,8.25h0ZM127.89,75.98v24.1c5.97.09,11.91.67,17.79,1.73,2.03-5.7,3.45-12.32,4.08-19.48-.96.46-2.11.05-2.57-.92-.14-.3-.2-.63-.18-.96l.07-4.47h-19.19ZM127.89,103.94v18.01c6.52-1.03,12.31-7.2,16.35-16.48-5.4-.94-10.87-1.45-16.35-1.53h0ZM124.04,121.94v-18.01c-5.45.08-10.89.59-16.27,1.52,2.97,6.76,8.46,15.22,16.27,16.49h0ZM124.04,100.08v-24.1h-22.2c.19,9.59,1.82,18.46,4.48,25.82,5.85-1.06,11.78-1.63,17.73-1.72h0ZM105.51,58.86l-2.13-1.74c-.94,4.95-1.45,9.97-1.54,15h22.2v-15.44c-7.99,2.91-15.5,4.65-18.53,2.18h0ZM124.04,36.09l-11.31,6.53-4.25-1.53c3.13-6.51,8.36-13.76,15.55-14.93v9.93ZM76.17,72.12h21.8c.1-5.97.78-11.91,2.04-17.75l-12.43-10.14c-.35-.28-.59-.69-.68-1.13-6.58,8.28-10.34,18.44-10.73,29.01ZM160.54,72.12h15.22c-.33-8.96-3.09-17.67-7.98-25.19l-7.23,25.19h0ZM175.75,75.98h-16.32c-.12.59-.5,1.09-1.03,1.36l-4.61,2.66c-.51,8.27-2.07,15.94-4.42,22.56,4.77,1.05,9.43,2.55,13.92,4.49,7.63-8.6,12.03-19.59,12.46-31.08ZM97.97,75.98h-14.07c2.67,1.61,4.3,4.49,4.3,7.61v3.97h1.26c3.47,0,6.28,2.81,6.28,6.28v10.56c2.16-.68,4.41-1.29,6.76-1.82-2.7-7.67-4.34-16.79-4.53-26.6h0ZM147.96,106.2c4.27.91,8.44,2.19,12.49,3.82-6.95,6.67-15.68,11.18-25.14,12.98,5.04-3.3,9.41-9.19,12.66-16.8h0ZM116.49,122.97c-7.54-1.46-14.64-4.64-20.74-9.31v-5.22c2.68-.89,5.41-1.63,8.17-2.23,2.67,6.32,6.77,12.96,12.58,16.76h0ZM86.29,135.06c1.42,0,2.56,1.15,2.56,2.56s-1.15,2.56-2.56,2.56-2.56-1.15-2.56-2.56h0c0-1.42,1.15-2.56,2.56-2.56ZM65.42,135.06c1.42,0,2.56,1.15,2.56,2.56s-1.15,2.56-2.56,2.56-2.56-1.15-2.56-2.56h0c0-1.42,1.15-2.56,2.56-2.56ZM71.22,91.41h9.27v-7.83c0-.64-.52-1.16-1.17-1.17h-6.94c-.64,0-1.16.52-1.17,1.17v7.83ZM73.93,99.15v25.41c0,1.07.86,1.93,1.93,1.93s1.93-.86,1.93-1.93v-25.41c0-1.07-.86-1.93-1.93-1.93s-1.93.86-1.93,1.93ZM82.13,99.15v25.41c0,1.07.86,1.93,1.93,1.93s1.93-.86,1.93-1.93v-25.41c0-1.07-.86-1.93-1.93-1.93s-1.93.86-1.93,1.93ZM65.72,99.15v25.41c0,1.07.86,1.93,1.93,1.93s1.93-.86,1.93-1.93v-25.41c0-1.07-.86-1.93-1.93-1.93s-1.93.86-1.93,1.93Z"/>
</svg>