<?xml version="1.0" encoding="UTF-8"?>
<svg id="Layer_1" data-name="Layer 1" xmlns="http://www.w3.org/2000/svg" xmlns:xlink="http://www.w3.org/1999/xlink" viewBox="0 0 250 150">
  <defs>
    <style>
      .cls-1 {
        fill: url(#linear-gradient);
        fill-rule: evenodd;
      }
    </style>
    <linearGradient id="linear-gradient" x1="57.45" y1="75" x2="192.55" y2="75" gradientUnits="userSpaceOnUse">
      <stop offset="0" stop-color="#0b7bbf"/>
      <stop offset="1" stop-color="#f1652a"/>
    </linearGradient>
  </defs>
  <path class="cls-1" d="M85.69,23.53c9.52,0,17.23,7.71,17.23,17.23s-5.45,9.03-6.76,20.89h-5.28v-14.54h1.79c1.71,0,3.27-.7,4.39-1.82s1.82-2.68,1.82-4.39c0-3.42-2.79-6.22-6.22-6.22s-6.22,2.79-6.22,6.22v1.79h-1.52v-1.79c0-3.42-2.79-6.22-6.22-6.22s-6.22,2.79-6.22,6.22c0,1.71.7,3.27,1.82,4.39s2.68,1.82,4.39,1.82h1.79v14.54h-5.28c-1.3-11.86-6.76-11.85-6.76-20.89,0-9.52,7.71-17.23,17.23-17.23ZM89.83,138.57h72.55c.85,0,1.59-.35,2.14-1.01.54-.66.75-1.45.58-2.29-3.53-18.32-19.65-32.15-38.99-32.15s-35.46,13.83-38.99,32.15c-.16.84.04,1.63.58,2.29.54.66,1.28,1.01,2.14,1.01h0ZM126.11,59c11.09,0,20.08,8.99,20.08,20.08s-8.99,20.08-20.08,20.08-20.08-8.99-20.08-20.08,8.99-20.08,20.08-20.08ZM167.41,22.02c-13.88,0-25.14,11.25-25.14,25.14s11.25,25.14,25.14,25.14,25.14-11.25,25.14-25.14-11.25-25.14-25.14-25.14ZM175.1,40.47c.47,1.13-.06,2.43-1.19,2.9-1.13.47-2.43-.06-2.9-1.19-.75-1.79-2.64-2.53-4.47-2.16-1.26.25-2.52,1.08-2.45,2.52.08,1.67,2.37,2.15,3.68,2.37,3.76.62,7.43,2.22,7.95,6.48.02.18.03.39.04.65.09,3.68-2.83,5.88-6.15,6.55v.72c0,1.22-.99,2.21-2.21,2.21s-2.21-.99-2.21-2.21v-.76c-2.96-.68-5.34-2.68-6.09-5.69-.29-1.18.43-2.38,1.62-2.67s2.38.43,2.67,1.62c.47,1.87,2.45,2.63,4.21,2.59.17,0,.39-.02.65-.05,1.17-.14,3.13-.7,3.1-2.19,0-.03,0-.11-.02-.23-.23-1.88-2.73-2.39-4.26-2.64-3.65-.6-7.18-2.35-7.39-6.52-.17-3.5,2.27-6.09,5.51-6.94v-.8c0-1.22.99-2.21,2.21-2.21s2.21.99,2.21,2.21v.77c2.52.62,4.47,2.3,5.48,4.69h0ZM167.41,26.04c11.66,0,21.11,9.45,21.11,21.11s-9.45,21.11-21.11,21.11-21.11-9.45-21.11-21.11,9.45-21.11,21.11-21.11ZM167.41,30.47c9.21,0,16.68,7.47,16.68,16.68s-7.47,16.68-16.68,16.68-16.68-7.47-16.68-16.68,7.47-16.68,16.68-16.68ZM81.16,75.88v1.98c0,1.54,1.26,2.8,2.8,2.8h3.63c1.54,0,2.8-1.26,2.8-2.8v-1.98h.07c1.54,0,2.8-1.26,2.8-2.8v-2.34c1.5-.05,2.71-1.29,2.71-2.8v-1.87h-20.58v1.87c0,1.54,1.26,2.8,2.8,2.8h.09v2.33c0,1.54,1.26,2.8,2.8,2.8h.07,0ZM87.9,17.7c0,1.22-.99,2.21-2.21,2.21s-2.21-.99-2.21-2.21v-4.06c0-1.22.99-2.21,2.21-2.21s2.21.99,2.21,2.21v4.06ZM109.3,32.61c-1.06.61-2.41.25-3.02-.8s-.25-2.41.8-3.02l3.51-2.03c1.06-.61,2.41-.25,3.02.8s.25,2.41-.8,3.02l-3.51,2.03ZM100.59,22.28l2.03-3.51c.61-1.06.24-2.4-.81-3.01-1.06-.61-2.4-.24-3.01.81l-2.03,3.51c-.61,1.06-.24,2.4.81,3.01,1.06.61,2.4.24,3.01-.81ZM64.29,28.79c1.06.61,1.42,1.96.8,3.02s-1.96,1.42-3.02.8l-3.51-2.03c-1.06-.61-1.42-1.96-.8-3.02s1.96-1.42,3.02-.8l3.51,2.03ZM74.6,20.08l-2.03-3.51c-.61-1.06-1.96-1.42-3.02-.8s-1.42,1.96-.8,3.02l2.03,3.51c.61,1.06,1.96,1.42,3.02.8,1.06-.61,1.42-1.96.8-3.02ZM86.45,61.65v-14.54h-1.52v14.54h1.52ZM80.5,42.67v-1.79c0-.98-.81-1.79-1.79-1.79s-1.79.81-1.79,1.79.81,1.79,1.79,1.79h1.79ZM90.88,42.67h1.79c.98,0,1.79-.81,1.79-1.79s-.81-1.79-1.79-1.79-1.79.81-1.79,1.79v1.79Z"/>
</svg>