<?xml version="1.0" encoding="UTF-8"?>
<svg id="Layer_1" data-name="Layer 1" xmlns="http://www.w3.org/2000/svg" xmlns:xlink="http://www.w3.org/1999/xlink" viewBox="0 0 250 150">
  <defs>
    <style>
      .cls-1 {
        fill: url(#linear-gradient);
        fill-rule: evenodd;
      }
    </style>
    <linearGradient id="linear-gradient" x1="64.57" y1="75" x2="185.43" y2="75" gradientUnits="userSpaceOnUse">
      <stop offset="0" stop-color="#0b7bbf"/>
      <stop offset="1" stop-color="#f1652a"/>
    </linearGradient>
  </defs>
  <path class="cls-1" d="M87.76,110.48l9.38,17.09c1.39,2.53.58,5.72-1.92,7.16-2.5,1.44-5.77.61-7.16-1.92l-10.69-19.48c.35-.06.7-.14,1.05-.23,3.15-.84,6.22-1.78,9.34-2.62h0ZM160.53,14.56c13.75,0,24.9,7.93,24.9,17.71s-11.15,17.71-24.9,17.71c-4.8,0-9.28-.96-13.08-2.64-.42-.18-.86-.14-1.23.12l-7.87,5.52c-.54.38-1.24-.19-.97-.8l3.48-7.91c.22-.5.11-1.05-.28-1.42-3.11-2.96-4.95-6.63-4.95-10.6,0-9.78,11.15-17.71,24.9-17.71h0ZM146.16,95.33c-.6-.34-.81-1.11-.46-1.71.34-.6,1.11-.81,1.71-.46l9.68,5.59c.6.34.81,1.11.46,1.71-.34.6-1.11.81-1.71.46l-9.68-5.59ZM141.26,70.21c-.35.6-1.12.81-1.72.46-.6-.35-.81-1.12-.46-1.72l5.59-9.68c.35-.6,1.12-.81,1.72-.46.6.35.81,1.12.46,1.72l-5.59,9.68ZM148.91,81.76c-.67.18-1.36-.22-1.54-.89s.22-1.36.89-1.54l10.8-2.89c.67-.18,1.36.22,1.54.89.18.67-.22,1.36-.89,1.54l-10.8,2.89ZM175.2,27.37h-27.17c-.69,0-1.26.56-1.26,1.26s.56,1.26,1.26,1.26h27.17c.69,0,1.26-.56,1.26-1.26s-.56-1.26-1.26-1.26ZM148.03,34.68c-.69,0-1.25.56-1.25,1.25s.56,1.25,1.25,1.25l17.93-.06c.69,0,1.25-.56,1.25-1.25s-.56-1.25-1.25-1.25l-17.93.06ZM69.24,29.67h30.46c2.58,0,4.68,2.1,4.68,4.68v19.16c0,2.58-2.1,4.68-4.68,4.68h-30.46c-2.58,0-4.68-2.1-4.68-4.68v-19.16c0-2.58,2.1-4.68,4.68-4.68h0ZM90.57,45.34c1.1-.63,1.1-2.2,0-2.84l-7.52-4.34c-1.1-.63-2.46.15-2.46,1.42v8.68c0,1.26,1.36,2.05,2.46,1.42l7.52-4.34ZM177.7,116.97c0-4.62-3.44-8.37-7.7-8.37-3.07,0-5.72,1.96-6.96,4.79-1.23-2.83-3.89-4.79-6.96-4.79-4.25,0-7.7,3.75-7.7,8.37,0,5.28,9.96,14.12,13.49,17.94.64.69,1.68.69,2.33,0,3.53-3.82,13.49-12.66,13.49-17.94ZM118.67,54.29c-2.15.58-3.44,2.81-2.86,4.95l15.04,56.13c.58,2.15,2.81,3.44,4.95,2.86s3.44-2.81,2.86-4.95l-15.04-56.13c-.58-2.15-2.81-3.44-4.95-2.86h0ZM92.44,106.73c-.73.16-1.41.31-2.04.46l-5.53-20.63c.63-.19,1.29-.4,2-.62,15-4.82,23.69-12.57,28.14-19.96l11.78,43.97c-7.55-4.17-18.96-6.53-34.35-3.21h0ZM87.95,107.8l-5.5-20.54c-3.32.91-5.98,1.46-10.25,2.61-5.51,1.48-8.82,7.2-7.24,13.08,1.58,5.88,7.3,9.19,12.81,7.71,4.27-1.14,6.85-2,10.18-2.87h0ZM131.9,78.3l3.53.03c1.35.01,2.49.89,2.84,2.2l1.39,5.19c.35,1.3-.19,2.63-1.36,3.32l-3.04,1.79-3.36-12.54h0Z"/>
</svg>