<?xml version="1.0" encoding="UTF-8"?>
<svg id="Layer_1" data-name="Layer 1" xmlns="http://www.w3.org/2000/svg" xmlns:xlink="http://www.w3.org/1999/xlink" viewBox="0 0 250 150">
  <defs>
    <style>
      .cls-1 {
        fill: url(#linear-gradient);
      }
    </style>
    <linearGradient id="linear-gradient" x1="73.96" y1="75" x2="176.04" y2="75" gradientUnits="userSpaceOnUse">
      <stop offset="0" stop-color="#0b7bbf"/>
      <stop offset="1" stop-color="#f1652a"/>
    </linearGradient>
  </defs>
  <path class="cls-1" d="M170.23,89.7c-.74-3.1-1.96-6.06-3.63-8.77l2.53-5.69-6.71-6.71-5.7,2.53c-2.71-1.67-5.67-2.9-8.77-3.63l-2.24-5.81h-9.49l-2.24,5.81c-3.1.74-6.06,1.96-8.77,3.63l-5.7-2.53-6.71,6.71,2.53,5.7c-1.67,2.71-2.9,5.67-3.63,8.77l-5.81,2.24v9.49l5.81,2.24c.74,3.1,1.96,6.06,3.63,8.77l-2.53,5.69,6.71,6.71,5.7-2.53c2.71,1.67,5.67,2.9,8.77,3.63l2.24,5.81h9.49l2.24-5.81c3.1-.74,6.06-1.96,8.77-3.63l5.69,2.53,6.71-6.71-2.53-5.7c1.67-2.71,2.9-5.67,3.63-8.77l5.81-2.24v-9.49l-5.81-2.24ZM140.97,113.24c-9.14,0-16.56-7.41-16.56-16.56s7.41-16.56,16.56-16.56,16.56,7.41,16.56,16.56-7.41,16.56-16.56,16.56h0ZM150.32,90.01c.96.95.96,2.51.01,3.47-3.27,3.3-6.51,6.61-9.79,9.9-.96.96-2.51.96-3.47,0l-5.44-5.44c-.96-.96-.96-2.51,0-3.47.96-.96,2.51-.96,3.47,0l3.7,3.7,8.05-8.13c.95-.96,2.5-.97,3.47-.01,0,0,0,0,0,0h0ZM141.52,30.25v-11.83c.23.11.44.25.62.43l11.83,11.83c.18.18.33.39.43.62h-11.83c-.58,0-1.05-.47-1.05-1.05ZM111.1,112.66c-1.05-1.96-1.9-4.02-2.55-6.14l-6.45-2.48v-14.69l6.45-2.48c.11-.36.22-.71.34-1.06h-3c-1.04,0-1.89-.85-1.89-1.89s.85-1.89,1.89-1.89h4.55c.21-.44.43-.87.66-1.3l-2.8-6.31,1.86-1.86h-4.26c-1.04,0-1.89-.85-1.89-1.89s.85-1.89,1.89-1.89h8.05l4.74-4.74,6.31,2.81c1.96-1.05,4.02-1.9,6.14-2.55l.3-.77h-25.54c-1.04,0-1.89-.85-1.89-1.89s.85-1.89,1.89-1.89h27l.73-1.89h14.69l2.48,6.45c1.29.39,2.55.86,3.79,1.4v-30.59h-12.01c-2.67,0-4.83-2.17-4.84-4.84v-12.01h-61.67c-1.16,0-2.1.94-2.11,2.11v100.29c0,1.16.94,2.1,2.11,2.11h36l-3.76-3.76,2.8-6.31ZM105.89,37.43h39.51c1.04,0,1.89.85,1.89,1.89s-.85,1.89-1.89,1.89h-39.51c-1.04,0-1.89-.85-1.89-1.89s.85-1.89,1.89-1.89ZM105.89,46.46h39.51c1.04,0,1.89.85,1.89,1.89s-.85,1.89-1.89,1.89h-39.51c-1.04,0-1.89-.85-1.89-1.89s.85-1.89,1.89-1.89ZM95,92.47c0,1.04-.85,1.89-1.89,1.89h-8.08c-1.04,0-1.89-.85-1.89-1.89v-8.08c0-1.04.85-1.89,1.89-1.89h8.08c1.04,0,1.89.85,1.89,1.89v8.08ZM95,70.17c0,1.04-.85,1.89-1.89,1.89h-8.08c-1.04,0-1.89-.85-1.89-1.89v-8.08c0-1.04.85-1.89,1.89-1.89h8.08c1.04,0,1.89.85,1.89,1.89v8.08ZM95,47.88c0,1.04-.85,1.89-1.89,1.89h-8.08c-1.04,0-1.89-.85-1.89-1.89v-8.08c0-1.04.85-1.89,1.89-1.89h8.08c1.04,0,1.89.85,1.89,1.89v8.08Z"/>
</svg>